M48
;DRILL file {KiCad (5.0.0)} date 01/15/19 20:44:34
;FORMAT={-:-/ absolute / metric / decimal}
FMAT,2
METRIC,TZ
T1C0.300
T2C0.400
T3C0.762
T4C4.300
%
G90
G05
M71
T1
X63.25Y-141.5
X67.5Y-142.5
X71.Y-144.75
X71.Y-145.75
X71.Y-146.75
X71.Y-148.
X71.Y-149.
X71.Y-150.
X71.Y-151.
X71.Y-152.25
X71.734Y-144.766
X72.25Y-146.75
X72.25Y-152.25
X72.5Y-149.
X72.5Y-150.75
X73.25Y-147.5
X73.5Y-149.75
X73.75Y-152.25
X74.25Y-148.5
X74.25Y-150.75
X75.25Y-144.75
X75.25Y-145.75
X75.25Y-149.5
X75.25Y-152.25
X75.75Y-150.75
X76.75Y-146.5
X76.75Y-152.25
X77.Y-144.75
X77.5Y-139.75
X78.5Y-144.75
X78.5Y-146.5
X78.5Y-150.5
X78.5Y-151.25
X78.5Y-152.25
X79.Y-143.
X79.555Y-149.25
X80.5Y-139.5
X80.5Y-142.5
X80.75Y-141.25
X86.25Y-142.75
T2
X56.75Y-135.25
X56.75Y-137.25
X56.75Y-139.25
X60.Y-132.75
X61.Y-131.
X62.Y-139.25
X63.5Y-131.
X64.5Y-135.5
X64.5Y-139.5
X64.5Y-141.5
X64.5Y-143.25
X64.5Y-145.
X64.5Y-147.
X65.Y-130.275
X65.Y-132.75
X66.Y-149.
X66.037Y-147.
X66.037Y-151.
X67.5Y-132.5
X68.Y-149.
X68.Y-150.537
X68.638Y-131.112
X70.185Y-145.25
X72.5Y-130.037
X73.75Y-141.75
X75.25Y-141.5
X76.5Y-141.5
X77.25Y-150.25
X79.Y-153.5
X79.75Y-146.
X81.675Y-146.796
X81.683Y-151.714
X82.395Y-148.25
X82.395Y-150.25
X83.962Y-136.
X85.212Y-140.
X86.Y-145.5
X86.787Y-140.
X88.75Y-144.037
X91.75Y-136.037
T3
X81.Y-130.25
X90.Y-130.25
X87.46Y-158.38
X87.46Y-160.92
X87.46Y-163.46
X87.46Y-166.
X90.Y-158.38
X90.Y-160.92
X90.Y-163.46
X90.Y-166.
T4
X93.75Y-147.5
X55.75Y-147.5
T0
M30
