G04 #@! TF.GenerationSoftware,KiCad,Pcbnew,(5.1.0)-1*
G04 #@! TF.CreationDate,2019-05-10T19:05:15+02:00*
G04 #@! TF.ProjectId,nrf24l01-node,6e726632-346c-4303-912d-6e6f64652e6b,rev?*
G04 #@! TF.SameCoordinates,Original*
G04 #@! TF.FileFunction,Copper,L2,Bot*
G04 #@! TF.FilePolarity,Positive*
%FSLAX46Y46*%
G04 Gerber Fmt 4.6, Leading zero omitted, Abs format (unit mm)*
G04 Created by KiCad (PCBNEW (5.1.0)-1) date 2019-05-10 19:05:15*
%MOMM*%
%LPD*%
G04 APERTURE LIST*
%ADD10R,5.500000X6.000000*%
%ADD11R,8.000000X8.000000*%
%ADD12C,1.524000*%
%ADD13R,1.524000X1.524000*%
%ADD14C,0.800000*%
%ADD15C,0.400000*%
%ADD16C,0.250000*%
%ADD17C,0.200000*%
%ADD18C,0.254000*%
G04 APERTURE END LIST*
D10*
X74750000Y-163550000D03*
X74750000Y-132950000D03*
D11*
X74750000Y-148250000D03*
D12*
X90000000Y-130250000D03*
X81000000Y-130250000D03*
D13*
X90000000Y-166000000D03*
D12*
X87460000Y-166000000D03*
X90000000Y-163460000D03*
X87460000Y-163460000D03*
X90000000Y-160920000D03*
X87460000Y-160920000D03*
X90000000Y-158380000D03*
X87460000Y-158380000D03*
D14*
X83962500Y-136000000D03*
X73750000Y-141750000D03*
X74750000Y-163550000D03*
X72500000Y-131499998D03*
X60000000Y-131000000D03*
X57000000Y-134000000D03*
X57000000Y-140500000D03*
X62000000Y-138000000D03*
X63250000Y-141000000D03*
X67250000Y-147000000D03*
X68500000Y-147750000D03*
X82500000Y-147000000D03*
X82500000Y-151500000D03*
X93000000Y-137250000D03*
X90000000Y-143500000D03*
D15*
X72500000Y-150000000D03*
X75250000Y-145750000D03*
X76750000Y-146500000D03*
X78500000Y-146500000D03*
X75750000Y-150750000D03*
X75250000Y-149500000D03*
X74250000Y-148500000D03*
X73250000Y-147500000D03*
X72250000Y-146750000D03*
X71000000Y-149000000D03*
X71000000Y-148000000D03*
X71000000Y-146750000D03*
X71000000Y-145750000D03*
X71000000Y-144750000D03*
X75250000Y-144750000D03*
X77000000Y-144750000D03*
X78500000Y-144750000D03*
D14*
X77250000Y-150250000D03*
D15*
X79555026Y-149250000D03*
X71733839Y-144766161D03*
X78500000Y-150500000D03*
X78500000Y-151250000D03*
X78500000Y-152250000D03*
X76750000Y-152250000D03*
X72250000Y-152250000D03*
X73750000Y-152250000D03*
X71000000Y-152250000D03*
X75250000Y-152250000D03*
X71000000Y-151000000D03*
X71000000Y-150000000D03*
D14*
X65000000Y-131000000D03*
X63000000Y-135500000D03*
X63250000Y-139500000D03*
X63000000Y-145250000D03*
X68000000Y-151750000D03*
X87000000Y-146750000D03*
X85250000Y-138750000D03*
X81567975Y-146769886D03*
X81274540Y-152157200D03*
X76500000Y-141500000D03*
D15*
X80500000Y-142500000D03*
X79000000Y-143000000D03*
X77500000Y-139750000D03*
X80500000Y-139500000D03*
D14*
X79000000Y-153500000D03*
X79750000Y-146000000D03*
X67500000Y-132500000D03*
X61000000Y-131000000D03*
D15*
X86250000Y-142750000D03*
X80895988Y-141104012D03*
D14*
X70185010Y-145250000D03*
X75250000Y-141500000D03*
X68637660Y-131112340D03*
X63500000Y-131000000D03*
X65089988Y-129629988D03*
D15*
X63000000Y-141750000D03*
X68210010Y-142500000D03*
X86900000Y-134400000D03*
X86800000Y-141100000D03*
X76900000Y-154500000D03*
X82000000Y-154100000D03*
X82700000Y-153200000D03*
X83200000Y-140100000D03*
X82600000Y-135300000D03*
X83389275Y-147039829D03*
X80000000Y-140500000D03*
X80500000Y-141500000D03*
X83000000Y-146000000D03*
X83000000Y-154000000D03*
X81000000Y-155500000D03*
X79000000Y-156500000D03*
X76000000Y-158500000D03*
X74000000Y-158500000D03*
D16*
X71934315Y-141750000D02*
X67250000Y-146434315D01*
X67250000Y-146434315D02*
X67250000Y-147000000D01*
X73750000Y-141750000D02*
X71934315Y-141750000D01*
X65000000Y-133500000D02*
X63399999Y-135100001D01*
X63399999Y-135100001D02*
X63000000Y-135500000D01*
X65000000Y-131000000D02*
X65000000Y-133500000D01*
D17*
X75750000Y-149250000D02*
X74750000Y-148250000D01*
X79555026Y-149250000D02*
X75750000Y-149250000D01*
D16*
X81567975Y-151863765D02*
X81274540Y-152157200D01*
X81567975Y-146769886D02*
X81567975Y-151863765D01*
X80882973Y-145882973D02*
X80882973Y-147098688D01*
X80950011Y-147165726D02*
X80950011Y-151467925D01*
X80882973Y-147098688D02*
X80950011Y-147165726D01*
X76500000Y-141500000D02*
X80882973Y-145882973D01*
X80589538Y-151828398D02*
X80589538Y-152486002D01*
X82767198Y-154485002D02*
X83485002Y-154485002D01*
X83485002Y-154485002D02*
X87500000Y-158500000D01*
X82514998Y-154232802D02*
X82767198Y-154485002D01*
X82514998Y-153767198D02*
X82514998Y-154232802D01*
X80950011Y-151467925D02*
X80589538Y-151828398D01*
X80589538Y-152486002D02*
X80945738Y-152842202D01*
X81590002Y-152842202D02*
X82514998Y-153767198D01*
X80945738Y-152842202D02*
X81590002Y-152842202D01*
D17*
X80000000Y-143000000D02*
X80500000Y-142500000D01*
X79000000Y-143000000D02*
X80000000Y-143000000D01*
X80300001Y-139699999D02*
X80500000Y-139500000D01*
X80250000Y-139750000D02*
X80300001Y-139699999D01*
X77500000Y-139750000D02*
X80250000Y-139750000D01*
D16*
X79000000Y-153500000D02*
X79000000Y-152838094D01*
X80500000Y-151338094D02*
X80500000Y-147315685D01*
X79000000Y-152838094D02*
X80500000Y-151338094D01*
X79750000Y-146565685D02*
X79750000Y-146000000D01*
X80500000Y-147315685D02*
X79750000Y-146565685D01*
X65314998Y-130314998D02*
X64814998Y-130314998D01*
X61399999Y-130600001D02*
X61000000Y-131000000D01*
X64774998Y-130274998D02*
X61725002Y-130274998D01*
X67500000Y-132500000D02*
X65314998Y-130314998D01*
X64814998Y-130314998D02*
X64774998Y-130274998D01*
X61725002Y-130274998D02*
X61399999Y-130600001D01*
D17*
X82541976Y-142750000D02*
X81095987Y-141304011D01*
X81095987Y-141304011D02*
X80895988Y-141104012D01*
X86250000Y-142750000D02*
X82541976Y-142750000D01*
X70185010Y-144684315D02*
X70185010Y-145250000D01*
X70185010Y-144314990D02*
X70185010Y-144684315D01*
X71000000Y-143500000D02*
X70185010Y-144314990D01*
X75250000Y-141500000D02*
X73250000Y-143500000D01*
X73250000Y-143500000D02*
X71000000Y-143500000D01*
D16*
X65655673Y-129666713D02*
X65089988Y-129666713D01*
X65089988Y-129666713D02*
X65089988Y-129629988D01*
X68637660Y-131112340D02*
X67192033Y-129666713D01*
X67192033Y-129666713D02*
X65655673Y-129666713D01*
D17*
X67927168Y-142500000D02*
X68210010Y-142500000D01*
X63750000Y-142500000D02*
X67927168Y-142500000D01*
X63000000Y-141750000D02*
X63750000Y-142500000D01*
X86900000Y-134400000D02*
X86900000Y-141000000D01*
X86900000Y-141000000D02*
X86800000Y-141100000D01*
X76900000Y-154500000D02*
X81600000Y-154500000D01*
X81600000Y-154500000D02*
X82000000Y-154100000D01*
X83200000Y-140100000D02*
X82600000Y-139500000D01*
X82600000Y-139500000D02*
X82600000Y-135300000D01*
X83389275Y-152510725D02*
X83389275Y-147322671D01*
X83389275Y-147322671D02*
X83389275Y-147039829D01*
X82700000Y-153200000D02*
X83389275Y-152510725D01*
X80000000Y-141000000D02*
X80500000Y-141500000D01*
X80000000Y-140500000D02*
X80000000Y-141000000D01*
X83000000Y-146000000D02*
X84000000Y-147000000D01*
X84000000Y-147000000D02*
X84000000Y-151000000D01*
X84000000Y-151000000D02*
X84000000Y-153000000D01*
X84000000Y-153000000D02*
X83000000Y-154000000D01*
X81000000Y-155500000D02*
X80000000Y-155500000D01*
X80000000Y-155500000D02*
X79000000Y-156500000D01*
X76000000Y-158500000D02*
X74000000Y-158500000D01*
D18*
G36*
X92060008Y-127184324D02*
G01*
X92358214Y-127274357D01*
X92633249Y-127420595D01*
X92874645Y-127617473D01*
X93073203Y-127857487D01*
X93221360Y-128131498D01*
X93313472Y-128429064D01*
X93348001Y-128757582D01*
X93348000Y-141519746D01*
X93353817Y-141578805D01*
X93376803Y-141654582D01*
X93414132Y-141724419D01*
X93464368Y-141785632D01*
X93525580Y-141835868D01*
X93595417Y-141873197D01*
X93671194Y-141896183D01*
X93750000Y-141903945D01*
X93753259Y-141903624D01*
X94664074Y-141978507D01*
X95553609Y-142201942D01*
X96394699Y-142567658D01*
X97164763Y-143065835D01*
X97843127Y-143683100D01*
X98411561Y-144402862D01*
X98854812Y-145205807D01*
X99160966Y-146070362D01*
X99323042Y-146980251D01*
X99347222Y-147492974D01*
X99271493Y-148414079D01*
X99048058Y-149303609D01*
X98682342Y-150144699D01*
X98184165Y-150914763D01*
X97566900Y-151593127D01*
X96847134Y-152161564D01*
X96044190Y-152604812D01*
X95179637Y-152910966D01*
X94269749Y-153073042D01*
X93760284Y-153097068D01*
X93750000Y-153096055D01*
X93671195Y-153103817D01*
X93595418Y-153126803D01*
X93525581Y-153164132D01*
X93464369Y-153214368D01*
X93414133Y-153275580D01*
X93376804Y-153345417D01*
X93353818Y-153421194D01*
X93348001Y-153480253D01*
X93348000Y-166230342D01*
X93315676Y-166560009D01*
X93225641Y-166858217D01*
X93079402Y-167133252D01*
X92882524Y-167374648D01*
X92642513Y-167573203D01*
X92368502Y-167721360D01*
X92070935Y-167813472D01*
X91742426Y-167848000D01*
X69877000Y-167848000D01*
X69877000Y-165892743D01*
X86371000Y-165892743D01*
X86371000Y-166107257D01*
X86412850Y-166317650D01*
X86494941Y-166515835D01*
X86614119Y-166694197D01*
X86765803Y-166845881D01*
X86944165Y-166965059D01*
X87142350Y-167047150D01*
X87352743Y-167089000D01*
X87567257Y-167089000D01*
X87777650Y-167047150D01*
X87975835Y-166965059D01*
X88154197Y-166845881D01*
X88305881Y-166694197D01*
X88425059Y-166515835D01*
X88507150Y-166317650D01*
X88549000Y-166107257D01*
X88549000Y-165892743D01*
X88507150Y-165682350D01*
X88425059Y-165484165D01*
X88305881Y-165305803D01*
X88238078Y-165238000D01*
X88909418Y-165238000D01*
X88909418Y-166762000D01*
X88915732Y-166826103D01*
X88934430Y-166887743D01*
X88964794Y-166944550D01*
X89005657Y-166994343D01*
X89055450Y-167035206D01*
X89112257Y-167065570D01*
X89173897Y-167084268D01*
X89238000Y-167090582D01*
X90762000Y-167090582D01*
X90826103Y-167084268D01*
X90887743Y-167065570D01*
X90944550Y-167035206D01*
X90994343Y-166994343D01*
X91035206Y-166944550D01*
X91065570Y-166887743D01*
X91084268Y-166826103D01*
X91090582Y-166762000D01*
X91090582Y-165238000D01*
X91084268Y-165173897D01*
X91065570Y-165112257D01*
X91035206Y-165055450D01*
X90994343Y-165005657D01*
X90944550Y-164964794D01*
X90887743Y-164934430D01*
X90826103Y-164915732D01*
X90762000Y-164909418D01*
X89238000Y-164909418D01*
X89173897Y-164915732D01*
X89112257Y-164934430D01*
X89055450Y-164964794D01*
X89005657Y-165005657D01*
X88964794Y-165055450D01*
X88934430Y-165112257D01*
X88915732Y-165173897D01*
X88909418Y-165238000D01*
X88238078Y-165238000D01*
X88154197Y-165154119D01*
X87975835Y-165034941D01*
X87777650Y-164952850D01*
X87567257Y-164911000D01*
X87352743Y-164911000D01*
X87142350Y-164952850D01*
X86944165Y-165034941D01*
X86765803Y-165154119D01*
X86614119Y-165305803D01*
X86494941Y-165484165D01*
X86412850Y-165682350D01*
X86371000Y-165892743D01*
X69877000Y-165892743D01*
X69877000Y-163352743D01*
X86371000Y-163352743D01*
X86371000Y-163567257D01*
X86412850Y-163777650D01*
X86494941Y-163975835D01*
X86614119Y-164154197D01*
X86765803Y-164305881D01*
X86944165Y-164425059D01*
X87142350Y-164507150D01*
X87352743Y-164549000D01*
X87567257Y-164549000D01*
X87777650Y-164507150D01*
X87975835Y-164425059D01*
X88154197Y-164305881D01*
X88305881Y-164154197D01*
X88425059Y-163975835D01*
X88507150Y-163777650D01*
X88549000Y-163567257D01*
X88549000Y-163352743D01*
X88911000Y-163352743D01*
X88911000Y-163567257D01*
X88952850Y-163777650D01*
X89034941Y-163975835D01*
X89154119Y-164154197D01*
X89305803Y-164305881D01*
X89484165Y-164425059D01*
X89682350Y-164507150D01*
X89892743Y-164549000D01*
X90107257Y-164549000D01*
X90317650Y-164507150D01*
X90515835Y-164425059D01*
X90694197Y-164305881D01*
X90845881Y-164154197D01*
X90965059Y-163975835D01*
X91047150Y-163777650D01*
X91089000Y-163567257D01*
X91089000Y-163352743D01*
X91047150Y-163142350D01*
X90965059Y-162944165D01*
X90845881Y-162765803D01*
X90694197Y-162614119D01*
X90515835Y-162494941D01*
X90317650Y-162412850D01*
X90107257Y-162371000D01*
X89892743Y-162371000D01*
X89682350Y-162412850D01*
X89484165Y-162494941D01*
X89305803Y-162614119D01*
X89154119Y-162765803D01*
X89034941Y-162944165D01*
X88952850Y-163142350D01*
X88911000Y-163352743D01*
X88549000Y-163352743D01*
X88507150Y-163142350D01*
X88425059Y-162944165D01*
X88305881Y-162765803D01*
X88154197Y-162614119D01*
X87975835Y-162494941D01*
X87777650Y-162412850D01*
X87567257Y-162371000D01*
X87352743Y-162371000D01*
X87142350Y-162412850D01*
X86944165Y-162494941D01*
X86765803Y-162614119D01*
X86614119Y-162765803D01*
X86494941Y-162944165D01*
X86412850Y-163142350D01*
X86371000Y-163352743D01*
X69877000Y-163352743D01*
X69877000Y-160812743D01*
X86371000Y-160812743D01*
X86371000Y-161027257D01*
X86412850Y-161237650D01*
X86494941Y-161435835D01*
X86614119Y-161614197D01*
X86765803Y-161765881D01*
X86944165Y-161885059D01*
X87142350Y-161967150D01*
X87352743Y-162009000D01*
X87567257Y-162009000D01*
X87777650Y-161967150D01*
X87975835Y-161885059D01*
X88154197Y-161765881D01*
X88305881Y-161614197D01*
X88425059Y-161435835D01*
X88507150Y-161237650D01*
X88549000Y-161027257D01*
X88549000Y-160812743D01*
X88911000Y-160812743D01*
X88911000Y-161027257D01*
X88952850Y-161237650D01*
X89034941Y-161435835D01*
X89154119Y-161614197D01*
X89305803Y-161765881D01*
X89484165Y-161885059D01*
X89682350Y-161967150D01*
X89892743Y-162009000D01*
X90107257Y-162009000D01*
X90317650Y-161967150D01*
X90515835Y-161885059D01*
X90694197Y-161765881D01*
X90845881Y-161614197D01*
X90965059Y-161435835D01*
X91047150Y-161237650D01*
X91089000Y-161027257D01*
X91089000Y-160812743D01*
X91047150Y-160602350D01*
X90965059Y-160404165D01*
X90845881Y-160225803D01*
X90694197Y-160074119D01*
X90515835Y-159954941D01*
X90317650Y-159872850D01*
X90107257Y-159831000D01*
X89892743Y-159831000D01*
X89682350Y-159872850D01*
X89484165Y-159954941D01*
X89305803Y-160074119D01*
X89154119Y-160225803D01*
X89034941Y-160404165D01*
X88952850Y-160602350D01*
X88911000Y-160812743D01*
X88549000Y-160812743D01*
X88507150Y-160602350D01*
X88425059Y-160404165D01*
X88305881Y-160225803D01*
X88154197Y-160074119D01*
X87975835Y-159954941D01*
X87777650Y-159872850D01*
X87567257Y-159831000D01*
X87352743Y-159831000D01*
X87142350Y-159872850D01*
X86944165Y-159954941D01*
X86765803Y-160074119D01*
X86614119Y-160225803D01*
X86494941Y-160404165D01*
X86412850Y-160602350D01*
X86371000Y-160812743D01*
X69877000Y-160812743D01*
X69877000Y-158448095D01*
X73473000Y-158448095D01*
X73473000Y-158551905D01*
X73493252Y-158653720D01*
X73532979Y-158749628D01*
X73590652Y-158835943D01*
X73664057Y-158909348D01*
X73750372Y-158967021D01*
X73846280Y-159006748D01*
X73948095Y-159027000D01*
X74051905Y-159027000D01*
X74153720Y-159006748D01*
X74249628Y-158967021D01*
X74309525Y-158927000D01*
X75690475Y-158927000D01*
X75750372Y-158967021D01*
X75846280Y-159006748D01*
X75948095Y-159027000D01*
X76051905Y-159027000D01*
X76153720Y-159006748D01*
X76249628Y-158967021D01*
X76335943Y-158909348D01*
X76409348Y-158835943D01*
X76467021Y-158749628D01*
X76506748Y-158653720D01*
X76527000Y-158551905D01*
X76527000Y-158448095D01*
X76506748Y-158346280D01*
X76467021Y-158250372D01*
X76409348Y-158164057D01*
X76335943Y-158090652D01*
X76249628Y-158032979D01*
X76153720Y-157993252D01*
X76051905Y-157973000D01*
X75948095Y-157973000D01*
X75846280Y-157993252D01*
X75750372Y-158032979D01*
X75690475Y-158073000D01*
X74309525Y-158073000D01*
X74249628Y-158032979D01*
X74153720Y-157993252D01*
X74051905Y-157973000D01*
X73948095Y-157973000D01*
X73846280Y-157993252D01*
X73750372Y-158032979D01*
X73664057Y-158090652D01*
X73590652Y-158164057D01*
X73532979Y-158250372D01*
X73493252Y-158346280D01*
X73473000Y-158448095D01*
X69877000Y-158448095D01*
X69877000Y-156448095D01*
X78473000Y-156448095D01*
X78473000Y-156551905D01*
X78493252Y-156653720D01*
X78532979Y-156749628D01*
X78590652Y-156835943D01*
X78664057Y-156909348D01*
X78750372Y-156967021D01*
X78846280Y-157006748D01*
X78948095Y-157027000D01*
X79051905Y-157027000D01*
X79153720Y-157006748D01*
X79249628Y-156967021D01*
X79335943Y-156909348D01*
X79409348Y-156835943D01*
X79467021Y-156749628D01*
X79506748Y-156653720D01*
X79520802Y-156583067D01*
X80176869Y-155927000D01*
X80690475Y-155927000D01*
X80750372Y-155967021D01*
X80846280Y-156006748D01*
X80948095Y-156027000D01*
X81051905Y-156027000D01*
X81153720Y-156006748D01*
X81249628Y-155967021D01*
X81335943Y-155909348D01*
X81409348Y-155835943D01*
X81467021Y-155749628D01*
X81506748Y-155653720D01*
X81527000Y-155551905D01*
X81527000Y-155448095D01*
X81506748Y-155346280D01*
X81467021Y-155250372D01*
X81409348Y-155164057D01*
X81335943Y-155090652D01*
X81249628Y-155032979D01*
X81153720Y-154993252D01*
X81051905Y-154973000D01*
X80948095Y-154973000D01*
X80846280Y-154993252D01*
X80750372Y-155032979D01*
X80690475Y-155073000D01*
X80020967Y-155073000D01*
X80000000Y-155070935D01*
X79979033Y-155073000D01*
X79979022Y-155073000D01*
X79916293Y-155079178D01*
X79854537Y-155097912D01*
X79835803Y-155103595D01*
X79761624Y-155143244D01*
X79712899Y-155183232D01*
X79712895Y-155183236D01*
X79696605Y-155196605D01*
X79683236Y-155212895D01*
X78916933Y-155979198D01*
X78846280Y-155993252D01*
X78750372Y-156032979D01*
X78664057Y-156090652D01*
X78590652Y-156164057D01*
X78532979Y-156250372D01*
X78493252Y-156346280D01*
X78473000Y-156448095D01*
X69877000Y-156448095D01*
X69877000Y-152750000D01*
X69874560Y-152725224D01*
X69867333Y-152701399D01*
X69855597Y-152679443D01*
X69839803Y-152660197D01*
X69820557Y-152644403D01*
X69798601Y-152632667D01*
X69774776Y-152625440D01*
X69750000Y-152623000D01*
X55750000Y-152623000D01*
X55725224Y-152625440D01*
X55701399Y-152632667D01*
X55679443Y-152644403D01*
X55660197Y-152660197D01*
X55644403Y-152679443D01*
X55632667Y-152701399D01*
X55625440Y-152725224D01*
X55623000Y-152750000D01*
X55623000Y-153086203D01*
X54835921Y-153021493D01*
X53946391Y-152798058D01*
X53105301Y-152432342D01*
X52335237Y-151934165D01*
X52054153Y-151678397D01*
X67273000Y-151678397D01*
X67273000Y-151821603D01*
X67300938Y-151962058D01*
X67355741Y-152094364D01*
X67435302Y-152213436D01*
X67536564Y-152314698D01*
X67655636Y-152394259D01*
X67787942Y-152449062D01*
X67928397Y-152477000D01*
X68071603Y-152477000D01*
X68212058Y-152449062D01*
X68344364Y-152394259D01*
X68463436Y-152314698D01*
X68564698Y-152213436D01*
X68644259Y-152094364D01*
X68699062Y-151962058D01*
X68727000Y-151821603D01*
X68727000Y-151678397D01*
X68699062Y-151537942D01*
X68644259Y-151405636D01*
X68564698Y-151286564D01*
X68463436Y-151185302D01*
X68344364Y-151105741D01*
X68212058Y-151050938D01*
X68071603Y-151023000D01*
X67928397Y-151023000D01*
X67787942Y-151050938D01*
X67655636Y-151105741D01*
X67536564Y-151185302D01*
X67435302Y-151286564D01*
X67355741Y-151405636D01*
X67300938Y-151537942D01*
X67273000Y-151678397D01*
X52054153Y-151678397D01*
X51656873Y-151316900D01*
X51088436Y-150597134D01*
X50645188Y-149794190D01*
X50339034Y-148929637D01*
X50176958Y-148019749D01*
X50152778Y-147507027D01*
X50173413Y-147256037D01*
X53273000Y-147256037D01*
X53273000Y-147743963D01*
X53368190Y-148222514D01*
X53554911Y-148673299D01*
X53825989Y-149078995D01*
X54171005Y-149424011D01*
X54576701Y-149695089D01*
X55027486Y-149881810D01*
X55506037Y-149977000D01*
X55993963Y-149977000D01*
X56472514Y-149881810D01*
X56923299Y-149695089D01*
X57328995Y-149424011D01*
X57674011Y-149078995D01*
X57945089Y-148673299D01*
X58131810Y-148222514D01*
X58227000Y-147743963D01*
X58227000Y-147256037D01*
X58131810Y-146777486D01*
X57945089Y-146326701D01*
X57674011Y-145921005D01*
X57328995Y-145575989D01*
X56923299Y-145304911D01*
X56617867Y-145178397D01*
X62273000Y-145178397D01*
X62273000Y-145321603D01*
X62300938Y-145462058D01*
X62355741Y-145594364D01*
X62435302Y-145713436D01*
X62536564Y-145814698D01*
X62655636Y-145894259D01*
X62787942Y-145949062D01*
X62928397Y-145977000D01*
X63071603Y-145977000D01*
X63212058Y-145949062D01*
X63344364Y-145894259D01*
X63463436Y-145814698D01*
X63564698Y-145713436D01*
X63644259Y-145594364D01*
X63699062Y-145462058D01*
X63727000Y-145321603D01*
X63727000Y-145178397D01*
X69458010Y-145178397D01*
X69458010Y-145321603D01*
X69485948Y-145462058D01*
X69540751Y-145594364D01*
X69620312Y-145713436D01*
X69721574Y-145814698D01*
X69840646Y-145894259D01*
X69972952Y-145949062D01*
X70113407Y-145977000D01*
X70256613Y-145977000D01*
X70397068Y-145949062D01*
X70421418Y-145938976D01*
X70421418Y-152250000D01*
X70427732Y-152314103D01*
X70446430Y-152375743D01*
X70476794Y-152432550D01*
X70517657Y-152482343D01*
X70530023Y-152492491D01*
X70532979Y-152499628D01*
X70590652Y-152585943D01*
X70664057Y-152659348D01*
X70750372Y-152717021D01*
X70846280Y-152756748D01*
X70948095Y-152777000D01*
X71051905Y-152777000D01*
X71153720Y-152756748D01*
X71249628Y-152717021D01*
X71335943Y-152659348D01*
X71409348Y-152585943D01*
X71414266Y-152578582D01*
X71835734Y-152578582D01*
X71840652Y-152585943D01*
X71914057Y-152659348D01*
X72000372Y-152717021D01*
X72096280Y-152756748D01*
X72198095Y-152777000D01*
X72301905Y-152777000D01*
X72403720Y-152756748D01*
X72499628Y-152717021D01*
X72585943Y-152659348D01*
X72659348Y-152585943D01*
X72664266Y-152578582D01*
X73335734Y-152578582D01*
X73340652Y-152585943D01*
X73414057Y-152659348D01*
X73500372Y-152717021D01*
X73596280Y-152756748D01*
X73698095Y-152777000D01*
X73801905Y-152777000D01*
X73903720Y-152756748D01*
X73999628Y-152717021D01*
X74085943Y-152659348D01*
X74159348Y-152585943D01*
X74164266Y-152578582D01*
X74835734Y-152578582D01*
X74840652Y-152585943D01*
X74914057Y-152659348D01*
X75000372Y-152717021D01*
X75096280Y-152756748D01*
X75198095Y-152777000D01*
X75301905Y-152777000D01*
X75403720Y-152756748D01*
X75499628Y-152717021D01*
X75585943Y-152659348D01*
X75659348Y-152585943D01*
X75664266Y-152578582D01*
X76335734Y-152578582D01*
X76340652Y-152585943D01*
X76414057Y-152659348D01*
X76500372Y-152717021D01*
X76596280Y-152756748D01*
X76698095Y-152777000D01*
X76801905Y-152777000D01*
X76903720Y-152756748D01*
X76999628Y-152717021D01*
X77085943Y-152659348D01*
X77159348Y-152585943D01*
X77164266Y-152578582D01*
X78085734Y-152578582D01*
X78090652Y-152585943D01*
X78164057Y-152659348D01*
X78250372Y-152717021D01*
X78346280Y-152756748D01*
X78448095Y-152777000D01*
X78551830Y-152777000D01*
X78545813Y-152838094D01*
X78548001Y-152860309D01*
X78548001Y-152927660D01*
X78536564Y-152935302D01*
X78435302Y-153036564D01*
X78355741Y-153155636D01*
X78300938Y-153287942D01*
X78273000Y-153428397D01*
X78273000Y-153571603D01*
X78300938Y-153712058D01*
X78355741Y-153844364D01*
X78435302Y-153963436D01*
X78536564Y-154064698D01*
X78548989Y-154073000D01*
X77209525Y-154073000D01*
X77149628Y-154032979D01*
X77053720Y-153993252D01*
X76951905Y-153973000D01*
X76848095Y-153973000D01*
X76746280Y-153993252D01*
X76650372Y-154032979D01*
X76564057Y-154090652D01*
X76490652Y-154164057D01*
X76432979Y-154250372D01*
X76393252Y-154346280D01*
X76373000Y-154448095D01*
X76373000Y-154551905D01*
X76393252Y-154653720D01*
X76432979Y-154749628D01*
X76490652Y-154835943D01*
X76564057Y-154909348D01*
X76650372Y-154967021D01*
X76746280Y-155006748D01*
X76848095Y-155027000D01*
X76951905Y-155027000D01*
X77053720Y-155006748D01*
X77149628Y-154967021D01*
X77209525Y-154927000D01*
X81579033Y-154927000D01*
X81600000Y-154929065D01*
X81620967Y-154927000D01*
X81620978Y-154927000D01*
X81683707Y-154920822D01*
X81764196Y-154896405D01*
X81838376Y-154856755D01*
X81903395Y-154803395D01*
X81916768Y-154787100D01*
X82083067Y-154620802D01*
X82153720Y-154606748D01*
X82221603Y-154578630D01*
X82431875Y-154788902D01*
X82446039Y-154806161D01*
X82514865Y-154862645D01*
X82593388Y-154904616D01*
X82678590Y-154930462D01*
X82767198Y-154939189D01*
X82789403Y-154937002D01*
X83297779Y-154937002D01*
X86415860Y-158055084D01*
X86412850Y-158062350D01*
X86371000Y-158272743D01*
X86371000Y-158487257D01*
X86412850Y-158697650D01*
X86494941Y-158895835D01*
X86614119Y-159074197D01*
X86765803Y-159225881D01*
X86944165Y-159345059D01*
X87142350Y-159427150D01*
X87352743Y-159469000D01*
X87567257Y-159469000D01*
X87777650Y-159427150D01*
X87975835Y-159345059D01*
X88154197Y-159225881D01*
X88305881Y-159074197D01*
X88425059Y-158895835D01*
X88507150Y-158697650D01*
X88549000Y-158487257D01*
X88549000Y-158272743D01*
X88911000Y-158272743D01*
X88911000Y-158487257D01*
X88952850Y-158697650D01*
X89034941Y-158895835D01*
X89154119Y-159074197D01*
X89305803Y-159225881D01*
X89484165Y-159345059D01*
X89682350Y-159427150D01*
X89892743Y-159469000D01*
X90107257Y-159469000D01*
X90317650Y-159427150D01*
X90515835Y-159345059D01*
X90694197Y-159225881D01*
X90845881Y-159074197D01*
X90965059Y-158895835D01*
X91047150Y-158697650D01*
X91089000Y-158487257D01*
X91089000Y-158272743D01*
X91047150Y-158062350D01*
X90965059Y-157864165D01*
X90845881Y-157685803D01*
X90694197Y-157534119D01*
X90515835Y-157414941D01*
X90317650Y-157332850D01*
X90107257Y-157291000D01*
X89892743Y-157291000D01*
X89682350Y-157332850D01*
X89484165Y-157414941D01*
X89305803Y-157534119D01*
X89154119Y-157685803D01*
X89034941Y-157864165D01*
X88952850Y-158062350D01*
X88911000Y-158272743D01*
X88549000Y-158272743D01*
X88507150Y-158062350D01*
X88425059Y-157864165D01*
X88305881Y-157685803D01*
X88154197Y-157534119D01*
X87975835Y-157414941D01*
X87777650Y-157332850D01*
X87567257Y-157291000D01*
X87352743Y-157291000D01*
X87142350Y-157332850D01*
X87021947Y-157382723D01*
X83820325Y-154181102D01*
X83806161Y-154163843D01*
X83737335Y-154107359D01*
X83658812Y-154065388D01*
X83573609Y-154039542D01*
X83565159Y-154038710D01*
X84287105Y-153316764D01*
X84303395Y-153303395D01*
X84316764Y-153287105D01*
X84316768Y-153287101D01*
X84356756Y-153238376D01*
X84396405Y-153164197D01*
X84405863Y-153133018D01*
X84420822Y-153083707D01*
X84427000Y-153020978D01*
X84427000Y-153020967D01*
X84429065Y-153000000D01*
X84427000Y-152979033D01*
X84427000Y-147020967D01*
X84429065Y-147000000D01*
X84427000Y-146979033D01*
X84427000Y-146979022D01*
X84420822Y-146916293D01*
X84396447Y-146835943D01*
X84396405Y-146835803D01*
X84356756Y-146761624D01*
X84316768Y-146712899D01*
X84316764Y-146712895D01*
X84303395Y-146696605D01*
X84287106Y-146683237D01*
X84282266Y-146678397D01*
X86273000Y-146678397D01*
X86273000Y-146821603D01*
X86300938Y-146962058D01*
X86355741Y-147094364D01*
X86435302Y-147213436D01*
X86536564Y-147314698D01*
X86655636Y-147394259D01*
X86787942Y-147449062D01*
X86928397Y-147477000D01*
X87071603Y-147477000D01*
X87212058Y-147449062D01*
X87344364Y-147394259D01*
X87463436Y-147314698D01*
X87522097Y-147256037D01*
X91273000Y-147256037D01*
X91273000Y-147743963D01*
X91368190Y-148222514D01*
X91554911Y-148673299D01*
X91825989Y-149078995D01*
X92171005Y-149424011D01*
X92576701Y-149695089D01*
X93027486Y-149881810D01*
X93506037Y-149977000D01*
X93993963Y-149977000D01*
X94472514Y-149881810D01*
X94923299Y-149695089D01*
X95328995Y-149424011D01*
X95674011Y-149078995D01*
X95945089Y-148673299D01*
X96131810Y-148222514D01*
X96227000Y-147743963D01*
X96227000Y-147256037D01*
X96131810Y-146777486D01*
X95945089Y-146326701D01*
X95674011Y-145921005D01*
X95328995Y-145575989D01*
X94923299Y-145304911D01*
X94472514Y-145118190D01*
X93993963Y-145023000D01*
X93506037Y-145023000D01*
X93027486Y-145118190D01*
X92576701Y-145304911D01*
X92171005Y-145575989D01*
X91825989Y-145921005D01*
X91554911Y-146326701D01*
X91368190Y-146777486D01*
X91273000Y-147256037D01*
X87522097Y-147256037D01*
X87564698Y-147213436D01*
X87644259Y-147094364D01*
X87699062Y-146962058D01*
X87727000Y-146821603D01*
X87727000Y-146678397D01*
X87699062Y-146537942D01*
X87644259Y-146405636D01*
X87564698Y-146286564D01*
X87463436Y-146185302D01*
X87344364Y-146105741D01*
X87212058Y-146050938D01*
X87071603Y-146023000D01*
X86928397Y-146023000D01*
X86787942Y-146050938D01*
X86655636Y-146105741D01*
X86536564Y-146185302D01*
X86435302Y-146286564D01*
X86355741Y-146405636D01*
X86300938Y-146537942D01*
X86273000Y-146678397D01*
X84282266Y-146678397D01*
X83520802Y-145916933D01*
X83506748Y-145846280D01*
X83467021Y-145750372D01*
X83409348Y-145664057D01*
X83335943Y-145590652D01*
X83249628Y-145532979D01*
X83153720Y-145493252D01*
X83051905Y-145473000D01*
X82948095Y-145473000D01*
X82846280Y-145493252D01*
X82750372Y-145532979D01*
X82664057Y-145590652D01*
X82590652Y-145664057D01*
X82532979Y-145750372D01*
X82493252Y-145846280D01*
X82473000Y-145948095D01*
X82473000Y-146051905D01*
X82493252Y-146153720D01*
X82532979Y-146249628D01*
X82590652Y-146335943D01*
X82664057Y-146409348D01*
X82750372Y-146467021D01*
X82846280Y-146506748D01*
X82916933Y-146520802D01*
X83039972Y-146643841D01*
X82979927Y-146703886D01*
X82922254Y-146790201D01*
X82882527Y-146886109D01*
X82862275Y-146987924D01*
X82862275Y-147091734D01*
X82882527Y-147193549D01*
X82922254Y-147289457D01*
X82962276Y-147349355D01*
X82962275Y-152333856D01*
X82616933Y-152679198D01*
X82546280Y-152693252D01*
X82450372Y-152732979D01*
X82364057Y-152790652D01*
X82290652Y-152864057D01*
X82274802Y-152887779D01*
X81925325Y-152538302D01*
X81911161Y-152521043D01*
X81907688Y-152518193D01*
X81918799Y-152501564D01*
X81973602Y-152369258D01*
X82001540Y-152228803D01*
X82001540Y-152085597D01*
X81990246Y-152028817D01*
X81998318Y-152002207D01*
X82013435Y-151952373D01*
X82022162Y-151863765D01*
X82019975Y-151841560D01*
X82019975Y-147342225D01*
X82031411Y-147334584D01*
X82132673Y-147233322D01*
X82212234Y-147114250D01*
X82267037Y-146981944D01*
X82294975Y-146841489D01*
X82294975Y-146698283D01*
X82267037Y-146557828D01*
X82212234Y-146425522D01*
X82132673Y-146306450D01*
X82031411Y-146205188D01*
X81912339Y-146125627D01*
X81780033Y-146070824D01*
X81639578Y-146042886D01*
X81496372Y-146042886D01*
X81355917Y-146070824D01*
X81334973Y-146079499D01*
X81334973Y-145905178D01*
X81337160Y-145882973D01*
X81328433Y-145794365D01*
X81302587Y-145709163D01*
X81286380Y-145678841D01*
X81260616Y-145630640D01*
X81204132Y-145561814D01*
X81186879Y-145547655D01*
X79147257Y-143508034D01*
X79153720Y-143506748D01*
X79249628Y-143467021D01*
X79309525Y-143427000D01*
X79979033Y-143427000D01*
X80000000Y-143429065D01*
X80020967Y-143427000D01*
X80020978Y-143427000D01*
X80083707Y-143420822D01*
X80164196Y-143396405D01*
X80238376Y-143356755D01*
X80303395Y-143303395D01*
X80316768Y-143287100D01*
X80583067Y-143020802D01*
X80653720Y-143006748D01*
X80749628Y-142967021D01*
X80835943Y-142909348D01*
X80909348Y-142835943D01*
X80967021Y-142749628D01*
X81006748Y-142653720D01*
X81027000Y-142551905D01*
X81027000Y-142448095D01*
X81006748Y-142346280D01*
X80967021Y-142250372D01*
X80909348Y-142164057D01*
X80835943Y-142090652D01*
X80749628Y-142032979D01*
X80670011Y-142000000D01*
X80749628Y-141967021D01*
X80835943Y-141909348D01*
X80909348Y-141835943D01*
X80955291Y-141767183D01*
X82225217Y-143037111D01*
X82238581Y-143053395D01*
X82254865Y-143066759D01*
X82254874Y-143066768D01*
X82303599Y-143106755D01*
X82323472Y-143117377D01*
X82377780Y-143146405D01*
X82458269Y-143170822D01*
X82520998Y-143177000D01*
X82521010Y-143177000D01*
X82541975Y-143179065D01*
X82562940Y-143177000D01*
X85940475Y-143177000D01*
X86000372Y-143217021D01*
X86096280Y-143256748D01*
X86198095Y-143277000D01*
X86301905Y-143277000D01*
X86403720Y-143256748D01*
X86499628Y-143217021D01*
X86585943Y-143159348D01*
X86659348Y-143085943D01*
X86717021Y-142999628D01*
X86756748Y-142903720D01*
X86777000Y-142801905D01*
X86777000Y-142698095D01*
X86756748Y-142596280D01*
X86717021Y-142500372D01*
X86659348Y-142414057D01*
X86585943Y-142340652D01*
X86499628Y-142282979D01*
X86403720Y-142243252D01*
X86301905Y-142223000D01*
X86198095Y-142223000D01*
X86096280Y-142243252D01*
X86000372Y-142282979D01*
X85940475Y-142323000D01*
X82718846Y-142323000D01*
X81443940Y-141048095D01*
X86273000Y-141048095D01*
X86273000Y-141151905D01*
X86293252Y-141253720D01*
X86332979Y-141349628D01*
X86390652Y-141435943D01*
X86464057Y-141509348D01*
X86550372Y-141567021D01*
X86646280Y-141606748D01*
X86748095Y-141627000D01*
X86851905Y-141627000D01*
X86953720Y-141606748D01*
X87049628Y-141567021D01*
X87135943Y-141509348D01*
X87209348Y-141435943D01*
X87267021Y-141349628D01*
X87306748Y-141253720D01*
X87327000Y-141151905D01*
X87327000Y-141048095D01*
X87325214Y-141039115D01*
X87327000Y-141020978D01*
X87327000Y-141020966D01*
X87329065Y-141000001D01*
X87327000Y-140979036D01*
X87327000Y-134709525D01*
X87367021Y-134649628D01*
X87406748Y-134553720D01*
X87427000Y-134451905D01*
X87427000Y-134348095D01*
X87406748Y-134246280D01*
X87367021Y-134150372D01*
X87309348Y-134064057D01*
X87235943Y-133990652D01*
X87149628Y-133932979D01*
X87053720Y-133893252D01*
X86951905Y-133873000D01*
X86848095Y-133873000D01*
X86746280Y-133893252D01*
X86650372Y-133932979D01*
X86564057Y-133990652D01*
X86490652Y-134064057D01*
X86432979Y-134150372D01*
X86393252Y-134246280D01*
X86373000Y-134348095D01*
X86373000Y-134451905D01*
X86393252Y-134553720D01*
X86432979Y-134649628D01*
X86473000Y-134709525D01*
X86473001Y-140684676D01*
X86464057Y-140690652D01*
X86390652Y-140764057D01*
X86332979Y-140850372D01*
X86293252Y-140946280D01*
X86273000Y-141048095D01*
X81443940Y-141048095D01*
X81416790Y-141020946D01*
X81402736Y-140950292D01*
X81363009Y-140854384D01*
X81305336Y-140768069D01*
X81231931Y-140694664D01*
X81145616Y-140636991D01*
X81049708Y-140597264D01*
X80947893Y-140577012D01*
X80844083Y-140577012D01*
X80742268Y-140597264D01*
X80646360Y-140636991D01*
X80560045Y-140694664D01*
X80486640Y-140768069D01*
X80440697Y-140836829D01*
X80427000Y-140823132D01*
X80427000Y-140809525D01*
X80467021Y-140749628D01*
X80506748Y-140653720D01*
X80527000Y-140551905D01*
X80527000Y-140448095D01*
X80506748Y-140346280D01*
X80467021Y-140250372D01*
X80409348Y-140164057D01*
X80396933Y-140151642D01*
X80414196Y-140146405D01*
X80488376Y-140106755D01*
X80553395Y-140053395D01*
X80566768Y-140037100D01*
X80583066Y-140020802D01*
X80653720Y-140006748D01*
X80749628Y-139967021D01*
X80835943Y-139909348D01*
X80909348Y-139835943D01*
X80967021Y-139749628D01*
X81006748Y-139653720D01*
X81027000Y-139551905D01*
X81027000Y-139448095D01*
X81006748Y-139346280D01*
X80967021Y-139250372D01*
X80909348Y-139164057D01*
X80835943Y-139090652D01*
X80749628Y-139032979D01*
X80653720Y-138993252D01*
X80551905Y-138973000D01*
X80448095Y-138973000D01*
X80346280Y-138993252D01*
X80250372Y-139032979D01*
X80164057Y-139090652D01*
X80090652Y-139164057D01*
X80032979Y-139250372D01*
X80002895Y-139323000D01*
X77809525Y-139323000D01*
X77749628Y-139282979D01*
X77653720Y-139243252D01*
X77551905Y-139223000D01*
X77448095Y-139223000D01*
X77346280Y-139243252D01*
X77250372Y-139282979D01*
X77164057Y-139340652D01*
X77090652Y-139414057D01*
X77032979Y-139500372D01*
X76993252Y-139596280D01*
X76973000Y-139698095D01*
X76973000Y-139801905D01*
X76993252Y-139903720D01*
X77032979Y-139999628D01*
X77090652Y-140085943D01*
X77164057Y-140159348D01*
X77250372Y-140217021D01*
X77346280Y-140256748D01*
X77448095Y-140277000D01*
X77551905Y-140277000D01*
X77653720Y-140256748D01*
X77749628Y-140217021D01*
X77809525Y-140177000D01*
X79582004Y-140177000D01*
X79532979Y-140250372D01*
X79493252Y-140346280D01*
X79473000Y-140448095D01*
X79473000Y-140551905D01*
X79493252Y-140653720D01*
X79532979Y-140749628D01*
X79573001Y-140809525D01*
X79573001Y-140979024D01*
X79570935Y-141000000D01*
X79573001Y-141020977D01*
X79573001Y-141020978D01*
X79579179Y-141083707D01*
X79603073Y-141162473D01*
X79603596Y-141164196D01*
X79643245Y-141238376D01*
X79683232Y-141287100D01*
X79683237Y-141287105D01*
X79696606Y-141303395D01*
X79712895Y-141316763D01*
X79979198Y-141583067D01*
X79993252Y-141653720D01*
X80032979Y-141749628D01*
X80090652Y-141835943D01*
X80164057Y-141909348D01*
X80250372Y-141967021D01*
X80329989Y-142000000D01*
X80250372Y-142032979D01*
X80164057Y-142090652D01*
X80090652Y-142164057D01*
X80032979Y-142250372D01*
X79993252Y-142346280D01*
X79979198Y-142416933D01*
X79823132Y-142573000D01*
X79309525Y-142573000D01*
X79249628Y-142532979D01*
X79153720Y-142493252D01*
X79051905Y-142473000D01*
X78948095Y-142473000D01*
X78846280Y-142493252D01*
X78750372Y-142532979D01*
X78664057Y-142590652D01*
X78590652Y-142664057D01*
X78532979Y-142750372D01*
X78493252Y-142846280D01*
X78491966Y-142852743D01*
X77224317Y-141585094D01*
X77227000Y-141571603D01*
X77227000Y-141428397D01*
X77199062Y-141287942D01*
X77144259Y-141155636D01*
X77064698Y-141036564D01*
X76963436Y-140935302D01*
X76844364Y-140855741D01*
X76712058Y-140800938D01*
X76571603Y-140773000D01*
X76428397Y-140773000D01*
X76287942Y-140800938D01*
X76155636Y-140855741D01*
X76036564Y-140935302D01*
X75935302Y-141036564D01*
X75875000Y-141126813D01*
X75814698Y-141036564D01*
X75713436Y-140935302D01*
X75594364Y-140855741D01*
X75462058Y-140800938D01*
X75321603Y-140773000D01*
X75178397Y-140773000D01*
X75037942Y-140800938D01*
X74905636Y-140855741D01*
X74786564Y-140935302D01*
X74685302Y-141036564D01*
X74605741Y-141155636D01*
X74550938Y-141287942D01*
X74523000Y-141428397D01*
X74523000Y-141571603D01*
X74531549Y-141614582D01*
X73073132Y-143073000D01*
X71020967Y-143073000D01*
X71000000Y-143070935D01*
X70979033Y-143073000D01*
X70979022Y-143073000D01*
X70916293Y-143079178D01*
X70835804Y-143103595D01*
X70810020Y-143117377D01*
X70761623Y-143143245D01*
X70712899Y-143183232D01*
X70712895Y-143183236D01*
X70696605Y-143196605D01*
X70683236Y-143212895D01*
X69897910Y-143998222D01*
X69881615Y-144011595D01*
X69868243Y-144027889D01*
X69868242Y-144027890D01*
X69828255Y-144076614D01*
X69810581Y-144109680D01*
X69788605Y-144150795D01*
X69764188Y-144231284D01*
X69758010Y-144294013D01*
X69758010Y-144294023D01*
X69755945Y-144314990D01*
X69758010Y-144335957D01*
X69758010Y-144660956D01*
X69721574Y-144685302D01*
X69620312Y-144786564D01*
X69540751Y-144905636D01*
X69485948Y-145037942D01*
X69458010Y-145178397D01*
X63727000Y-145178397D01*
X63699062Y-145037942D01*
X63644259Y-144905636D01*
X63564698Y-144786564D01*
X63463436Y-144685302D01*
X63344364Y-144605741D01*
X63212058Y-144550938D01*
X63071603Y-144523000D01*
X62928397Y-144523000D01*
X62787942Y-144550938D01*
X62655636Y-144605741D01*
X62536564Y-144685302D01*
X62435302Y-144786564D01*
X62355741Y-144905636D01*
X62300938Y-145037942D01*
X62273000Y-145178397D01*
X56617867Y-145178397D01*
X56472514Y-145118190D01*
X55993963Y-145023000D01*
X55506037Y-145023000D01*
X55027486Y-145118190D01*
X54576701Y-145304911D01*
X54171005Y-145575989D01*
X53825989Y-145921005D01*
X53554911Y-146326701D01*
X53368190Y-146777486D01*
X53273000Y-147256037D01*
X50173413Y-147256037D01*
X50228507Y-146585926D01*
X50451942Y-145696391D01*
X50817658Y-144855301D01*
X51315835Y-144085237D01*
X51933100Y-143406873D01*
X52652862Y-142838439D01*
X53455807Y-142395188D01*
X54320362Y-142089034D01*
X55230251Y-141926958D01*
X55739716Y-141902932D01*
X55750000Y-141903945D01*
X55828805Y-141896183D01*
X55904582Y-141873197D01*
X55974419Y-141835868D01*
X56035632Y-141785632D01*
X56085868Y-141724420D01*
X56099939Y-141698095D01*
X62473000Y-141698095D01*
X62473000Y-141801905D01*
X62493252Y-141903720D01*
X62532979Y-141999628D01*
X62590652Y-142085943D01*
X62664057Y-142159348D01*
X62750372Y-142217021D01*
X62846280Y-142256748D01*
X62916933Y-142270802D01*
X63433241Y-142787111D01*
X63446605Y-142803395D01*
X63462889Y-142816759D01*
X63462898Y-142816768D01*
X63511623Y-142856755D01*
X63551273Y-142877948D01*
X63585804Y-142896405D01*
X63666293Y-142920822D01*
X63729022Y-142927000D01*
X63729032Y-142927000D01*
X63749999Y-142929065D01*
X63770966Y-142927000D01*
X67900485Y-142927000D01*
X67960382Y-142967021D01*
X68056290Y-143006748D01*
X68158105Y-143027000D01*
X68261915Y-143027000D01*
X68363730Y-143006748D01*
X68459638Y-142967021D01*
X68545953Y-142909348D01*
X68619358Y-142835943D01*
X68677031Y-142749628D01*
X68716758Y-142653720D01*
X68737010Y-142551905D01*
X68737010Y-142448095D01*
X68716758Y-142346280D01*
X68677031Y-142250372D01*
X68619358Y-142164057D01*
X68545953Y-142090652D01*
X68459638Y-142032979D01*
X68363730Y-141993252D01*
X68261915Y-141973000D01*
X68158105Y-141973000D01*
X68056290Y-141993252D01*
X67960382Y-142032979D01*
X67900485Y-142073000D01*
X63926870Y-142073000D01*
X63520802Y-141666933D01*
X63506748Y-141596280D01*
X63467021Y-141500372D01*
X63409348Y-141414057D01*
X63335943Y-141340652D01*
X63249628Y-141282979D01*
X63153720Y-141243252D01*
X63051905Y-141223000D01*
X62948095Y-141223000D01*
X62846280Y-141243252D01*
X62750372Y-141282979D01*
X62664057Y-141340652D01*
X62590652Y-141414057D01*
X62532979Y-141500372D01*
X62493252Y-141596280D01*
X62473000Y-141698095D01*
X56099939Y-141698095D01*
X56123197Y-141654583D01*
X56146183Y-141578806D01*
X56152000Y-141519747D01*
X56152000Y-139428397D01*
X62523000Y-139428397D01*
X62523000Y-139571603D01*
X62550938Y-139712058D01*
X62605741Y-139844364D01*
X62685302Y-139963436D01*
X62786564Y-140064698D01*
X62905636Y-140144259D01*
X63037942Y-140199062D01*
X63178397Y-140227000D01*
X63321603Y-140227000D01*
X63462058Y-140199062D01*
X63594364Y-140144259D01*
X63713436Y-140064698D01*
X63814698Y-139963436D01*
X63894259Y-139844364D01*
X63949062Y-139712058D01*
X63977000Y-139571603D01*
X63977000Y-139428397D01*
X63949062Y-139287942D01*
X63894259Y-139155636D01*
X63814698Y-139036564D01*
X63713436Y-138935302D01*
X63594364Y-138855741D01*
X63462058Y-138800938D01*
X63321603Y-138773000D01*
X63178397Y-138773000D01*
X63037942Y-138800938D01*
X62905636Y-138855741D01*
X62786564Y-138935302D01*
X62685302Y-139036564D01*
X62605741Y-139155636D01*
X62550938Y-139287942D01*
X62523000Y-139428397D01*
X56152000Y-139428397D01*
X56152000Y-130928397D01*
X60273000Y-130928397D01*
X60273000Y-131071603D01*
X60300938Y-131212058D01*
X60355741Y-131344364D01*
X60435302Y-131463436D01*
X60536564Y-131564698D01*
X60655636Y-131644259D01*
X60787942Y-131699062D01*
X60928397Y-131727000D01*
X61071603Y-131727000D01*
X61212058Y-131699062D01*
X61344364Y-131644259D01*
X61463436Y-131564698D01*
X61564698Y-131463436D01*
X61644259Y-131344364D01*
X61699062Y-131212058D01*
X61727000Y-131071603D01*
X61727000Y-130928397D01*
X61724317Y-130914907D01*
X61735312Y-130903912D01*
X61735316Y-130903907D01*
X61912226Y-130726998D01*
X62826182Y-130726998D01*
X62800938Y-130787942D01*
X62773000Y-130928397D01*
X62773000Y-131071603D01*
X62800938Y-131212058D01*
X62855741Y-131344364D01*
X62935302Y-131463436D01*
X63036564Y-131564698D01*
X63155636Y-131644259D01*
X63287942Y-131699062D01*
X63428397Y-131727000D01*
X63571603Y-131727000D01*
X63712058Y-131699062D01*
X63844364Y-131644259D01*
X63963436Y-131564698D01*
X64064698Y-131463436D01*
X64144259Y-131344364D01*
X64199062Y-131212058D01*
X64227000Y-131071603D01*
X64227000Y-130928397D01*
X64199062Y-130787942D01*
X64173818Y-130726998D01*
X64326182Y-130726998D01*
X64300938Y-130787942D01*
X64273000Y-130928397D01*
X64273000Y-131071603D01*
X64300938Y-131212058D01*
X64355741Y-131344364D01*
X64435302Y-131463436D01*
X64536564Y-131564698D01*
X64548000Y-131572339D01*
X64548001Y-133312774D01*
X63096093Y-134764684D01*
X63096088Y-134764688D01*
X63085093Y-134775683D01*
X63071603Y-134773000D01*
X62928397Y-134773000D01*
X62787942Y-134800938D01*
X62655636Y-134855741D01*
X62536564Y-134935302D01*
X62435302Y-135036564D01*
X62355741Y-135155636D01*
X62300938Y-135287942D01*
X62273000Y-135428397D01*
X62273000Y-135571603D01*
X62300938Y-135712058D01*
X62355741Y-135844364D01*
X62435302Y-135963436D01*
X62536564Y-136064698D01*
X62655636Y-136144259D01*
X62787942Y-136199062D01*
X62928397Y-136227000D01*
X63071603Y-136227000D01*
X63212058Y-136199062D01*
X63344364Y-136144259D01*
X63463436Y-136064698D01*
X63564698Y-135963436D01*
X63644259Y-135844364D01*
X63699062Y-135712058D01*
X63727000Y-135571603D01*
X63727000Y-135428397D01*
X63724317Y-135414907D01*
X63735312Y-135403912D01*
X63735316Y-135403907D01*
X63891128Y-135248095D01*
X82073000Y-135248095D01*
X82073000Y-135351905D01*
X82093252Y-135453720D01*
X82132979Y-135549628D01*
X82173001Y-135609526D01*
X82173000Y-139479033D01*
X82170935Y-139500000D01*
X82173000Y-139520967D01*
X82173000Y-139520977D01*
X82179178Y-139583706D01*
X82203595Y-139664195D01*
X82204717Y-139666294D01*
X82243245Y-139738376D01*
X82252785Y-139750000D01*
X82296605Y-139803395D01*
X82312900Y-139816768D01*
X82679199Y-140183068D01*
X82693252Y-140253720D01*
X82732979Y-140349628D01*
X82790652Y-140435943D01*
X82864057Y-140509348D01*
X82950372Y-140567021D01*
X83046280Y-140606748D01*
X83148095Y-140627000D01*
X83251905Y-140627000D01*
X83353720Y-140606748D01*
X83449628Y-140567021D01*
X83535943Y-140509348D01*
X83609348Y-140435943D01*
X83667021Y-140349628D01*
X83706748Y-140253720D01*
X83727000Y-140151905D01*
X83727000Y-140048095D01*
X83706748Y-139946280D01*
X83667021Y-139850372D01*
X83609348Y-139764057D01*
X83535943Y-139690652D01*
X83449628Y-139632979D01*
X83353720Y-139593252D01*
X83283068Y-139579199D01*
X83027000Y-139323132D01*
X83027000Y-138678397D01*
X84523000Y-138678397D01*
X84523000Y-138821603D01*
X84550938Y-138962058D01*
X84605741Y-139094364D01*
X84685302Y-139213436D01*
X84786564Y-139314698D01*
X84905636Y-139394259D01*
X85037942Y-139449062D01*
X85178397Y-139477000D01*
X85321603Y-139477000D01*
X85462058Y-139449062D01*
X85594364Y-139394259D01*
X85713436Y-139314698D01*
X85814698Y-139213436D01*
X85894259Y-139094364D01*
X85949062Y-138962058D01*
X85977000Y-138821603D01*
X85977000Y-138678397D01*
X85949062Y-138537942D01*
X85894259Y-138405636D01*
X85814698Y-138286564D01*
X85713436Y-138185302D01*
X85594364Y-138105741D01*
X85462058Y-138050938D01*
X85321603Y-138023000D01*
X85178397Y-138023000D01*
X85037942Y-138050938D01*
X84905636Y-138105741D01*
X84786564Y-138185302D01*
X84685302Y-138286564D01*
X84605741Y-138405636D01*
X84550938Y-138537942D01*
X84523000Y-138678397D01*
X83027000Y-138678397D01*
X83027000Y-135609525D01*
X83067021Y-135549628D01*
X83106748Y-135453720D01*
X83127000Y-135351905D01*
X83127000Y-135248095D01*
X83106748Y-135146280D01*
X83067021Y-135050372D01*
X83009348Y-134964057D01*
X82935943Y-134890652D01*
X82849628Y-134832979D01*
X82753720Y-134793252D01*
X82651905Y-134773000D01*
X82548095Y-134773000D01*
X82446280Y-134793252D01*
X82350372Y-134832979D01*
X82264057Y-134890652D01*
X82190652Y-134964057D01*
X82132979Y-135050372D01*
X82093252Y-135146280D01*
X82073000Y-135248095D01*
X63891128Y-135248095D01*
X65303910Y-133835315D01*
X65321159Y-133821159D01*
X65377643Y-133752333D01*
X65419614Y-133673810D01*
X65445460Y-133588607D01*
X65452000Y-133522205D01*
X65454187Y-133500001D01*
X65452000Y-133477796D01*
X65452000Y-131572339D01*
X65463436Y-131564698D01*
X65564698Y-131463436D01*
X65644259Y-131344364D01*
X65662091Y-131301314D01*
X66775683Y-132414908D01*
X66773000Y-132428397D01*
X66773000Y-132571603D01*
X66800938Y-132712058D01*
X66855741Y-132844364D01*
X66935302Y-132963436D01*
X67036564Y-133064698D01*
X67155636Y-133144259D01*
X67287942Y-133199062D01*
X67428397Y-133227000D01*
X67571603Y-133227000D01*
X67712058Y-133199062D01*
X67844364Y-133144259D01*
X67963436Y-133064698D01*
X68064698Y-132963436D01*
X68144259Y-132844364D01*
X68199062Y-132712058D01*
X68227000Y-132571603D01*
X68227000Y-132428397D01*
X68199062Y-132287942D01*
X68144259Y-132155636D01*
X68064698Y-132036564D01*
X67963436Y-131935302D01*
X67844364Y-131855741D01*
X67712058Y-131800938D01*
X67571603Y-131773000D01*
X67428397Y-131773000D01*
X67414908Y-131775683D01*
X65757936Y-130118713D01*
X67004810Y-130118713D01*
X67913343Y-131027248D01*
X67910660Y-131040737D01*
X67910660Y-131183943D01*
X67938598Y-131324398D01*
X67993401Y-131456704D01*
X68072962Y-131575776D01*
X68174224Y-131677038D01*
X68293296Y-131756599D01*
X68425602Y-131811402D01*
X68566057Y-131839340D01*
X68709263Y-131839340D01*
X68849718Y-131811402D01*
X68982024Y-131756599D01*
X69101096Y-131677038D01*
X69202358Y-131575776D01*
X69281919Y-131456704D01*
X69336722Y-131324398D01*
X69364660Y-131183943D01*
X69364660Y-131040737D01*
X69336722Y-130900282D01*
X69281919Y-130767976D01*
X69202358Y-130648904D01*
X69101096Y-130547642D01*
X68982024Y-130468081D01*
X68849718Y-130413278D01*
X68709263Y-130385340D01*
X68566057Y-130385340D01*
X68552568Y-130388023D01*
X68307288Y-130142743D01*
X79911000Y-130142743D01*
X79911000Y-130357257D01*
X79952850Y-130567650D01*
X80034941Y-130765835D01*
X80154119Y-130944197D01*
X80305803Y-131095881D01*
X80484165Y-131215059D01*
X80682350Y-131297150D01*
X80892743Y-131339000D01*
X81107257Y-131339000D01*
X81317650Y-131297150D01*
X81515835Y-131215059D01*
X81694197Y-131095881D01*
X81845881Y-130944197D01*
X81965059Y-130765835D01*
X82047150Y-130567650D01*
X82089000Y-130357257D01*
X82089000Y-130142743D01*
X88911000Y-130142743D01*
X88911000Y-130357257D01*
X88952850Y-130567650D01*
X89034941Y-130765835D01*
X89154119Y-130944197D01*
X89305803Y-131095881D01*
X89484165Y-131215059D01*
X89682350Y-131297150D01*
X89892743Y-131339000D01*
X90107257Y-131339000D01*
X90317650Y-131297150D01*
X90515835Y-131215059D01*
X90694197Y-131095881D01*
X90845881Y-130944197D01*
X90965059Y-130765835D01*
X91047150Y-130567650D01*
X91089000Y-130357257D01*
X91089000Y-130142743D01*
X91047150Y-129932350D01*
X90965059Y-129734165D01*
X90845881Y-129555803D01*
X90694197Y-129404119D01*
X90515835Y-129284941D01*
X90317650Y-129202850D01*
X90107257Y-129161000D01*
X89892743Y-129161000D01*
X89682350Y-129202850D01*
X89484165Y-129284941D01*
X89305803Y-129404119D01*
X89154119Y-129555803D01*
X89034941Y-129734165D01*
X88952850Y-129932350D01*
X88911000Y-130142743D01*
X82089000Y-130142743D01*
X82047150Y-129932350D01*
X81965059Y-129734165D01*
X81845881Y-129555803D01*
X81694197Y-129404119D01*
X81515835Y-129284941D01*
X81317650Y-129202850D01*
X81107257Y-129161000D01*
X80892743Y-129161000D01*
X80682350Y-129202850D01*
X80484165Y-129284941D01*
X80305803Y-129404119D01*
X80154119Y-129555803D01*
X80034941Y-129734165D01*
X79952850Y-129932350D01*
X79911000Y-130142743D01*
X68307288Y-130142743D01*
X67527356Y-129362813D01*
X67513192Y-129345554D01*
X67444366Y-129289070D01*
X67365843Y-129247099D01*
X67280640Y-129221253D01*
X67214238Y-129214713D01*
X67192033Y-129212526D01*
X67169828Y-129214713D01*
X65686866Y-129214713D01*
X65654686Y-129166552D01*
X65553424Y-129065290D01*
X65434352Y-128985729D01*
X65302046Y-128930926D01*
X65161591Y-128902988D01*
X65018385Y-128902988D01*
X64877930Y-128930926D01*
X64745624Y-128985729D01*
X64626552Y-129065290D01*
X64525290Y-129166552D01*
X64445729Y-129285624D01*
X64390926Y-129417930D01*
X64362988Y-129558385D01*
X64362988Y-129701591D01*
X64387137Y-129822998D01*
X61747207Y-129822998D01*
X61725002Y-129820811D01*
X61636394Y-129829538D01*
X61551192Y-129855384D01*
X61472669Y-129897355D01*
X61403843Y-129953839D01*
X61389683Y-129971093D01*
X61096093Y-130264684D01*
X61096088Y-130264688D01*
X61085093Y-130275683D01*
X61071603Y-130273000D01*
X60928397Y-130273000D01*
X60787942Y-130300938D01*
X60655636Y-130355741D01*
X60536564Y-130435302D01*
X60435302Y-130536564D01*
X60355741Y-130655636D01*
X60300938Y-130787942D01*
X60273000Y-130928397D01*
X56152000Y-130928397D01*
X56152000Y-128769658D01*
X56184324Y-128439992D01*
X56274357Y-128141786D01*
X56420595Y-127866751D01*
X56617473Y-127625355D01*
X56857487Y-127426797D01*
X57131498Y-127278640D01*
X57429064Y-127186528D01*
X57757573Y-127152000D01*
X91730342Y-127152000D01*
X92060008Y-127184324D01*
X92060008Y-127184324D01*
G37*
X92060008Y-127184324D02*
X92358214Y-127274357D01*
X92633249Y-127420595D01*
X92874645Y-127617473D01*
X93073203Y-127857487D01*
X93221360Y-128131498D01*
X93313472Y-128429064D01*
X93348001Y-128757582D01*
X93348000Y-141519746D01*
X93353817Y-141578805D01*
X93376803Y-141654582D01*
X93414132Y-141724419D01*
X93464368Y-141785632D01*
X93525580Y-141835868D01*
X93595417Y-141873197D01*
X93671194Y-141896183D01*
X93750000Y-141903945D01*
X93753259Y-141903624D01*
X94664074Y-141978507D01*
X95553609Y-142201942D01*
X96394699Y-142567658D01*
X97164763Y-143065835D01*
X97843127Y-143683100D01*
X98411561Y-144402862D01*
X98854812Y-145205807D01*
X99160966Y-146070362D01*
X99323042Y-146980251D01*
X99347222Y-147492974D01*
X99271493Y-148414079D01*
X99048058Y-149303609D01*
X98682342Y-150144699D01*
X98184165Y-150914763D01*
X97566900Y-151593127D01*
X96847134Y-152161564D01*
X96044190Y-152604812D01*
X95179637Y-152910966D01*
X94269749Y-153073042D01*
X93760284Y-153097068D01*
X93750000Y-153096055D01*
X93671195Y-153103817D01*
X93595418Y-153126803D01*
X93525581Y-153164132D01*
X93464369Y-153214368D01*
X93414133Y-153275580D01*
X93376804Y-153345417D01*
X93353818Y-153421194D01*
X93348001Y-153480253D01*
X93348000Y-166230342D01*
X93315676Y-166560009D01*
X93225641Y-166858217D01*
X93079402Y-167133252D01*
X92882524Y-167374648D01*
X92642513Y-167573203D01*
X92368502Y-167721360D01*
X92070935Y-167813472D01*
X91742426Y-167848000D01*
X69877000Y-167848000D01*
X69877000Y-165892743D01*
X86371000Y-165892743D01*
X86371000Y-166107257D01*
X86412850Y-166317650D01*
X86494941Y-166515835D01*
X86614119Y-166694197D01*
X86765803Y-166845881D01*
X86944165Y-166965059D01*
X87142350Y-167047150D01*
X87352743Y-167089000D01*
X87567257Y-167089000D01*
X87777650Y-167047150D01*
X87975835Y-166965059D01*
X88154197Y-166845881D01*
X88305881Y-166694197D01*
X88425059Y-166515835D01*
X88507150Y-166317650D01*
X88549000Y-166107257D01*
X88549000Y-165892743D01*
X88507150Y-165682350D01*
X88425059Y-165484165D01*
X88305881Y-165305803D01*
X88238078Y-165238000D01*
X88909418Y-165238000D01*
X88909418Y-166762000D01*
X88915732Y-166826103D01*
X88934430Y-166887743D01*
X88964794Y-166944550D01*
X89005657Y-166994343D01*
X89055450Y-167035206D01*
X89112257Y-167065570D01*
X89173897Y-167084268D01*
X89238000Y-167090582D01*
X90762000Y-167090582D01*
X90826103Y-167084268D01*
X90887743Y-167065570D01*
X90944550Y-167035206D01*
X90994343Y-166994343D01*
X91035206Y-166944550D01*
X91065570Y-166887743D01*
X91084268Y-166826103D01*
X91090582Y-166762000D01*
X91090582Y-165238000D01*
X91084268Y-165173897D01*
X91065570Y-165112257D01*
X91035206Y-165055450D01*
X90994343Y-165005657D01*
X90944550Y-164964794D01*
X90887743Y-164934430D01*
X90826103Y-164915732D01*
X90762000Y-164909418D01*
X89238000Y-164909418D01*
X89173897Y-164915732D01*
X89112257Y-164934430D01*
X89055450Y-164964794D01*
X89005657Y-165005657D01*
X88964794Y-165055450D01*
X88934430Y-165112257D01*
X88915732Y-165173897D01*
X88909418Y-165238000D01*
X88238078Y-165238000D01*
X88154197Y-165154119D01*
X87975835Y-165034941D01*
X87777650Y-164952850D01*
X87567257Y-164911000D01*
X87352743Y-164911000D01*
X87142350Y-164952850D01*
X86944165Y-165034941D01*
X86765803Y-165154119D01*
X86614119Y-165305803D01*
X86494941Y-165484165D01*
X86412850Y-165682350D01*
X86371000Y-165892743D01*
X69877000Y-165892743D01*
X69877000Y-163352743D01*
X86371000Y-163352743D01*
X86371000Y-163567257D01*
X86412850Y-163777650D01*
X86494941Y-163975835D01*
X86614119Y-164154197D01*
X86765803Y-164305881D01*
X86944165Y-164425059D01*
X87142350Y-164507150D01*
X87352743Y-164549000D01*
X87567257Y-164549000D01*
X87777650Y-164507150D01*
X87975835Y-164425059D01*
X88154197Y-164305881D01*
X88305881Y-164154197D01*
X88425059Y-163975835D01*
X88507150Y-163777650D01*
X88549000Y-163567257D01*
X88549000Y-163352743D01*
X88911000Y-163352743D01*
X88911000Y-163567257D01*
X88952850Y-163777650D01*
X89034941Y-163975835D01*
X89154119Y-164154197D01*
X89305803Y-164305881D01*
X89484165Y-164425059D01*
X89682350Y-164507150D01*
X89892743Y-164549000D01*
X90107257Y-164549000D01*
X90317650Y-164507150D01*
X90515835Y-164425059D01*
X90694197Y-164305881D01*
X90845881Y-164154197D01*
X90965059Y-163975835D01*
X91047150Y-163777650D01*
X91089000Y-163567257D01*
X91089000Y-163352743D01*
X91047150Y-163142350D01*
X90965059Y-162944165D01*
X90845881Y-162765803D01*
X90694197Y-162614119D01*
X90515835Y-162494941D01*
X90317650Y-162412850D01*
X90107257Y-162371000D01*
X89892743Y-162371000D01*
X89682350Y-162412850D01*
X89484165Y-162494941D01*
X89305803Y-162614119D01*
X89154119Y-162765803D01*
X89034941Y-162944165D01*
X88952850Y-163142350D01*
X88911000Y-163352743D01*
X88549000Y-163352743D01*
X88507150Y-163142350D01*
X88425059Y-162944165D01*
X88305881Y-162765803D01*
X88154197Y-162614119D01*
X87975835Y-162494941D01*
X87777650Y-162412850D01*
X87567257Y-162371000D01*
X87352743Y-162371000D01*
X87142350Y-162412850D01*
X86944165Y-162494941D01*
X86765803Y-162614119D01*
X86614119Y-162765803D01*
X86494941Y-162944165D01*
X86412850Y-163142350D01*
X86371000Y-163352743D01*
X69877000Y-163352743D01*
X69877000Y-160812743D01*
X86371000Y-160812743D01*
X86371000Y-161027257D01*
X86412850Y-161237650D01*
X86494941Y-161435835D01*
X86614119Y-161614197D01*
X86765803Y-161765881D01*
X86944165Y-161885059D01*
X87142350Y-161967150D01*
X87352743Y-162009000D01*
X87567257Y-162009000D01*
X87777650Y-161967150D01*
X87975835Y-161885059D01*
X88154197Y-161765881D01*
X88305881Y-161614197D01*
X88425059Y-161435835D01*
X88507150Y-161237650D01*
X88549000Y-161027257D01*
X88549000Y-160812743D01*
X88911000Y-160812743D01*
X88911000Y-161027257D01*
X88952850Y-161237650D01*
X89034941Y-161435835D01*
X89154119Y-161614197D01*
X89305803Y-161765881D01*
X89484165Y-161885059D01*
X89682350Y-161967150D01*
X89892743Y-162009000D01*
X90107257Y-162009000D01*
X90317650Y-161967150D01*
X90515835Y-161885059D01*
X90694197Y-161765881D01*
X90845881Y-161614197D01*
X90965059Y-161435835D01*
X91047150Y-161237650D01*
X91089000Y-161027257D01*
X91089000Y-160812743D01*
X91047150Y-160602350D01*
X90965059Y-160404165D01*
X90845881Y-160225803D01*
X90694197Y-160074119D01*
X90515835Y-159954941D01*
X90317650Y-159872850D01*
X90107257Y-159831000D01*
X89892743Y-159831000D01*
X89682350Y-159872850D01*
X89484165Y-159954941D01*
X89305803Y-160074119D01*
X89154119Y-160225803D01*
X89034941Y-160404165D01*
X88952850Y-160602350D01*
X88911000Y-160812743D01*
X88549000Y-160812743D01*
X88507150Y-160602350D01*
X88425059Y-160404165D01*
X88305881Y-160225803D01*
X88154197Y-160074119D01*
X87975835Y-159954941D01*
X87777650Y-159872850D01*
X87567257Y-159831000D01*
X87352743Y-159831000D01*
X87142350Y-159872850D01*
X86944165Y-159954941D01*
X86765803Y-160074119D01*
X86614119Y-160225803D01*
X86494941Y-160404165D01*
X86412850Y-160602350D01*
X86371000Y-160812743D01*
X69877000Y-160812743D01*
X69877000Y-158448095D01*
X73473000Y-158448095D01*
X73473000Y-158551905D01*
X73493252Y-158653720D01*
X73532979Y-158749628D01*
X73590652Y-158835943D01*
X73664057Y-158909348D01*
X73750372Y-158967021D01*
X73846280Y-159006748D01*
X73948095Y-159027000D01*
X74051905Y-159027000D01*
X74153720Y-159006748D01*
X74249628Y-158967021D01*
X74309525Y-158927000D01*
X75690475Y-158927000D01*
X75750372Y-158967021D01*
X75846280Y-159006748D01*
X75948095Y-159027000D01*
X76051905Y-159027000D01*
X76153720Y-159006748D01*
X76249628Y-158967021D01*
X76335943Y-158909348D01*
X76409348Y-158835943D01*
X76467021Y-158749628D01*
X76506748Y-158653720D01*
X76527000Y-158551905D01*
X76527000Y-158448095D01*
X76506748Y-158346280D01*
X76467021Y-158250372D01*
X76409348Y-158164057D01*
X76335943Y-158090652D01*
X76249628Y-158032979D01*
X76153720Y-157993252D01*
X76051905Y-157973000D01*
X75948095Y-157973000D01*
X75846280Y-157993252D01*
X75750372Y-158032979D01*
X75690475Y-158073000D01*
X74309525Y-158073000D01*
X74249628Y-158032979D01*
X74153720Y-157993252D01*
X74051905Y-157973000D01*
X73948095Y-157973000D01*
X73846280Y-157993252D01*
X73750372Y-158032979D01*
X73664057Y-158090652D01*
X73590652Y-158164057D01*
X73532979Y-158250372D01*
X73493252Y-158346280D01*
X73473000Y-158448095D01*
X69877000Y-158448095D01*
X69877000Y-156448095D01*
X78473000Y-156448095D01*
X78473000Y-156551905D01*
X78493252Y-156653720D01*
X78532979Y-156749628D01*
X78590652Y-156835943D01*
X78664057Y-156909348D01*
X78750372Y-156967021D01*
X78846280Y-157006748D01*
X78948095Y-157027000D01*
X79051905Y-157027000D01*
X79153720Y-157006748D01*
X79249628Y-156967021D01*
X79335943Y-156909348D01*
X79409348Y-156835943D01*
X79467021Y-156749628D01*
X79506748Y-156653720D01*
X79520802Y-156583067D01*
X80176869Y-155927000D01*
X80690475Y-155927000D01*
X80750372Y-155967021D01*
X80846280Y-156006748D01*
X80948095Y-156027000D01*
X81051905Y-156027000D01*
X81153720Y-156006748D01*
X81249628Y-155967021D01*
X81335943Y-155909348D01*
X81409348Y-155835943D01*
X81467021Y-155749628D01*
X81506748Y-155653720D01*
X81527000Y-155551905D01*
X81527000Y-155448095D01*
X81506748Y-155346280D01*
X81467021Y-155250372D01*
X81409348Y-155164057D01*
X81335943Y-155090652D01*
X81249628Y-155032979D01*
X81153720Y-154993252D01*
X81051905Y-154973000D01*
X80948095Y-154973000D01*
X80846280Y-154993252D01*
X80750372Y-155032979D01*
X80690475Y-155073000D01*
X80020967Y-155073000D01*
X80000000Y-155070935D01*
X79979033Y-155073000D01*
X79979022Y-155073000D01*
X79916293Y-155079178D01*
X79854537Y-155097912D01*
X79835803Y-155103595D01*
X79761624Y-155143244D01*
X79712899Y-155183232D01*
X79712895Y-155183236D01*
X79696605Y-155196605D01*
X79683236Y-155212895D01*
X78916933Y-155979198D01*
X78846280Y-155993252D01*
X78750372Y-156032979D01*
X78664057Y-156090652D01*
X78590652Y-156164057D01*
X78532979Y-156250372D01*
X78493252Y-156346280D01*
X78473000Y-156448095D01*
X69877000Y-156448095D01*
X69877000Y-152750000D01*
X69874560Y-152725224D01*
X69867333Y-152701399D01*
X69855597Y-152679443D01*
X69839803Y-152660197D01*
X69820557Y-152644403D01*
X69798601Y-152632667D01*
X69774776Y-152625440D01*
X69750000Y-152623000D01*
X55750000Y-152623000D01*
X55725224Y-152625440D01*
X55701399Y-152632667D01*
X55679443Y-152644403D01*
X55660197Y-152660197D01*
X55644403Y-152679443D01*
X55632667Y-152701399D01*
X55625440Y-152725224D01*
X55623000Y-152750000D01*
X55623000Y-153086203D01*
X54835921Y-153021493D01*
X53946391Y-152798058D01*
X53105301Y-152432342D01*
X52335237Y-151934165D01*
X52054153Y-151678397D01*
X67273000Y-151678397D01*
X67273000Y-151821603D01*
X67300938Y-151962058D01*
X67355741Y-152094364D01*
X67435302Y-152213436D01*
X67536564Y-152314698D01*
X67655636Y-152394259D01*
X67787942Y-152449062D01*
X67928397Y-152477000D01*
X68071603Y-152477000D01*
X68212058Y-152449062D01*
X68344364Y-152394259D01*
X68463436Y-152314698D01*
X68564698Y-152213436D01*
X68644259Y-152094364D01*
X68699062Y-151962058D01*
X68727000Y-151821603D01*
X68727000Y-151678397D01*
X68699062Y-151537942D01*
X68644259Y-151405636D01*
X68564698Y-151286564D01*
X68463436Y-151185302D01*
X68344364Y-151105741D01*
X68212058Y-151050938D01*
X68071603Y-151023000D01*
X67928397Y-151023000D01*
X67787942Y-151050938D01*
X67655636Y-151105741D01*
X67536564Y-151185302D01*
X67435302Y-151286564D01*
X67355741Y-151405636D01*
X67300938Y-151537942D01*
X67273000Y-151678397D01*
X52054153Y-151678397D01*
X51656873Y-151316900D01*
X51088436Y-150597134D01*
X50645188Y-149794190D01*
X50339034Y-148929637D01*
X50176958Y-148019749D01*
X50152778Y-147507027D01*
X50173413Y-147256037D01*
X53273000Y-147256037D01*
X53273000Y-147743963D01*
X53368190Y-148222514D01*
X53554911Y-148673299D01*
X53825989Y-149078995D01*
X54171005Y-149424011D01*
X54576701Y-149695089D01*
X55027486Y-149881810D01*
X55506037Y-149977000D01*
X55993963Y-149977000D01*
X56472514Y-149881810D01*
X56923299Y-149695089D01*
X57328995Y-149424011D01*
X57674011Y-149078995D01*
X57945089Y-148673299D01*
X58131810Y-148222514D01*
X58227000Y-147743963D01*
X58227000Y-147256037D01*
X58131810Y-146777486D01*
X57945089Y-146326701D01*
X57674011Y-145921005D01*
X57328995Y-145575989D01*
X56923299Y-145304911D01*
X56617867Y-145178397D01*
X62273000Y-145178397D01*
X62273000Y-145321603D01*
X62300938Y-145462058D01*
X62355741Y-145594364D01*
X62435302Y-145713436D01*
X62536564Y-145814698D01*
X62655636Y-145894259D01*
X62787942Y-145949062D01*
X62928397Y-145977000D01*
X63071603Y-145977000D01*
X63212058Y-145949062D01*
X63344364Y-145894259D01*
X63463436Y-145814698D01*
X63564698Y-145713436D01*
X63644259Y-145594364D01*
X63699062Y-145462058D01*
X63727000Y-145321603D01*
X63727000Y-145178397D01*
X69458010Y-145178397D01*
X69458010Y-145321603D01*
X69485948Y-145462058D01*
X69540751Y-145594364D01*
X69620312Y-145713436D01*
X69721574Y-145814698D01*
X69840646Y-145894259D01*
X69972952Y-145949062D01*
X70113407Y-145977000D01*
X70256613Y-145977000D01*
X70397068Y-145949062D01*
X70421418Y-145938976D01*
X70421418Y-152250000D01*
X70427732Y-152314103D01*
X70446430Y-152375743D01*
X70476794Y-152432550D01*
X70517657Y-152482343D01*
X70530023Y-152492491D01*
X70532979Y-152499628D01*
X70590652Y-152585943D01*
X70664057Y-152659348D01*
X70750372Y-152717021D01*
X70846280Y-152756748D01*
X70948095Y-152777000D01*
X71051905Y-152777000D01*
X71153720Y-152756748D01*
X71249628Y-152717021D01*
X71335943Y-152659348D01*
X71409348Y-152585943D01*
X71414266Y-152578582D01*
X71835734Y-152578582D01*
X71840652Y-152585943D01*
X71914057Y-152659348D01*
X72000372Y-152717021D01*
X72096280Y-152756748D01*
X72198095Y-152777000D01*
X72301905Y-152777000D01*
X72403720Y-152756748D01*
X72499628Y-152717021D01*
X72585943Y-152659348D01*
X72659348Y-152585943D01*
X72664266Y-152578582D01*
X73335734Y-152578582D01*
X73340652Y-152585943D01*
X73414057Y-152659348D01*
X73500372Y-152717021D01*
X73596280Y-152756748D01*
X73698095Y-152777000D01*
X73801905Y-152777000D01*
X73903720Y-152756748D01*
X73999628Y-152717021D01*
X74085943Y-152659348D01*
X74159348Y-152585943D01*
X74164266Y-152578582D01*
X74835734Y-152578582D01*
X74840652Y-152585943D01*
X74914057Y-152659348D01*
X75000372Y-152717021D01*
X75096280Y-152756748D01*
X75198095Y-152777000D01*
X75301905Y-152777000D01*
X75403720Y-152756748D01*
X75499628Y-152717021D01*
X75585943Y-152659348D01*
X75659348Y-152585943D01*
X75664266Y-152578582D01*
X76335734Y-152578582D01*
X76340652Y-152585943D01*
X76414057Y-152659348D01*
X76500372Y-152717021D01*
X76596280Y-152756748D01*
X76698095Y-152777000D01*
X76801905Y-152777000D01*
X76903720Y-152756748D01*
X76999628Y-152717021D01*
X77085943Y-152659348D01*
X77159348Y-152585943D01*
X77164266Y-152578582D01*
X78085734Y-152578582D01*
X78090652Y-152585943D01*
X78164057Y-152659348D01*
X78250372Y-152717021D01*
X78346280Y-152756748D01*
X78448095Y-152777000D01*
X78551830Y-152777000D01*
X78545813Y-152838094D01*
X78548001Y-152860309D01*
X78548001Y-152927660D01*
X78536564Y-152935302D01*
X78435302Y-153036564D01*
X78355741Y-153155636D01*
X78300938Y-153287942D01*
X78273000Y-153428397D01*
X78273000Y-153571603D01*
X78300938Y-153712058D01*
X78355741Y-153844364D01*
X78435302Y-153963436D01*
X78536564Y-154064698D01*
X78548989Y-154073000D01*
X77209525Y-154073000D01*
X77149628Y-154032979D01*
X77053720Y-153993252D01*
X76951905Y-153973000D01*
X76848095Y-153973000D01*
X76746280Y-153993252D01*
X76650372Y-154032979D01*
X76564057Y-154090652D01*
X76490652Y-154164057D01*
X76432979Y-154250372D01*
X76393252Y-154346280D01*
X76373000Y-154448095D01*
X76373000Y-154551905D01*
X76393252Y-154653720D01*
X76432979Y-154749628D01*
X76490652Y-154835943D01*
X76564057Y-154909348D01*
X76650372Y-154967021D01*
X76746280Y-155006748D01*
X76848095Y-155027000D01*
X76951905Y-155027000D01*
X77053720Y-155006748D01*
X77149628Y-154967021D01*
X77209525Y-154927000D01*
X81579033Y-154927000D01*
X81600000Y-154929065D01*
X81620967Y-154927000D01*
X81620978Y-154927000D01*
X81683707Y-154920822D01*
X81764196Y-154896405D01*
X81838376Y-154856755D01*
X81903395Y-154803395D01*
X81916768Y-154787100D01*
X82083067Y-154620802D01*
X82153720Y-154606748D01*
X82221603Y-154578630D01*
X82431875Y-154788902D01*
X82446039Y-154806161D01*
X82514865Y-154862645D01*
X82593388Y-154904616D01*
X82678590Y-154930462D01*
X82767198Y-154939189D01*
X82789403Y-154937002D01*
X83297779Y-154937002D01*
X86415860Y-158055084D01*
X86412850Y-158062350D01*
X86371000Y-158272743D01*
X86371000Y-158487257D01*
X86412850Y-158697650D01*
X86494941Y-158895835D01*
X86614119Y-159074197D01*
X86765803Y-159225881D01*
X86944165Y-159345059D01*
X87142350Y-159427150D01*
X87352743Y-159469000D01*
X87567257Y-159469000D01*
X87777650Y-159427150D01*
X87975835Y-159345059D01*
X88154197Y-159225881D01*
X88305881Y-159074197D01*
X88425059Y-158895835D01*
X88507150Y-158697650D01*
X88549000Y-158487257D01*
X88549000Y-158272743D01*
X88911000Y-158272743D01*
X88911000Y-158487257D01*
X88952850Y-158697650D01*
X89034941Y-158895835D01*
X89154119Y-159074197D01*
X89305803Y-159225881D01*
X89484165Y-159345059D01*
X89682350Y-159427150D01*
X89892743Y-159469000D01*
X90107257Y-159469000D01*
X90317650Y-159427150D01*
X90515835Y-159345059D01*
X90694197Y-159225881D01*
X90845881Y-159074197D01*
X90965059Y-158895835D01*
X91047150Y-158697650D01*
X91089000Y-158487257D01*
X91089000Y-158272743D01*
X91047150Y-158062350D01*
X90965059Y-157864165D01*
X90845881Y-157685803D01*
X90694197Y-157534119D01*
X90515835Y-157414941D01*
X90317650Y-157332850D01*
X90107257Y-157291000D01*
X89892743Y-157291000D01*
X89682350Y-157332850D01*
X89484165Y-157414941D01*
X89305803Y-157534119D01*
X89154119Y-157685803D01*
X89034941Y-157864165D01*
X88952850Y-158062350D01*
X88911000Y-158272743D01*
X88549000Y-158272743D01*
X88507150Y-158062350D01*
X88425059Y-157864165D01*
X88305881Y-157685803D01*
X88154197Y-157534119D01*
X87975835Y-157414941D01*
X87777650Y-157332850D01*
X87567257Y-157291000D01*
X87352743Y-157291000D01*
X87142350Y-157332850D01*
X87021947Y-157382723D01*
X83820325Y-154181102D01*
X83806161Y-154163843D01*
X83737335Y-154107359D01*
X83658812Y-154065388D01*
X83573609Y-154039542D01*
X83565159Y-154038710D01*
X84287105Y-153316764D01*
X84303395Y-153303395D01*
X84316764Y-153287105D01*
X84316768Y-153287101D01*
X84356756Y-153238376D01*
X84396405Y-153164197D01*
X84405863Y-153133018D01*
X84420822Y-153083707D01*
X84427000Y-153020978D01*
X84427000Y-153020967D01*
X84429065Y-153000000D01*
X84427000Y-152979033D01*
X84427000Y-147020967D01*
X84429065Y-147000000D01*
X84427000Y-146979033D01*
X84427000Y-146979022D01*
X84420822Y-146916293D01*
X84396447Y-146835943D01*
X84396405Y-146835803D01*
X84356756Y-146761624D01*
X84316768Y-146712899D01*
X84316764Y-146712895D01*
X84303395Y-146696605D01*
X84287106Y-146683237D01*
X84282266Y-146678397D01*
X86273000Y-146678397D01*
X86273000Y-146821603D01*
X86300938Y-146962058D01*
X86355741Y-147094364D01*
X86435302Y-147213436D01*
X86536564Y-147314698D01*
X86655636Y-147394259D01*
X86787942Y-147449062D01*
X86928397Y-147477000D01*
X87071603Y-147477000D01*
X87212058Y-147449062D01*
X87344364Y-147394259D01*
X87463436Y-147314698D01*
X87522097Y-147256037D01*
X91273000Y-147256037D01*
X91273000Y-147743963D01*
X91368190Y-148222514D01*
X91554911Y-148673299D01*
X91825989Y-149078995D01*
X92171005Y-149424011D01*
X92576701Y-149695089D01*
X93027486Y-149881810D01*
X93506037Y-149977000D01*
X93993963Y-149977000D01*
X94472514Y-149881810D01*
X94923299Y-149695089D01*
X95328995Y-149424011D01*
X95674011Y-149078995D01*
X95945089Y-148673299D01*
X96131810Y-148222514D01*
X96227000Y-147743963D01*
X96227000Y-147256037D01*
X96131810Y-146777486D01*
X95945089Y-146326701D01*
X95674011Y-145921005D01*
X95328995Y-145575989D01*
X94923299Y-145304911D01*
X94472514Y-145118190D01*
X93993963Y-145023000D01*
X93506037Y-145023000D01*
X93027486Y-145118190D01*
X92576701Y-145304911D01*
X92171005Y-145575989D01*
X91825989Y-145921005D01*
X91554911Y-146326701D01*
X91368190Y-146777486D01*
X91273000Y-147256037D01*
X87522097Y-147256037D01*
X87564698Y-147213436D01*
X87644259Y-147094364D01*
X87699062Y-146962058D01*
X87727000Y-146821603D01*
X87727000Y-146678397D01*
X87699062Y-146537942D01*
X87644259Y-146405636D01*
X87564698Y-146286564D01*
X87463436Y-146185302D01*
X87344364Y-146105741D01*
X87212058Y-146050938D01*
X87071603Y-146023000D01*
X86928397Y-146023000D01*
X86787942Y-146050938D01*
X86655636Y-146105741D01*
X86536564Y-146185302D01*
X86435302Y-146286564D01*
X86355741Y-146405636D01*
X86300938Y-146537942D01*
X86273000Y-146678397D01*
X84282266Y-146678397D01*
X83520802Y-145916933D01*
X83506748Y-145846280D01*
X83467021Y-145750372D01*
X83409348Y-145664057D01*
X83335943Y-145590652D01*
X83249628Y-145532979D01*
X83153720Y-145493252D01*
X83051905Y-145473000D01*
X82948095Y-145473000D01*
X82846280Y-145493252D01*
X82750372Y-145532979D01*
X82664057Y-145590652D01*
X82590652Y-145664057D01*
X82532979Y-145750372D01*
X82493252Y-145846280D01*
X82473000Y-145948095D01*
X82473000Y-146051905D01*
X82493252Y-146153720D01*
X82532979Y-146249628D01*
X82590652Y-146335943D01*
X82664057Y-146409348D01*
X82750372Y-146467021D01*
X82846280Y-146506748D01*
X82916933Y-146520802D01*
X83039972Y-146643841D01*
X82979927Y-146703886D01*
X82922254Y-146790201D01*
X82882527Y-146886109D01*
X82862275Y-146987924D01*
X82862275Y-147091734D01*
X82882527Y-147193549D01*
X82922254Y-147289457D01*
X82962276Y-147349355D01*
X82962275Y-152333856D01*
X82616933Y-152679198D01*
X82546280Y-152693252D01*
X82450372Y-152732979D01*
X82364057Y-152790652D01*
X82290652Y-152864057D01*
X82274802Y-152887779D01*
X81925325Y-152538302D01*
X81911161Y-152521043D01*
X81907688Y-152518193D01*
X81918799Y-152501564D01*
X81973602Y-152369258D01*
X82001540Y-152228803D01*
X82001540Y-152085597D01*
X81990246Y-152028817D01*
X81998318Y-152002207D01*
X82013435Y-151952373D01*
X82022162Y-151863765D01*
X82019975Y-151841560D01*
X82019975Y-147342225D01*
X82031411Y-147334584D01*
X82132673Y-147233322D01*
X82212234Y-147114250D01*
X82267037Y-146981944D01*
X82294975Y-146841489D01*
X82294975Y-146698283D01*
X82267037Y-146557828D01*
X82212234Y-146425522D01*
X82132673Y-146306450D01*
X82031411Y-146205188D01*
X81912339Y-146125627D01*
X81780033Y-146070824D01*
X81639578Y-146042886D01*
X81496372Y-146042886D01*
X81355917Y-146070824D01*
X81334973Y-146079499D01*
X81334973Y-145905178D01*
X81337160Y-145882973D01*
X81328433Y-145794365D01*
X81302587Y-145709163D01*
X81286380Y-145678841D01*
X81260616Y-145630640D01*
X81204132Y-145561814D01*
X81186879Y-145547655D01*
X79147257Y-143508034D01*
X79153720Y-143506748D01*
X79249628Y-143467021D01*
X79309525Y-143427000D01*
X79979033Y-143427000D01*
X80000000Y-143429065D01*
X80020967Y-143427000D01*
X80020978Y-143427000D01*
X80083707Y-143420822D01*
X80164196Y-143396405D01*
X80238376Y-143356755D01*
X80303395Y-143303395D01*
X80316768Y-143287100D01*
X80583067Y-143020802D01*
X80653720Y-143006748D01*
X80749628Y-142967021D01*
X80835943Y-142909348D01*
X80909348Y-142835943D01*
X80967021Y-142749628D01*
X81006748Y-142653720D01*
X81027000Y-142551905D01*
X81027000Y-142448095D01*
X81006748Y-142346280D01*
X80967021Y-142250372D01*
X80909348Y-142164057D01*
X80835943Y-142090652D01*
X80749628Y-142032979D01*
X80670011Y-142000000D01*
X80749628Y-141967021D01*
X80835943Y-141909348D01*
X80909348Y-141835943D01*
X80955291Y-141767183D01*
X82225217Y-143037111D01*
X82238581Y-143053395D01*
X82254865Y-143066759D01*
X82254874Y-143066768D01*
X82303599Y-143106755D01*
X82323472Y-143117377D01*
X82377780Y-143146405D01*
X82458269Y-143170822D01*
X82520998Y-143177000D01*
X82521010Y-143177000D01*
X82541975Y-143179065D01*
X82562940Y-143177000D01*
X85940475Y-143177000D01*
X86000372Y-143217021D01*
X86096280Y-143256748D01*
X86198095Y-143277000D01*
X86301905Y-143277000D01*
X86403720Y-143256748D01*
X86499628Y-143217021D01*
X86585943Y-143159348D01*
X86659348Y-143085943D01*
X86717021Y-142999628D01*
X86756748Y-142903720D01*
X86777000Y-142801905D01*
X86777000Y-142698095D01*
X86756748Y-142596280D01*
X86717021Y-142500372D01*
X86659348Y-142414057D01*
X86585943Y-142340652D01*
X86499628Y-142282979D01*
X86403720Y-142243252D01*
X86301905Y-142223000D01*
X86198095Y-142223000D01*
X86096280Y-142243252D01*
X86000372Y-142282979D01*
X85940475Y-142323000D01*
X82718846Y-142323000D01*
X81443940Y-141048095D01*
X86273000Y-141048095D01*
X86273000Y-141151905D01*
X86293252Y-141253720D01*
X86332979Y-141349628D01*
X86390652Y-141435943D01*
X86464057Y-141509348D01*
X86550372Y-141567021D01*
X86646280Y-141606748D01*
X86748095Y-141627000D01*
X86851905Y-141627000D01*
X86953720Y-141606748D01*
X87049628Y-141567021D01*
X87135943Y-141509348D01*
X87209348Y-141435943D01*
X87267021Y-141349628D01*
X87306748Y-141253720D01*
X87327000Y-141151905D01*
X87327000Y-141048095D01*
X87325214Y-141039115D01*
X87327000Y-141020978D01*
X87327000Y-141020966D01*
X87329065Y-141000001D01*
X87327000Y-140979036D01*
X87327000Y-134709525D01*
X87367021Y-134649628D01*
X87406748Y-134553720D01*
X87427000Y-134451905D01*
X87427000Y-134348095D01*
X87406748Y-134246280D01*
X87367021Y-134150372D01*
X87309348Y-134064057D01*
X87235943Y-133990652D01*
X87149628Y-133932979D01*
X87053720Y-133893252D01*
X86951905Y-133873000D01*
X86848095Y-133873000D01*
X86746280Y-133893252D01*
X86650372Y-133932979D01*
X86564057Y-133990652D01*
X86490652Y-134064057D01*
X86432979Y-134150372D01*
X86393252Y-134246280D01*
X86373000Y-134348095D01*
X86373000Y-134451905D01*
X86393252Y-134553720D01*
X86432979Y-134649628D01*
X86473000Y-134709525D01*
X86473001Y-140684676D01*
X86464057Y-140690652D01*
X86390652Y-140764057D01*
X86332979Y-140850372D01*
X86293252Y-140946280D01*
X86273000Y-141048095D01*
X81443940Y-141048095D01*
X81416790Y-141020946D01*
X81402736Y-140950292D01*
X81363009Y-140854384D01*
X81305336Y-140768069D01*
X81231931Y-140694664D01*
X81145616Y-140636991D01*
X81049708Y-140597264D01*
X80947893Y-140577012D01*
X80844083Y-140577012D01*
X80742268Y-140597264D01*
X80646360Y-140636991D01*
X80560045Y-140694664D01*
X80486640Y-140768069D01*
X80440697Y-140836829D01*
X80427000Y-140823132D01*
X80427000Y-140809525D01*
X80467021Y-140749628D01*
X80506748Y-140653720D01*
X80527000Y-140551905D01*
X80527000Y-140448095D01*
X80506748Y-140346280D01*
X80467021Y-140250372D01*
X80409348Y-140164057D01*
X80396933Y-140151642D01*
X80414196Y-140146405D01*
X80488376Y-140106755D01*
X80553395Y-140053395D01*
X80566768Y-140037100D01*
X80583066Y-140020802D01*
X80653720Y-140006748D01*
X80749628Y-139967021D01*
X80835943Y-139909348D01*
X80909348Y-139835943D01*
X80967021Y-139749628D01*
X81006748Y-139653720D01*
X81027000Y-139551905D01*
X81027000Y-139448095D01*
X81006748Y-139346280D01*
X80967021Y-139250372D01*
X80909348Y-139164057D01*
X80835943Y-139090652D01*
X80749628Y-139032979D01*
X80653720Y-138993252D01*
X80551905Y-138973000D01*
X80448095Y-138973000D01*
X80346280Y-138993252D01*
X80250372Y-139032979D01*
X80164057Y-139090652D01*
X80090652Y-139164057D01*
X80032979Y-139250372D01*
X80002895Y-139323000D01*
X77809525Y-139323000D01*
X77749628Y-139282979D01*
X77653720Y-139243252D01*
X77551905Y-139223000D01*
X77448095Y-139223000D01*
X77346280Y-139243252D01*
X77250372Y-139282979D01*
X77164057Y-139340652D01*
X77090652Y-139414057D01*
X77032979Y-139500372D01*
X76993252Y-139596280D01*
X76973000Y-139698095D01*
X76973000Y-139801905D01*
X76993252Y-139903720D01*
X77032979Y-139999628D01*
X77090652Y-140085943D01*
X77164057Y-140159348D01*
X77250372Y-140217021D01*
X77346280Y-140256748D01*
X77448095Y-140277000D01*
X77551905Y-140277000D01*
X77653720Y-140256748D01*
X77749628Y-140217021D01*
X77809525Y-140177000D01*
X79582004Y-140177000D01*
X79532979Y-140250372D01*
X79493252Y-140346280D01*
X79473000Y-140448095D01*
X79473000Y-140551905D01*
X79493252Y-140653720D01*
X79532979Y-140749628D01*
X79573001Y-140809525D01*
X79573001Y-140979024D01*
X79570935Y-141000000D01*
X79573001Y-141020977D01*
X79573001Y-141020978D01*
X79579179Y-141083707D01*
X79603073Y-141162473D01*
X79603596Y-141164196D01*
X79643245Y-141238376D01*
X79683232Y-141287100D01*
X79683237Y-141287105D01*
X79696606Y-141303395D01*
X79712895Y-141316763D01*
X79979198Y-141583067D01*
X79993252Y-141653720D01*
X80032979Y-141749628D01*
X80090652Y-141835943D01*
X80164057Y-141909348D01*
X80250372Y-141967021D01*
X80329989Y-142000000D01*
X80250372Y-142032979D01*
X80164057Y-142090652D01*
X80090652Y-142164057D01*
X80032979Y-142250372D01*
X79993252Y-142346280D01*
X79979198Y-142416933D01*
X79823132Y-142573000D01*
X79309525Y-142573000D01*
X79249628Y-142532979D01*
X79153720Y-142493252D01*
X79051905Y-142473000D01*
X78948095Y-142473000D01*
X78846280Y-142493252D01*
X78750372Y-142532979D01*
X78664057Y-142590652D01*
X78590652Y-142664057D01*
X78532979Y-142750372D01*
X78493252Y-142846280D01*
X78491966Y-142852743D01*
X77224317Y-141585094D01*
X77227000Y-141571603D01*
X77227000Y-141428397D01*
X77199062Y-141287942D01*
X77144259Y-141155636D01*
X77064698Y-141036564D01*
X76963436Y-140935302D01*
X76844364Y-140855741D01*
X76712058Y-140800938D01*
X76571603Y-140773000D01*
X76428397Y-140773000D01*
X76287942Y-140800938D01*
X76155636Y-140855741D01*
X76036564Y-140935302D01*
X75935302Y-141036564D01*
X75875000Y-141126813D01*
X75814698Y-141036564D01*
X75713436Y-140935302D01*
X75594364Y-140855741D01*
X75462058Y-140800938D01*
X75321603Y-140773000D01*
X75178397Y-140773000D01*
X75037942Y-140800938D01*
X74905636Y-140855741D01*
X74786564Y-140935302D01*
X74685302Y-141036564D01*
X74605741Y-141155636D01*
X74550938Y-141287942D01*
X74523000Y-141428397D01*
X74523000Y-141571603D01*
X74531549Y-141614582D01*
X73073132Y-143073000D01*
X71020967Y-143073000D01*
X71000000Y-143070935D01*
X70979033Y-143073000D01*
X70979022Y-143073000D01*
X70916293Y-143079178D01*
X70835804Y-143103595D01*
X70810020Y-143117377D01*
X70761623Y-143143245D01*
X70712899Y-143183232D01*
X70712895Y-143183236D01*
X70696605Y-143196605D01*
X70683236Y-143212895D01*
X69897910Y-143998222D01*
X69881615Y-144011595D01*
X69868243Y-144027889D01*
X69868242Y-144027890D01*
X69828255Y-144076614D01*
X69810581Y-144109680D01*
X69788605Y-144150795D01*
X69764188Y-144231284D01*
X69758010Y-144294013D01*
X69758010Y-144294023D01*
X69755945Y-144314990D01*
X69758010Y-144335957D01*
X69758010Y-144660956D01*
X69721574Y-144685302D01*
X69620312Y-144786564D01*
X69540751Y-144905636D01*
X69485948Y-145037942D01*
X69458010Y-145178397D01*
X63727000Y-145178397D01*
X63699062Y-145037942D01*
X63644259Y-144905636D01*
X63564698Y-144786564D01*
X63463436Y-144685302D01*
X63344364Y-144605741D01*
X63212058Y-144550938D01*
X63071603Y-144523000D01*
X62928397Y-144523000D01*
X62787942Y-144550938D01*
X62655636Y-144605741D01*
X62536564Y-144685302D01*
X62435302Y-144786564D01*
X62355741Y-144905636D01*
X62300938Y-145037942D01*
X62273000Y-145178397D01*
X56617867Y-145178397D01*
X56472514Y-145118190D01*
X55993963Y-145023000D01*
X55506037Y-145023000D01*
X55027486Y-145118190D01*
X54576701Y-145304911D01*
X54171005Y-145575989D01*
X53825989Y-145921005D01*
X53554911Y-146326701D01*
X53368190Y-146777486D01*
X53273000Y-147256037D01*
X50173413Y-147256037D01*
X50228507Y-146585926D01*
X50451942Y-145696391D01*
X50817658Y-144855301D01*
X51315835Y-144085237D01*
X51933100Y-143406873D01*
X52652862Y-142838439D01*
X53455807Y-142395188D01*
X54320362Y-142089034D01*
X55230251Y-141926958D01*
X55739716Y-141902932D01*
X55750000Y-141903945D01*
X55828805Y-141896183D01*
X55904582Y-141873197D01*
X55974419Y-141835868D01*
X56035632Y-141785632D01*
X56085868Y-141724420D01*
X56099939Y-141698095D01*
X62473000Y-141698095D01*
X62473000Y-141801905D01*
X62493252Y-141903720D01*
X62532979Y-141999628D01*
X62590652Y-142085943D01*
X62664057Y-142159348D01*
X62750372Y-142217021D01*
X62846280Y-142256748D01*
X62916933Y-142270802D01*
X63433241Y-142787111D01*
X63446605Y-142803395D01*
X63462889Y-142816759D01*
X63462898Y-142816768D01*
X63511623Y-142856755D01*
X63551273Y-142877948D01*
X63585804Y-142896405D01*
X63666293Y-142920822D01*
X63729022Y-142927000D01*
X63729032Y-142927000D01*
X63749999Y-142929065D01*
X63770966Y-142927000D01*
X67900485Y-142927000D01*
X67960382Y-142967021D01*
X68056290Y-143006748D01*
X68158105Y-143027000D01*
X68261915Y-143027000D01*
X68363730Y-143006748D01*
X68459638Y-142967021D01*
X68545953Y-142909348D01*
X68619358Y-142835943D01*
X68677031Y-142749628D01*
X68716758Y-142653720D01*
X68737010Y-142551905D01*
X68737010Y-142448095D01*
X68716758Y-142346280D01*
X68677031Y-142250372D01*
X68619358Y-142164057D01*
X68545953Y-142090652D01*
X68459638Y-142032979D01*
X68363730Y-141993252D01*
X68261915Y-141973000D01*
X68158105Y-141973000D01*
X68056290Y-141993252D01*
X67960382Y-142032979D01*
X67900485Y-142073000D01*
X63926870Y-142073000D01*
X63520802Y-141666933D01*
X63506748Y-141596280D01*
X63467021Y-141500372D01*
X63409348Y-141414057D01*
X63335943Y-141340652D01*
X63249628Y-141282979D01*
X63153720Y-141243252D01*
X63051905Y-141223000D01*
X62948095Y-141223000D01*
X62846280Y-141243252D01*
X62750372Y-141282979D01*
X62664057Y-141340652D01*
X62590652Y-141414057D01*
X62532979Y-141500372D01*
X62493252Y-141596280D01*
X62473000Y-141698095D01*
X56099939Y-141698095D01*
X56123197Y-141654583D01*
X56146183Y-141578806D01*
X56152000Y-141519747D01*
X56152000Y-139428397D01*
X62523000Y-139428397D01*
X62523000Y-139571603D01*
X62550938Y-139712058D01*
X62605741Y-139844364D01*
X62685302Y-139963436D01*
X62786564Y-140064698D01*
X62905636Y-140144259D01*
X63037942Y-140199062D01*
X63178397Y-140227000D01*
X63321603Y-140227000D01*
X63462058Y-140199062D01*
X63594364Y-140144259D01*
X63713436Y-140064698D01*
X63814698Y-139963436D01*
X63894259Y-139844364D01*
X63949062Y-139712058D01*
X63977000Y-139571603D01*
X63977000Y-139428397D01*
X63949062Y-139287942D01*
X63894259Y-139155636D01*
X63814698Y-139036564D01*
X63713436Y-138935302D01*
X63594364Y-138855741D01*
X63462058Y-138800938D01*
X63321603Y-138773000D01*
X63178397Y-138773000D01*
X63037942Y-138800938D01*
X62905636Y-138855741D01*
X62786564Y-138935302D01*
X62685302Y-139036564D01*
X62605741Y-139155636D01*
X62550938Y-139287942D01*
X62523000Y-139428397D01*
X56152000Y-139428397D01*
X56152000Y-130928397D01*
X60273000Y-130928397D01*
X60273000Y-131071603D01*
X60300938Y-131212058D01*
X60355741Y-131344364D01*
X60435302Y-131463436D01*
X60536564Y-131564698D01*
X60655636Y-131644259D01*
X60787942Y-131699062D01*
X60928397Y-131727000D01*
X61071603Y-131727000D01*
X61212058Y-131699062D01*
X61344364Y-131644259D01*
X61463436Y-131564698D01*
X61564698Y-131463436D01*
X61644259Y-131344364D01*
X61699062Y-131212058D01*
X61727000Y-131071603D01*
X61727000Y-130928397D01*
X61724317Y-130914907D01*
X61735312Y-130903912D01*
X61735316Y-130903907D01*
X61912226Y-130726998D01*
X62826182Y-130726998D01*
X62800938Y-130787942D01*
X62773000Y-130928397D01*
X62773000Y-131071603D01*
X62800938Y-131212058D01*
X62855741Y-131344364D01*
X62935302Y-131463436D01*
X63036564Y-131564698D01*
X63155636Y-131644259D01*
X63287942Y-131699062D01*
X63428397Y-131727000D01*
X63571603Y-131727000D01*
X63712058Y-131699062D01*
X63844364Y-131644259D01*
X63963436Y-131564698D01*
X64064698Y-131463436D01*
X64144259Y-131344364D01*
X64199062Y-131212058D01*
X64227000Y-131071603D01*
X64227000Y-130928397D01*
X64199062Y-130787942D01*
X64173818Y-130726998D01*
X64326182Y-130726998D01*
X64300938Y-130787942D01*
X64273000Y-130928397D01*
X64273000Y-131071603D01*
X64300938Y-131212058D01*
X64355741Y-131344364D01*
X64435302Y-131463436D01*
X64536564Y-131564698D01*
X64548000Y-131572339D01*
X64548001Y-133312774D01*
X63096093Y-134764684D01*
X63096088Y-134764688D01*
X63085093Y-134775683D01*
X63071603Y-134773000D01*
X62928397Y-134773000D01*
X62787942Y-134800938D01*
X62655636Y-134855741D01*
X62536564Y-134935302D01*
X62435302Y-135036564D01*
X62355741Y-135155636D01*
X62300938Y-135287942D01*
X62273000Y-135428397D01*
X62273000Y-135571603D01*
X62300938Y-135712058D01*
X62355741Y-135844364D01*
X62435302Y-135963436D01*
X62536564Y-136064698D01*
X62655636Y-136144259D01*
X62787942Y-136199062D01*
X62928397Y-136227000D01*
X63071603Y-136227000D01*
X63212058Y-136199062D01*
X63344364Y-136144259D01*
X63463436Y-136064698D01*
X63564698Y-135963436D01*
X63644259Y-135844364D01*
X63699062Y-135712058D01*
X63727000Y-135571603D01*
X63727000Y-135428397D01*
X63724317Y-135414907D01*
X63735312Y-135403912D01*
X63735316Y-135403907D01*
X63891128Y-135248095D01*
X82073000Y-135248095D01*
X82073000Y-135351905D01*
X82093252Y-135453720D01*
X82132979Y-135549628D01*
X82173001Y-135609526D01*
X82173000Y-139479033D01*
X82170935Y-139500000D01*
X82173000Y-139520967D01*
X82173000Y-139520977D01*
X82179178Y-139583706D01*
X82203595Y-139664195D01*
X82204717Y-139666294D01*
X82243245Y-139738376D01*
X82252785Y-139750000D01*
X82296605Y-139803395D01*
X82312900Y-139816768D01*
X82679199Y-140183068D01*
X82693252Y-140253720D01*
X82732979Y-140349628D01*
X82790652Y-140435943D01*
X82864057Y-140509348D01*
X82950372Y-140567021D01*
X83046280Y-140606748D01*
X83148095Y-140627000D01*
X83251905Y-140627000D01*
X83353720Y-140606748D01*
X83449628Y-140567021D01*
X83535943Y-140509348D01*
X83609348Y-140435943D01*
X83667021Y-140349628D01*
X83706748Y-140253720D01*
X83727000Y-140151905D01*
X83727000Y-140048095D01*
X83706748Y-139946280D01*
X83667021Y-139850372D01*
X83609348Y-139764057D01*
X83535943Y-139690652D01*
X83449628Y-139632979D01*
X83353720Y-139593252D01*
X83283068Y-139579199D01*
X83027000Y-139323132D01*
X83027000Y-138678397D01*
X84523000Y-138678397D01*
X84523000Y-138821603D01*
X84550938Y-138962058D01*
X84605741Y-139094364D01*
X84685302Y-139213436D01*
X84786564Y-139314698D01*
X84905636Y-139394259D01*
X85037942Y-139449062D01*
X85178397Y-139477000D01*
X85321603Y-139477000D01*
X85462058Y-139449062D01*
X85594364Y-139394259D01*
X85713436Y-139314698D01*
X85814698Y-139213436D01*
X85894259Y-139094364D01*
X85949062Y-138962058D01*
X85977000Y-138821603D01*
X85977000Y-138678397D01*
X85949062Y-138537942D01*
X85894259Y-138405636D01*
X85814698Y-138286564D01*
X85713436Y-138185302D01*
X85594364Y-138105741D01*
X85462058Y-138050938D01*
X85321603Y-138023000D01*
X85178397Y-138023000D01*
X85037942Y-138050938D01*
X84905636Y-138105741D01*
X84786564Y-138185302D01*
X84685302Y-138286564D01*
X84605741Y-138405636D01*
X84550938Y-138537942D01*
X84523000Y-138678397D01*
X83027000Y-138678397D01*
X83027000Y-135609525D01*
X83067021Y-135549628D01*
X83106748Y-135453720D01*
X83127000Y-135351905D01*
X83127000Y-135248095D01*
X83106748Y-135146280D01*
X83067021Y-135050372D01*
X83009348Y-134964057D01*
X82935943Y-134890652D01*
X82849628Y-134832979D01*
X82753720Y-134793252D01*
X82651905Y-134773000D01*
X82548095Y-134773000D01*
X82446280Y-134793252D01*
X82350372Y-134832979D01*
X82264057Y-134890652D01*
X82190652Y-134964057D01*
X82132979Y-135050372D01*
X82093252Y-135146280D01*
X82073000Y-135248095D01*
X63891128Y-135248095D01*
X65303910Y-133835315D01*
X65321159Y-133821159D01*
X65377643Y-133752333D01*
X65419614Y-133673810D01*
X65445460Y-133588607D01*
X65452000Y-133522205D01*
X65454187Y-133500001D01*
X65452000Y-133477796D01*
X65452000Y-131572339D01*
X65463436Y-131564698D01*
X65564698Y-131463436D01*
X65644259Y-131344364D01*
X65662091Y-131301314D01*
X66775683Y-132414908D01*
X66773000Y-132428397D01*
X66773000Y-132571603D01*
X66800938Y-132712058D01*
X66855741Y-132844364D01*
X66935302Y-132963436D01*
X67036564Y-133064698D01*
X67155636Y-133144259D01*
X67287942Y-133199062D01*
X67428397Y-133227000D01*
X67571603Y-133227000D01*
X67712058Y-133199062D01*
X67844364Y-133144259D01*
X67963436Y-133064698D01*
X68064698Y-132963436D01*
X68144259Y-132844364D01*
X68199062Y-132712058D01*
X68227000Y-132571603D01*
X68227000Y-132428397D01*
X68199062Y-132287942D01*
X68144259Y-132155636D01*
X68064698Y-132036564D01*
X67963436Y-131935302D01*
X67844364Y-131855741D01*
X67712058Y-131800938D01*
X67571603Y-131773000D01*
X67428397Y-131773000D01*
X67414908Y-131775683D01*
X65757936Y-130118713D01*
X67004810Y-130118713D01*
X67913343Y-131027248D01*
X67910660Y-131040737D01*
X67910660Y-131183943D01*
X67938598Y-131324398D01*
X67993401Y-131456704D01*
X68072962Y-131575776D01*
X68174224Y-131677038D01*
X68293296Y-131756599D01*
X68425602Y-131811402D01*
X68566057Y-131839340D01*
X68709263Y-131839340D01*
X68849718Y-131811402D01*
X68982024Y-131756599D01*
X69101096Y-131677038D01*
X69202358Y-131575776D01*
X69281919Y-131456704D01*
X69336722Y-131324398D01*
X69364660Y-131183943D01*
X69364660Y-131040737D01*
X69336722Y-130900282D01*
X69281919Y-130767976D01*
X69202358Y-130648904D01*
X69101096Y-130547642D01*
X68982024Y-130468081D01*
X68849718Y-130413278D01*
X68709263Y-130385340D01*
X68566057Y-130385340D01*
X68552568Y-130388023D01*
X68307288Y-130142743D01*
X79911000Y-130142743D01*
X79911000Y-130357257D01*
X79952850Y-130567650D01*
X80034941Y-130765835D01*
X80154119Y-130944197D01*
X80305803Y-131095881D01*
X80484165Y-131215059D01*
X80682350Y-131297150D01*
X80892743Y-131339000D01*
X81107257Y-131339000D01*
X81317650Y-131297150D01*
X81515835Y-131215059D01*
X81694197Y-131095881D01*
X81845881Y-130944197D01*
X81965059Y-130765835D01*
X82047150Y-130567650D01*
X82089000Y-130357257D01*
X82089000Y-130142743D01*
X88911000Y-130142743D01*
X88911000Y-130357257D01*
X88952850Y-130567650D01*
X89034941Y-130765835D01*
X89154119Y-130944197D01*
X89305803Y-131095881D01*
X89484165Y-131215059D01*
X89682350Y-131297150D01*
X89892743Y-131339000D01*
X90107257Y-131339000D01*
X90317650Y-131297150D01*
X90515835Y-131215059D01*
X90694197Y-131095881D01*
X90845881Y-130944197D01*
X90965059Y-130765835D01*
X91047150Y-130567650D01*
X91089000Y-130357257D01*
X91089000Y-130142743D01*
X91047150Y-129932350D01*
X90965059Y-129734165D01*
X90845881Y-129555803D01*
X90694197Y-129404119D01*
X90515835Y-129284941D01*
X90317650Y-129202850D01*
X90107257Y-129161000D01*
X89892743Y-129161000D01*
X89682350Y-129202850D01*
X89484165Y-129284941D01*
X89305803Y-129404119D01*
X89154119Y-129555803D01*
X89034941Y-129734165D01*
X88952850Y-129932350D01*
X88911000Y-130142743D01*
X82089000Y-130142743D01*
X82047150Y-129932350D01*
X81965059Y-129734165D01*
X81845881Y-129555803D01*
X81694197Y-129404119D01*
X81515835Y-129284941D01*
X81317650Y-129202850D01*
X81107257Y-129161000D01*
X80892743Y-129161000D01*
X80682350Y-129202850D01*
X80484165Y-129284941D01*
X80305803Y-129404119D01*
X80154119Y-129555803D01*
X80034941Y-129734165D01*
X79952850Y-129932350D01*
X79911000Y-130142743D01*
X68307288Y-130142743D01*
X67527356Y-129362813D01*
X67513192Y-129345554D01*
X67444366Y-129289070D01*
X67365843Y-129247099D01*
X67280640Y-129221253D01*
X67214238Y-129214713D01*
X67192033Y-129212526D01*
X67169828Y-129214713D01*
X65686866Y-129214713D01*
X65654686Y-129166552D01*
X65553424Y-129065290D01*
X65434352Y-128985729D01*
X65302046Y-128930926D01*
X65161591Y-128902988D01*
X65018385Y-128902988D01*
X64877930Y-128930926D01*
X64745624Y-128985729D01*
X64626552Y-129065290D01*
X64525290Y-129166552D01*
X64445729Y-129285624D01*
X64390926Y-129417930D01*
X64362988Y-129558385D01*
X64362988Y-129701591D01*
X64387137Y-129822998D01*
X61747207Y-129822998D01*
X61725002Y-129820811D01*
X61636394Y-129829538D01*
X61551192Y-129855384D01*
X61472669Y-129897355D01*
X61403843Y-129953839D01*
X61389683Y-129971093D01*
X61096093Y-130264684D01*
X61096088Y-130264688D01*
X61085093Y-130275683D01*
X61071603Y-130273000D01*
X60928397Y-130273000D01*
X60787942Y-130300938D01*
X60655636Y-130355741D01*
X60536564Y-130435302D01*
X60435302Y-130536564D01*
X60355741Y-130655636D01*
X60300938Y-130787942D01*
X60273000Y-130928397D01*
X56152000Y-130928397D01*
X56152000Y-128769658D01*
X56184324Y-128439992D01*
X56274357Y-128141786D01*
X56420595Y-127866751D01*
X56617473Y-127625355D01*
X56857487Y-127426797D01*
X57131498Y-127278640D01*
X57429064Y-127186528D01*
X57757573Y-127152000D01*
X91730342Y-127152000D01*
X92060008Y-127184324D01*
M02*
