G04 #@! TF.GenerationSoftware,KiCad,Pcbnew,(5.1.0)-1*
G04 #@! TF.CreationDate,2019-05-10T19:05:15+02:00*
G04 #@! TF.ProjectId,nrf24l01-node,6e726632-346c-4303-912d-6e6f64652e6b,rev?*
G04 #@! TF.SameCoordinates,Original*
G04 #@! TF.FileFunction,Soldermask,Top*
G04 #@! TF.FilePolarity,Negative*
%FSLAX46Y46*%
G04 Gerber Fmt 4.6, Leading zero omitted, Abs format (unit mm)*
G04 Created by KiCad (PCBNEW (5.1.0)-1) date 2019-05-10 19:05:15*
%MOMM*%
%LPD*%
G04 APERTURE LIST*
%ADD10C,0.100000*%
%ADD11C,1.275000*%
%ADD12R,1.400000X0.700000*%
%ADD13C,4.700000*%
%ADD14R,0.820000X4.320000*%
%ADD15R,0.720000X2.120000*%
%ADD16R,0.800000X4.300000*%
%ADD17R,1.400000X2.200000*%
%ADD18R,0.700000X1.400000*%
%ADD19C,1.924000*%
%ADD20R,1.700000X0.650000*%
%ADD21R,0.650000X1.700000*%
%ADD22R,1.050000X1.460000*%
%ADD23R,1.924000X1.924000*%
%ADD24R,0.900000X0.750000*%
G04 APERTURE END LIST*
D10*
G36*
X77287493Y-156551535D02*
G01*
X77318435Y-156556125D01*
X77348778Y-156563725D01*
X77378230Y-156574263D01*
X77406508Y-156587638D01*
X77433338Y-156603719D01*
X77458463Y-156622353D01*
X77481640Y-156643360D01*
X77502647Y-156666537D01*
X77521281Y-156691662D01*
X77537362Y-156718492D01*
X77550737Y-156746770D01*
X77561275Y-156776222D01*
X77568875Y-156806565D01*
X77573465Y-156837507D01*
X77575000Y-156868750D01*
X77575000Y-157506250D01*
X77573465Y-157537493D01*
X77568875Y-157568435D01*
X77561275Y-157598778D01*
X77550737Y-157628230D01*
X77537362Y-157656508D01*
X77521281Y-157683338D01*
X77502647Y-157708463D01*
X77481640Y-157731640D01*
X77458463Y-157752647D01*
X77433338Y-157771281D01*
X77406508Y-157787362D01*
X77378230Y-157800737D01*
X77348778Y-157811275D01*
X77318435Y-157818875D01*
X77287493Y-157823465D01*
X77256250Y-157825000D01*
X76543750Y-157825000D01*
X76512507Y-157823465D01*
X76481565Y-157818875D01*
X76451222Y-157811275D01*
X76421770Y-157800737D01*
X76393492Y-157787362D01*
X76366662Y-157771281D01*
X76341537Y-157752647D01*
X76318360Y-157731640D01*
X76297353Y-157708463D01*
X76278719Y-157683338D01*
X76262638Y-157656508D01*
X76249263Y-157628230D01*
X76238725Y-157598778D01*
X76231125Y-157568435D01*
X76226535Y-157537493D01*
X76225000Y-157506250D01*
X76225000Y-156868750D01*
X76226535Y-156837507D01*
X76231125Y-156806565D01*
X76238725Y-156776222D01*
X76249263Y-156746770D01*
X76262638Y-156718492D01*
X76278719Y-156691662D01*
X76297353Y-156666537D01*
X76318360Y-156643360D01*
X76341537Y-156622353D01*
X76366662Y-156603719D01*
X76393492Y-156587638D01*
X76421770Y-156574263D01*
X76451222Y-156563725D01*
X76481565Y-156556125D01*
X76512507Y-156551535D01*
X76543750Y-156550000D01*
X77256250Y-156550000D01*
X77287493Y-156551535D01*
X77287493Y-156551535D01*
G37*
D11*
X76900000Y-157187500D03*
D10*
G36*
X77287493Y-154976535D02*
G01*
X77318435Y-154981125D01*
X77348778Y-154988725D01*
X77378230Y-154999263D01*
X77406508Y-155012638D01*
X77433338Y-155028719D01*
X77458463Y-155047353D01*
X77481640Y-155068360D01*
X77502647Y-155091537D01*
X77521281Y-155116662D01*
X77537362Y-155143492D01*
X77550737Y-155171770D01*
X77561275Y-155201222D01*
X77568875Y-155231565D01*
X77573465Y-155262507D01*
X77575000Y-155293750D01*
X77575000Y-155931250D01*
X77573465Y-155962493D01*
X77568875Y-155993435D01*
X77561275Y-156023778D01*
X77550737Y-156053230D01*
X77537362Y-156081508D01*
X77521281Y-156108338D01*
X77502647Y-156133463D01*
X77481640Y-156156640D01*
X77458463Y-156177647D01*
X77433338Y-156196281D01*
X77406508Y-156212362D01*
X77378230Y-156225737D01*
X77348778Y-156236275D01*
X77318435Y-156243875D01*
X77287493Y-156248465D01*
X77256250Y-156250000D01*
X76543750Y-156250000D01*
X76512507Y-156248465D01*
X76481565Y-156243875D01*
X76451222Y-156236275D01*
X76421770Y-156225737D01*
X76393492Y-156212362D01*
X76366662Y-156196281D01*
X76341537Y-156177647D01*
X76318360Y-156156640D01*
X76297353Y-156133463D01*
X76278719Y-156108338D01*
X76262638Y-156081508D01*
X76249263Y-156053230D01*
X76238725Y-156023778D01*
X76231125Y-155993435D01*
X76226535Y-155962493D01*
X76225000Y-155931250D01*
X76225000Y-155293750D01*
X76226535Y-155262507D01*
X76231125Y-155231565D01*
X76238725Y-155201222D01*
X76249263Y-155171770D01*
X76262638Y-155143492D01*
X76278719Y-155116662D01*
X76297353Y-155091537D01*
X76318360Y-155068360D01*
X76341537Y-155047353D01*
X76366662Y-155028719D01*
X76393492Y-155012638D01*
X76421770Y-154999263D01*
X76451222Y-154988725D01*
X76481565Y-154981125D01*
X76512507Y-154976535D01*
X76543750Y-154975000D01*
X77256250Y-154975000D01*
X77287493Y-154976535D01*
X77287493Y-154976535D01*
G37*
D11*
X76900000Y-155612500D03*
D10*
G36*
X71287493Y-154976535D02*
G01*
X71318435Y-154981125D01*
X71348778Y-154988725D01*
X71378230Y-154999263D01*
X71406508Y-155012638D01*
X71433338Y-155028719D01*
X71458463Y-155047353D01*
X71481640Y-155068360D01*
X71502647Y-155091537D01*
X71521281Y-155116662D01*
X71537362Y-155143492D01*
X71550737Y-155171770D01*
X71561275Y-155201222D01*
X71568875Y-155231565D01*
X71573465Y-155262507D01*
X71575000Y-155293750D01*
X71575000Y-155931250D01*
X71573465Y-155962493D01*
X71568875Y-155993435D01*
X71561275Y-156023778D01*
X71550737Y-156053230D01*
X71537362Y-156081508D01*
X71521281Y-156108338D01*
X71502647Y-156133463D01*
X71481640Y-156156640D01*
X71458463Y-156177647D01*
X71433338Y-156196281D01*
X71406508Y-156212362D01*
X71378230Y-156225737D01*
X71348778Y-156236275D01*
X71318435Y-156243875D01*
X71287493Y-156248465D01*
X71256250Y-156250000D01*
X70543750Y-156250000D01*
X70512507Y-156248465D01*
X70481565Y-156243875D01*
X70451222Y-156236275D01*
X70421770Y-156225737D01*
X70393492Y-156212362D01*
X70366662Y-156196281D01*
X70341537Y-156177647D01*
X70318360Y-156156640D01*
X70297353Y-156133463D01*
X70278719Y-156108338D01*
X70262638Y-156081508D01*
X70249263Y-156053230D01*
X70238725Y-156023778D01*
X70231125Y-155993435D01*
X70226535Y-155962493D01*
X70225000Y-155931250D01*
X70225000Y-155293750D01*
X70226535Y-155262507D01*
X70231125Y-155231565D01*
X70238725Y-155201222D01*
X70249263Y-155171770D01*
X70262638Y-155143492D01*
X70278719Y-155116662D01*
X70297353Y-155091537D01*
X70318360Y-155068360D01*
X70341537Y-155047353D01*
X70366662Y-155028719D01*
X70393492Y-155012638D01*
X70421770Y-154999263D01*
X70451222Y-154988725D01*
X70481565Y-154981125D01*
X70512507Y-154976535D01*
X70543750Y-154975000D01*
X71256250Y-154975000D01*
X71287493Y-154976535D01*
X71287493Y-154976535D01*
G37*
D11*
X70900000Y-155612500D03*
D10*
G36*
X71287493Y-156551535D02*
G01*
X71318435Y-156556125D01*
X71348778Y-156563725D01*
X71378230Y-156574263D01*
X71406508Y-156587638D01*
X71433338Y-156603719D01*
X71458463Y-156622353D01*
X71481640Y-156643360D01*
X71502647Y-156666537D01*
X71521281Y-156691662D01*
X71537362Y-156718492D01*
X71550737Y-156746770D01*
X71561275Y-156776222D01*
X71568875Y-156806565D01*
X71573465Y-156837507D01*
X71575000Y-156868750D01*
X71575000Y-157506250D01*
X71573465Y-157537493D01*
X71568875Y-157568435D01*
X71561275Y-157598778D01*
X71550737Y-157628230D01*
X71537362Y-157656508D01*
X71521281Y-157683338D01*
X71502647Y-157708463D01*
X71481640Y-157731640D01*
X71458463Y-157752647D01*
X71433338Y-157771281D01*
X71406508Y-157787362D01*
X71378230Y-157800737D01*
X71348778Y-157811275D01*
X71318435Y-157818875D01*
X71287493Y-157823465D01*
X71256250Y-157825000D01*
X70543750Y-157825000D01*
X70512507Y-157823465D01*
X70481565Y-157818875D01*
X70451222Y-157811275D01*
X70421770Y-157800737D01*
X70393492Y-157787362D01*
X70366662Y-157771281D01*
X70341537Y-157752647D01*
X70318360Y-157731640D01*
X70297353Y-157708463D01*
X70278719Y-157683338D01*
X70262638Y-157656508D01*
X70249263Y-157628230D01*
X70238725Y-157598778D01*
X70231125Y-157568435D01*
X70226535Y-157537493D01*
X70225000Y-157506250D01*
X70225000Y-156868750D01*
X70226535Y-156837507D01*
X70231125Y-156806565D01*
X70238725Y-156776222D01*
X70249263Y-156746770D01*
X70262638Y-156718492D01*
X70278719Y-156691662D01*
X70297353Y-156666537D01*
X70318360Y-156643360D01*
X70341537Y-156622353D01*
X70366662Y-156603719D01*
X70393492Y-156587638D01*
X70421770Y-156574263D01*
X70451222Y-156563725D01*
X70481565Y-156556125D01*
X70512507Y-156551535D01*
X70543750Y-156550000D01*
X71256250Y-156550000D01*
X71287493Y-156551535D01*
X71287493Y-156551535D01*
G37*
D11*
X70900000Y-157187500D03*
D10*
G36*
X84362493Y-133526535D02*
G01*
X84393435Y-133531125D01*
X84423778Y-133538725D01*
X84453230Y-133549263D01*
X84481508Y-133562638D01*
X84508338Y-133578719D01*
X84533463Y-133597353D01*
X84556640Y-133618360D01*
X84577647Y-133641537D01*
X84596281Y-133666662D01*
X84612362Y-133693492D01*
X84625737Y-133721770D01*
X84636275Y-133751222D01*
X84643875Y-133781565D01*
X84648465Y-133812507D01*
X84650000Y-133843750D01*
X84650000Y-134556250D01*
X84648465Y-134587493D01*
X84643875Y-134618435D01*
X84636275Y-134648778D01*
X84625737Y-134678230D01*
X84612362Y-134706508D01*
X84596281Y-134733338D01*
X84577647Y-134758463D01*
X84556640Y-134781640D01*
X84533463Y-134802647D01*
X84508338Y-134821281D01*
X84481508Y-134837362D01*
X84453230Y-134850737D01*
X84423778Y-134861275D01*
X84393435Y-134868875D01*
X84362493Y-134873465D01*
X84331250Y-134875000D01*
X83693750Y-134875000D01*
X83662507Y-134873465D01*
X83631565Y-134868875D01*
X83601222Y-134861275D01*
X83571770Y-134850737D01*
X83543492Y-134837362D01*
X83516662Y-134821281D01*
X83491537Y-134802647D01*
X83468360Y-134781640D01*
X83447353Y-134758463D01*
X83428719Y-134733338D01*
X83412638Y-134706508D01*
X83399263Y-134678230D01*
X83388725Y-134648778D01*
X83381125Y-134618435D01*
X83376535Y-134587493D01*
X83375000Y-134556250D01*
X83375000Y-133843750D01*
X83376535Y-133812507D01*
X83381125Y-133781565D01*
X83388725Y-133751222D01*
X83399263Y-133721770D01*
X83412638Y-133693492D01*
X83428719Y-133666662D01*
X83447353Y-133641537D01*
X83468360Y-133618360D01*
X83491537Y-133597353D01*
X83516662Y-133578719D01*
X83543492Y-133562638D01*
X83571770Y-133549263D01*
X83601222Y-133538725D01*
X83631565Y-133531125D01*
X83662507Y-133526535D01*
X83693750Y-133525000D01*
X84331250Y-133525000D01*
X84362493Y-133526535D01*
X84362493Y-133526535D01*
G37*
D11*
X84012500Y-134200000D03*
D10*
G36*
X85937493Y-133526535D02*
G01*
X85968435Y-133531125D01*
X85998778Y-133538725D01*
X86028230Y-133549263D01*
X86056508Y-133562638D01*
X86083338Y-133578719D01*
X86108463Y-133597353D01*
X86131640Y-133618360D01*
X86152647Y-133641537D01*
X86171281Y-133666662D01*
X86187362Y-133693492D01*
X86200737Y-133721770D01*
X86211275Y-133751222D01*
X86218875Y-133781565D01*
X86223465Y-133812507D01*
X86225000Y-133843750D01*
X86225000Y-134556250D01*
X86223465Y-134587493D01*
X86218875Y-134618435D01*
X86211275Y-134648778D01*
X86200737Y-134678230D01*
X86187362Y-134706508D01*
X86171281Y-134733338D01*
X86152647Y-134758463D01*
X86131640Y-134781640D01*
X86108463Y-134802647D01*
X86083338Y-134821281D01*
X86056508Y-134837362D01*
X86028230Y-134850737D01*
X85998778Y-134861275D01*
X85968435Y-134868875D01*
X85937493Y-134873465D01*
X85906250Y-134875000D01*
X85268750Y-134875000D01*
X85237507Y-134873465D01*
X85206565Y-134868875D01*
X85176222Y-134861275D01*
X85146770Y-134850737D01*
X85118492Y-134837362D01*
X85091662Y-134821281D01*
X85066537Y-134802647D01*
X85043360Y-134781640D01*
X85022353Y-134758463D01*
X85003719Y-134733338D01*
X84987638Y-134706508D01*
X84974263Y-134678230D01*
X84963725Y-134648778D01*
X84956125Y-134618435D01*
X84951535Y-134587493D01*
X84950000Y-134556250D01*
X84950000Y-133843750D01*
X84951535Y-133812507D01*
X84956125Y-133781565D01*
X84963725Y-133751222D01*
X84974263Y-133721770D01*
X84987638Y-133693492D01*
X85003719Y-133666662D01*
X85022353Y-133641537D01*
X85043360Y-133618360D01*
X85066537Y-133597353D01*
X85091662Y-133578719D01*
X85118492Y-133562638D01*
X85146770Y-133549263D01*
X85176222Y-133538725D01*
X85206565Y-133531125D01*
X85237507Y-133526535D01*
X85268750Y-133525000D01*
X85906250Y-133525000D01*
X85937493Y-133526535D01*
X85937493Y-133526535D01*
G37*
D11*
X85587500Y-134200000D03*
D12*
X73000000Y-155775000D03*
X73000000Y-156400000D03*
X73000000Y-157025000D03*
X74800000Y-157025000D03*
X74800000Y-156400000D03*
X74800000Y-155775000D03*
D13*
X55750000Y-147500000D03*
X93750000Y-147500000D03*
D10*
G36*
X68387493Y-149901535D02*
G01*
X68418435Y-149906125D01*
X68448778Y-149913725D01*
X68478230Y-149924263D01*
X68506508Y-149937638D01*
X68533338Y-149953719D01*
X68558463Y-149972353D01*
X68581640Y-149993360D01*
X68602647Y-150016537D01*
X68621281Y-150041662D01*
X68637362Y-150068492D01*
X68650737Y-150096770D01*
X68661275Y-150126222D01*
X68668875Y-150156565D01*
X68673465Y-150187507D01*
X68675000Y-150218750D01*
X68675000Y-150856250D01*
X68673465Y-150887493D01*
X68668875Y-150918435D01*
X68661275Y-150948778D01*
X68650737Y-150978230D01*
X68637362Y-151006508D01*
X68621281Y-151033338D01*
X68602647Y-151058463D01*
X68581640Y-151081640D01*
X68558463Y-151102647D01*
X68533338Y-151121281D01*
X68506508Y-151137362D01*
X68478230Y-151150737D01*
X68448778Y-151161275D01*
X68418435Y-151168875D01*
X68387493Y-151173465D01*
X68356250Y-151175000D01*
X67643750Y-151175000D01*
X67612507Y-151173465D01*
X67581565Y-151168875D01*
X67551222Y-151161275D01*
X67521770Y-151150737D01*
X67493492Y-151137362D01*
X67466662Y-151121281D01*
X67441537Y-151102647D01*
X67418360Y-151081640D01*
X67397353Y-151058463D01*
X67378719Y-151033338D01*
X67362638Y-151006508D01*
X67349263Y-150978230D01*
X67338725Y-150948778D01*
X67331125Y-150918435D01*
X67326535Y-150887493D01*
X67325000Y-150856250D01*
X67325000Y-150218750D01*
X67326535Y-150187507D01*
X67331125Y-150156565D01*
X67338725Y-150126222D01*
X67349263Y-150096770D01*
X67362638Y-150068492D01*
X67378719Y-150041662D01*
X67397353Y-150016537D01*
X67418360Y-149993360D01*
X67441537Y-149972353D01*
X67466662Y-149953719D01*
X67493492Y-149937638D01*
X67521770Y-149924263D01*
X67551222Y-149913725D01*
X67581565Y-149906125D01*
X67612507Y-149901535D01*
X67643750Y-149900000D01*
X68356250Y-149900000D01*
X68387493Y-149901535D01*
X68387493Y-149901535D01*
G37*
D11*
X68000000Y-150537500D03*
D10*
G36*
X68387493Y-148326535D02*
G01*
X68418435Y-148331125D01*
X68448778Y-148338725D01*
X68478230Y-148349263D01*
X68506508Y-148362638D01*
X68533338Y-148378719D01*
X68558463Y-148397353D01*
X68581640Y-148418360D01*
X68602647Y-148441537D01*
X68621281Y-148466662D01*
X68637362Y-148493492D01*
X68650737Y-148521770D01*
X68661275Y-148551222D01*
X68668875Y-148581565D01*
X68673465Y-148612507D01*
X68675000Y-148643750D01*
X68675000Y-149281250D01*
X68673465Y-149312493D01*
X68668875Y-149343435D01*
X68661275Y-149373778D01*
X68650737Y-149403230D01*
X68637362Y-149431508D01*
X68621281Y-149458338D01*
X68602647Y-149483463D01*
X68581640Y-149506640D01*
X68558463Y-149527647D01*
X68533338Y-149546281D01*
X68506508Y-149562362D01*
X68478230Y-149575737D01*
X68448778Y-149586275D01*
X68418435Y-149593875D01*
X68387493Y-149598465D01*
X68356250Y-149600000D01*
X67643750Y-149600000D01*
X67612507Y-149598465D01*
X67581565Y-149593875D01*
X67551222Y-149586275D01*
X67521770Y-149575737D01*
X67493492Y-149562362D01*
X67466662Y-149546281D01*
X67441537Y-149527647D01*
X67418360Y-149506640D01*
X67397353Y-149483463D01*
X67378719Y-149458338D01*
X67362638Y-149431508D01*
X67349263Y-149403230D01*
X67338725Y-149373778D01*
X67331125Y-149343435D01*
X67326535Y-149312493D01*
X67325000Y-149281250D01*
X67325000Y-148643750D01*
X67326535Y-148612507D01*
X67331125Y-148581565D01*
X67338725Y-148551222D01*
X67349263Y-148521770D01*
X67362638Y-148493492D01*
X67378719Y-148466662D01*
X67397353Y-148441537D01*
X67418360Y-148418360D01*
X67441537Y-148397353D01*
X67466662Y-148378719D01*
X67493492Y-148362638D01*
X67521770Y-148349263D01*
X67551222Y-148338725D01*
X67581565Y-148331125D01*
X67612507Y-148326535D01*
X67643750Y-148325000D01*
X68356250Y-148325000D01*
X68387493Y-148326535D01*
X68387493Y-148326535D01*
G37*
D11*
X68000000Y-148962500D03*
D10*
G36*
X62387493Y-138576535D02*
G01*
X62418435Y-138581125D01*
X62448778Y-138588725D01*
X62478230Y-138599263D01*
X62506508Y-138612638D01*
X62533338Y-138628719D01*
X62558463Y-138647353D01*
X62581640Y-138668360D01*
X62602647Y-138691537D01*
X62621281Y-138716662D01*
X62637362Y-138743492D01*
X62650737Y-138771770D01*
X62661275Y-138801222D01*
X62668875Y-138831565D01*
X62673465Y-138862507D01*
X62675000Y-138893750D01*
X62675000Y-139606250D01*
X62673465Y-139637493D01*
X62668875Y-139668435D01*
X62661275Y-139698778D01*
X62650737Y-139728230D01*
X62637362Y-139756508D01*
X62621281Y-139783338D01*
X62602647Y-139808463D01*
X62581640Y-139831640D01*
X62558463Y-139852647D01*
X62533338Y-139871281D01*
X62506508Y-139887362D01*
X62478230Y-139900737D01*
X62448778Y-139911275D01*
X62418435Y-139918875D01*
X62387493Y-139923465D01*
X62356250Y-139925000D01*
X61718750Y-139925000D01*
X61687507Y-139923465D01*
X61656565Y-139918875D01*
X61626222Y-139911275D01*
X61596770Y-139900737D01*
X61568492Y-139887362D01*
X61541662Y-139871281D01*
X61516537Y-139852647D01*
X61493360Y-139831640D01*
X61472353Y-139808463D01*
X61453719Y-139783338D01*
X61437638Y-139756508D01*
X61424263Y-139728230D01*
X61413725Y-139698778D01*
X61406125Y-139668435D01*
X61401535Y-139637493D01*
X61400000Y-139606250D01*
X61400000Y-138893750D01*
X61401535Y-138862507D01*
X61406125Y-138831565D01*
X61413725Y-138801222D01*
X61424263Y-138771770D01*
X61437638Y-138743492D01*
X61453719Y-138716662D01*
X61472353Y-138691537D01*
X61493360Y-138668360D01*
X61516537Y-138647353D01*
X61541662Y-138628719D01*
X61568492Y-138612638D01*
X61596770Y-138599263D01*
X61626222Y-138588725D01*
X61656565Y-138581125D01*
X61687507Y-138576535D01*
X61718750Y-138575000D01*
X62356250Y-138575000D01*
X62387493Y-138576535D01*
X62387493Y-138576535D01*
G37*
D11*
X62037500Y-139250000D03*
D10*
G36*
X60812493Y-138576535D02*
G01*
X60843435Y-138581125D01*
X60873778Y-138588725D01*
X60903230Y-138599263D01*
X60931508Y-138612638D01*
X60958338Y-138628719D01*
X60983463Y-138647353D01*
X61006640Y-138668360D01*
X61027647Y-138691537D01*
X61046281Y-138716662D01*
X61062362Y-138743492D01*
X61075737Y-138771770D01*
X61086275Y-138801222D01*
X61093875Y-138831565D01*
X61098465Y-138862507D01*
X61100000Y-138893750D01*
X61100000Y-139606250D01*
X61098465Y-139637493D01*
X61093875Y-139668435D01*
X61086275Y-139698778D01*
X61075737Y-139728230D01*
X61062362Y-139756508D01*
X61046281Y-139783338D01*
X61027647Y-139808463D01*
X61006640Y-139831640D01*
X60983463Y-139852647D01*
X60958338Y-139871281D01*
X60931508Y-139887362D01*
X60903230Y-139900737D01*
X60873778Y-139911275D01*
X60843435Y-139918875D01*
X60812493Y-139923465D01*
X60781250Y-139925000D01*
X60143750Y-139925000D01*
X60112507Y-139923465D01*
X60081565Y-139918875D01*
X60051222Y-139911275D01*
X60021770Y-139900737D01*
X59993492Y-139887362D01*
X59966662Y-139871281D01*
X59941537Y-139852647D01*
X59918360Y-139831640D01*
X59897353Y-139808463D01*
X59878719Y-139783338D01*
X59862638Y-139756508D01*
X59849263Y-139728230D01*
X59838725Y-139698778D01*
X59831125Y-139668435D01*
X59826535Y-139637493D01*
X59825000Y-139606250D01*
X59825000Y-138893750D01*
X59826535Y-138862507D01*
X59831125Y-138831565D01*
X59838725Y-138801222D01*
X59849263Y-138771770D01*
X59862638Y-138743492D01*
X59878719Y-138716662D01*
X59897353Y-138691537D01*
X59918360Y-138668360D01*
X59941537Y-138647353D01*
X59966662Y-138628719D01*
X59993492Y-138612638D01*
X60021770Y-138599263D01*
X60051222Y-138588725D01*
X60081565Y-138581125D01*
X60112507Y-138576535D01*
X60143750Y-138575000D01*
X60781250Y-138575000D01*
X60812493Y-138576535D01*
X60812493Y-138576535D01*
G37*
D11*
X60462500Y-139250000D03*
D12*
X60600000Y-142625000D03*
X60600000Y-143250000D03*
X60600000Y-143875000D03*
X62400000Y-143875000D03*
X62400000Y-143250000D03*
X62400000Y-142625000D03*
D10*
G36*
X64812493Y-150326535D02*
G01*
X64843435Y-150331125D01*
X64873778Y-150338725D01*
X64903230Y-150349263D01*
X64931508Y-150362638D01*
X64958338Y-150378719D01*
X64983463Y-150397353D01*
X65006640Y-150418360D01*
X65027647Y-150441537D01*
X65046281Y-150466662D01*
X65062362Y-150493492D01*
X65075737Y-150521770D01*
X65086275Y-150551222D01*
X65093875Y-150581565D01*
X65098465Y-150612507D01*
X65100000Y-150643750D01*
X65100000Y-151356250D01*
X65098465Y-151387493D01*
X65093875Y-151418435D01*
X65086275Y-151448778D01*
X65075737Y-151478230D01*
X65062362Y-151506508D01*
X65046281Y-151533338D01*
X65027647Y-151558463D01*
X65006640Y-151581640D01*
X64983463Y-151602647D01*
X64958338Y-151621281D01*
X64931508Y-151637362D01*
X64903230Y-151650737D01*
X64873778Y-151661275D01*
X64843435Y-151668875D01*
X64812493Y-151673465D01*
X64781250Y-151675000D01*
X64143750Y-151675000D01*
X64112507Y-151673465D01*
X64081565Y-151668875D01*
X64051222Y-151661275D01*
X64021770Y-151650737D01*
X63993492Y-151637362D01*
X63966662Y-151621281D01*
X63941537Y-151602647D01*
X63918360Y-151581640D01*
X63897353Y-151558463D01*
X63878719Y-151533338D01*
X63862638Y-151506508D01*
X63849263Y-151478230D01*
X63838725Y-151448778D01*
X63831125Y-151418435D01*
X63826535Y-151387493D01*
X63825000Y-151356250D01*
X63825000Y-150643750D01*
X63826535Y-150612507D01*
X63831125Y-150581565D01*
X63838725Y-150551222D01*
X63849263Y-150521770D01*
X63862638Y-150493492D01*
X63878719Y-150466662D01*
X63897353Y-150441537D01*
X63918360Y-150418360D01*
X63941537Y-150397353D01*
X63966662Y-150378719D01*
X63993492Y-150362638D01*
X64021770Y-150349263D01*
X64051222Y-150338725D01*
X64081565Y-150331125D01*
X64112507Y-150326535D01*
X64143750Y-150325000D01*
X64781250Y-150325000D01*
X64812493Y-150326535D01*
X64812493Y-150326535D01*
G37*
D11*
X64462500Y-151000000D03*
D10*
G36*
X66387493Y-150326535D02*
G01*
X66418435Y-150331125D01*
X66448778Y-150338725D01*
X66478230Y-150349263D01*
X66506508Y-150362638D01*
X66533338Y-150378719D01*
X66558463Y-150397353D01*
X66581640Y-150418360D01*
X66602647Y-150441537D01*
X66621281Y-150466662D01*
X66637362Y-150493492D01*
X66650737Y-150521770D01*
X66661275Y-150551222D01*
X66668875Y-150581565D01*
X66673465Y-150612507D01*
X66675000Y-150643750D01*
X66675000Y-151356250D01*
X66673465Y-151387493D01*
X66668875Y-151418435D01*
X66661275Y-151448778D01*
X66650737Y-151478230D01*
X66637362Y-151506508D01*
X66621281Y-151533338D01*
X66602647Y-151558463D01*
X66581640Y-151581640D01*
X66558463Y-151602647D01*
X66533338Y-151621281D01*
X66506508Y-151637362D01*
X66478230Y-151650737D01*
X66448778Y-151661275D01*
X66418435Y-151668875D01*
X66387493Y-151673465D01*
X66356250Y-151675000D01*
X65718750Y-151675000D01*
X65687507Y-151673465D01*
X65656565Y-151668875D01*
X65626222Y-151661275D01*
X65596770Y-151650737D01*
X65568492Y-151637362D01*
X65541662Y-151621281D01*
X65516537Y-151602647D01*
X65493360Y-151581640D01*
X65472353Y-151558463D01*
X65453719Y-151533338D01*
X65437638Y-151506508D01*
X65424263Y-151478230D01*
X65413725Y-151448778D01*
X65406125Y-151418435D01*
X65401535Y-151387493D01*
X65400000Y-151356250D01*
X65400000Y-150643750D01*
X65401535Y-150612507D01*
X65406125Y-150581565D01*
X65413725Y-150551222D01*
X65424263Y-150521770D01*
X65437638Y-150493492D01*
X65453719Y-150466662D01*
X65472353Y-150441537D01*
X65493360Y-150418360D01*
X65516537Y-150397353D01*
X65541662Y-150378719D01*
X65568492Y-150362638D01*
X65596770Y-150349263D01*
X65626222Y-150338725D01*
X65656565Y-150331125D01*
X65687507Y-150326535D01*
X65718750Y-150325000D01*
X66356250Y-150325000D01*
X66387493Y-150326535D01*
X66387493Y-150326535D01*
G37*
D11*
X66037500Y-151000000D03*
D10*
G36*
X66387493Y-148326535D02*
G01*
X66418435Y-148331125D01*
X66448778Y-148338725D01*
X66478230Y-148349263D01*
X66506508Y-148362638D01*
X66533338Y-148378719D01*
X66558463Y-148397353D01*
X66581640Y-148418360D01*
X66602647Y-148441537D01*
X66621281Y-148466662D01*
X66637362Y-148493492D01*
X66650737Y-148521770D01*
X66661275Y-148551222D01*
X66668875Y-148581565D01*
X66673465Y-148612507D01*
X66675000Y-148643750D01*
X66675000Y-149356250D01*
X66673465Y-149387493D01*
X66668875Y-149418435D01*
X66661275Y-149448778D01*
X66650737Y-149478230D01*
X66637362Y-149506508D01*
X66621281Y-149533338D01*
X66602647Y-149558463D01*
X66581640Y-149581640D01*
X66558463Y-149602647D01*
X66533338Y-149621281D01*
X66506508Y-149637362D01*
X66478230Y-149650737D01*
X66448778Y-149661275D01*
X66418435Y-149668875D01*
X66387493Y-149673465D01*
X66356250Y-149675000D01*
X65718750Y-149675000D01*
X65687507Y-149673465D01*
X65656565Y-149668875D01*
X65626222Y-149661275D01*
X65596770Y-149650737D01*
X65568492Y-149637362D01*
X65541662Y-149621281D01*
X65516537Y-149602647D01*
X65493360Y-149581640D01*
X65472353Y-149558463D01*
X65453719Y-149533338D01*
X65437638Y-149506508D01*
X65424263Y-149478230D01*
X65413725Y-149448778D01*
X65406125Y-149418435D01*
X65401535Y-149387493D01*
X65400000Y-149356250D01*
X65400000Y-148643750D01*
X65401535Y-148612507D01*
X65406125Y-148581565D01*
X65413725Y-148551222D01*
X65424263Y-148521770D01*
X65437638Y-148493492D01*
X65453719Y-148466662D01*
X65472353Y-148441537D01*
X65493360Y-148418360D01*
X65516537Y-148397353D01*
X65541662Y-148378719D01*
X65568492Y-148362638D01*
X65596770Y-148349263D01*
X65626222Y-148338725D01*
X65656565Y-148331125D01*
X65687507Y-148326535D01*
X65718750Y-148325000D01*
X66356250Y-148325000D01*
X66387493Y-148326535D01*
X66387493Y-148326535D01*
G37*
D11*
X66037500Y-149000000D03*
D10*
G36*
X64812493Y-148326535D02*
G01*
X64843435Y-148331125D01*
X64873778Y-148338725D01*
X64903230Y-148349263D01*
X64931508Y-148362638D01*
X64958338Y-148378719D01*
X64983463Y-148397353D01*
X65006640Y-148418360D01*
X65027647Y-148441537D01*
X65046281Y-148466662D01*
X65062362Y-148493492D01*
X65075737Y-148521770D01*
X65086275Y-148551222D01*
X65093875Y-148581565D01*
X65098465Y-148612507D01*
X65100000Y-148643750D01*
X65100000Y-149356250D01*
X65098465Y-149387493D01*
X65093875Y-149418435D01*
X65086275Y-149448778D01*
X65075737Y-149478230D01*
X65062362Y-149506508D01*
X65046281Y-149533338D01*
X65027647Y-149558463D01*
X65006640Y-149581640D01*
X64983463Y-149602647D01*
X64958338Y-149621281D01*
X64931508Y-149637362D01*
X64903230Y-149650737D01*
X64873778Y-149661275D01*
X64843435Y-149668875D01*
X64812493Y-149673465D01*
X64781250Y-149675000D01*
X64143750Y-149675000D01*
X64112507Y-149673465D01*
X64081565Y-149668875D01*
X64051222Y-149661275D01*
X64021770Y-149650737D01*
X63993492Y-149637362D01*
X63966662Y-149621281D01*
X63941537Y-149602647D01*
X63918360Y-149581640D01*
X63897353Y-149558463D01*
X63878719Y-149533338D01*
X63862638Y-149506508D01*
X63849263Y-149478230D01*
X63838725Y-149448778D01*
X63831125Y-149418435D01*
X63826535Y-149387493D01*
X63825000Y-149356250D01*
X63825000Y-148643750D01*
X63826535Y-148612507D01*
X63831125Y-148581565D01*
X63838725Y-148551222D01*
X63849263Y-148521770D01*
X63862638Y-148493492D01*
X63878719Y-148466662D01*
X63897353Y-148441537D01*
X63918360Y-148418360D01*
X63941537Y-148397353D01*
X63966662Y-148378719D01*
X63993492Y-148362638D01*
X64021770Y-148349263D01*
X64051222Y-148338725D01*
X64081565Y-148331125D01*
X64112507Y-148326535D01*
X64143750Y-148325000D01*
X64781250Y-148325000D01*
X64812493Y-148326535D01*
X64812493Y-148326535D01*
G37*
D11*
X64462500Y-149000000D03*
D14*
X66000000Y-130650000D03*
D15*
X65000000Y-132750000D03*
X64000000Y-132750000D03*
X63000000Y-132750000D03*
X62000000Y-132750000D03*
X61000000Y-132750000D03*
X60000000Y-132750000D03*
D16*
X59000000Y-130650000D03*
D10*
G36*
X76387493Y-127826535D02*
G01*
X76418435Y-127831125D01*
X76448778Y-127838725D01*
X76478230Y-127849263D01*
X76506508Y-127862638D01*
X76533338Y-127878719D01*
X76558463Y-127897353D01*
X76581640Y-127918360D01*
X76602647Y-127941537D01*
X76621281Y-127966662D01*
X76637362Y-127993492D01*
X76650737Y-128021770D01*
X76661275Y-128051222D01*
X76668875Y-128081565D01*
X76673465Y-128112507D01*
X76675000Y-128143750D01*
X76675000Y-128781250D01*
X76673465Y-128812493D01*
X76668875Y-128843435D01*
X76661275Y-128873778D01*
X76650737Y-128903230D01*
X76637362Y-128931508D01*
X76621281Y-128958338D01*
X76602647Y-128983463D01*
X76581640Y-129006640D01*
X76558463Y-129027647D01*
X76533338Y-129046281D01*
X76506508Y-129062362D01*
X76478230Y-129075737D01*
X76448778Y-129086275D01*
X76418435Y-129093875D01*
X76387493Y-129098465D01*
X76356250Y-129100000D01*
X75643750Y-129100000D01*
X75612507Y-129098465D01*
X75581565Y-129093875D01*
X75551222Y-129086275D01*
X75521770Y-129075737D01*
X75493492Y-129062362D01*
X75466662Y-129046281D01*
X75441537Y-129027647D01*
X75418360Y-129006640D01*
X75397353Y-128983463D01*
X75378719Y-128958338D01*
X75362638Y-128931508D01*
X75349263Y-128903230D01*
X75338725Y-128873778D01*
X75331125Y-128843435D01*
X75326535Y-128812493D01*
X75325000Y-128781250D01*
X75325000Y-128143750D01*
X75326535Y-128112507D01*
X75331125Y-128081565D01*
X75338725Y-128051222D01*
X75349263Y-128021770D01*
X75362638Y-127993492D01*
X75378719Y-127966662D01*
X75397353Y-127941537D01*
X75418360Y-127918360D01*
X75441537Y-127897353D01*
X75466662Y-127878719D01*
X75493492Y-127862638D01*
X75521770Y-127849263D01*
X75551222Y-127838725D01*
X75581565Y-127831125D01*
X75612507Y-127826535D01*
X75643750Y-127825000D01*
X76356250Y-127825000D01*
X76387493Y-127826535D01*
X76387493Y-127826535D01*
G37*
D11*
X76000000Y-128462500D03*
D10*
G36*
X76387493Y-129401535D02*
G01*
X76418435Y-129406125D01*
X76448778Y-129413725D01*
X76478230Y-129424263D01*
X76506508Y-129437638D01*
X76533338Y-129453719D01*
X76558463Y-129472353D01*
X76581640Y-129493360D01*
X76602647Y-129516537D01*
X76621281Y-129541662D01*
X76637362Y-129568492D01*
X76650737Y-129596770D01*
X76661275Y-129626222D01*
X76668875Y-129656565D01*
X76673465Y-129687507D01*
X76675000Y-129718750D01*
X76675000Y-130356250D01*
X76673465Y-130387493D01*
X76668875Y-130418435D01*
X76661275Y-130448778D01*
X76650737Y-130478230D01*
X76637362Y-130506508D01*
X76621281Y-130533338D01*
X76602647Y-130558463D01*
X76581640Y-130581640D01*
X76558463Y-130602647D01*
X76533338Y-130621281D01*
X76506508Y-130637362D01*
X76478230Y-130650737D01*
X76448778Y-130661275D01*
X76418435Y-130668875D01*
X76387493Y-130673465D01*
X76356250Y-130675000D01*
X75643750Y-130675000D01*
X75612507Y-130673465D01*
X75581565Y-130668875D01*
X75551222Y-130661275D01*
X75521770Y-130650737D01*
X75493492Y-130637362D01*
X75466662Y-130621281D01*
X75441537Y-130602647D01*
X75418360Y-130581640D01*
X75397353Y-130558463D01*
X75378719Y-130533338D01*
X75362638Y-130506508D01*
X75349263Y-130478230D01*
X75338725Y-130448778D01*
X75331125Y-130418435D01*
X75326535Y-130387493D01*
X75325000Y-130356250D01*
X75325000Y-129718750D01*
X75326535Y-129687507D01*
X75331125Y-129656565D01*
X75338725Y-129626222D01*
X75349263Y-129596770D01*
X75362638Y-129568492D01*
X75378719Y-129541662D01*
X75397353Y-129516537D01*
X75418360Y-129493360D01*
X75441537Y-129472353D01*
X75466662Y-129453719D01*
X75493492Y-129437638D01*
X75521770Y-129424263D01*
X75551222Y-129413725D01*
X75581565Y-129406125D01*
X75612507Y-129401535D01*
X75643750Y-129400000D01*
X76356250Y-129400000D01*
X76387493Y-129401535D01*
X76387493Y-129401535D01*
G37*
D11*
X76000000Y-130037500D03*
D10*
G36*
X57217494Y-138576535D02*
G01*
X57248436Y-138581125D01*
X57278779Y-138588725D01*
X57308231Y-138599263D01*
X57336509Y-138612638D01*
X57363339Y-138628719D01*
X57388464Y-138647353D01*
X57411641Y-138668360D01*
X57432648Y-138691537D01*
X57451282Y-138716662D01*
X57467363Y-138743492D01*
X57480738Y-138771770D01*
X57491276Y-138801222D01*
X57498876Y-138831565D01*
X57503466Y-138862507D01*
X57505001Y-138893750D01*
X57505001Y-139606250D01*
X57503466Y-139637493D01*
X57498876Y-139668435D01*
X57491276Y-139698778D01*
X57480738Y-139728230D01*
X57467363Y-139756508D01*
X57451282Y-139783338D01*
X57432648Y-139808463D01*
X57411641Y-139831640D01*
X57388464Y-139852647D01*
X57363339Y-139871281D01*
X57336509Y-139887362D01*
X57308231Y-139900737D01*
X57278779Y-139911275D01*
X57248436Y-139918875D01*
X57217494Y-139923465D01*
X57186251Y-139925000D01*
X56548751Y-139925000D01*
X56517508Y-139923465D01*
X56486566Y-139918875D01*
X56456223Y-139911275D01*
X56426771Y-139900737D01*
X56398493Y-139887362D01*
X56371663Y-139871281D01*
X56346538Y-139852647D01*
X56323361Y-139831640D01*
X56302354Y-139808463D01*
X56283720Y-139783338D01*
X56267639Y-139756508D01*
X56254264Y-139728230D01*
X56243726Y-139698778D01*
X56236126Y-139668435D01*
X56231536Y-139637493D01*
X56230001Y-139606250D01*
X56230001Y-138893750D01*
X56231536Y-138862507D01*
X56236126Y-138831565D01*
X56243726Y-138801222D01*
X56254264Y-138771770D01*
X56267639Y-138743492D01*
X56283720Y-138716662D01*
X56302354Y-138691537D01*
X56323361Y-138668360D01*
X56346538Y-138647353D01*
X56371663Y-138628719D01*
X56398493Y-138612638D01*
X56426771Y-138599263D01*
X56456223Y-138588725D01*
X56486566Y-138581125D01*
X56517508Y-138576535D01*
X56548751Y-138575000D01*
X57186251Y-138575000D01*
X57217494Y-138576535D01*
X57217494Y-138576535D01*
G37*
D11*
X56867501Y-139250000D03*
D10*
G36*
X58792494Y-138576535D02*
G01*
X58823436Y-138581125D01*
X58853779Y-138588725D01*
X58883231Y-138599263D01*
X58911509Y-138612638D01*
X58938339Y-138628719D01*
X58963464Y-138647353D01*
X58986641Y-138668360D01*
X59007648Y-138691537D01*
X59026282Y-138716662D01*
X59042363Y-138743492D01*
X59055738Y-138771770D01*
X59066276Y-138801222D01*
X59073876Y-138831565D01*
X59078466Y-138862507D01*
X59080001Y-138893750D01*
X59080001Y-139606250D01*
X59078466Y-139637493D01*
X59073876Y-139668435D01*
X59066276Y-139698778D01*
X59055738Y-139728230D01*
X59042363Y-139756508D01*
X59026282Y-139783338D01*
X59007648Y-139808463D01*
X58986641Y-139831640D01*
X58963464Y-139852647D01*
X58938339Y-139871281D01*
X58911509Y-139887362D01*
X58883231Y-139900737D01*
X58853779Y-139911275D01*
X58823436Y-139918875D01*
X58792494Y-139923465D01*
X58761251Y-139925000D01*
X58123751Y-139925000D01*
X58092508Y-139923465D01*
X58061566Y-139918875D01*
X58031223Y-139911275D01*
X58001771Y-139900737D01*
X57973493Y-139887362D01*
X57946663Y-139871281D01*
X57921538Y-139852647D01*
X57898361Y-139831640D01*
X57877354Y-139808463D01*
X57858720Y-139783338D01*
X57842639Y-139756508D01*
X57829264Y-139728230D01*
X57818726Y-139698778D01*
X57811126Y-139668435D01*
X57806536Y-139637493D01*
X57805001Y-139606250D01*
X57805001Y-138893750D01*
X57806536Y-138862507D01*
X57811126Y-138831565D01*
X57818726Y-138801222D01*
X57829264Y-138771770D01*
X57842639Y-138743492D01*
X57858720Y-138716662D01*
X57877354Y-138691537D01*
X57898361Y-138668360D01*
X57921538Y-138647353D01*
X57946663Y-138628719D01*
X57973493Y-138612638D01*
X58001771Y-138599263D01*
X58031223Y-138588725D01*
X58061566Y-138581125D01*
X58092508Y-138576535D01*
X58123751Y-138575000D01*
X58761251Y-138575000D01*
X58792494Y-138576535D01*
X58792494Y-138576535D01*
G37*
D11*
X58442501Y-139250000D03*
D10*
G36*
X58792494Y-136576535D02*
G01*
X58823436Y-136581125D01*
X58853779Y-136588725D01*
X58883231Y-136599263D01*
X58911509Y-136612638D01*
X58938339Y-136628719D01*
X58963464Y-136647353D01*
X58986641Y-136668360D01*
X59007648Y-136691537D01*
X59026282Y-136716662D01*
X59042363Y-136743492D01*
X59055738Y-136771770D01*
X59066276Y-136801222D01*
X59073876Y-136831565D01*
X59078466Y-136862507D01*
X59080001Y-136893750D01*
X59080001Y-137606250D01*
X59078466Y-137637493D01*
X59073876Y-137668435D01*
X59066276Y-137698778D01*
X59055738Y-137728230D01*
X59042363Y-137756508D01*
X59026282Y-137783338D01*
X59007648Y-137808463D01*
X58986641Y-137831640D01*
X58963464Y-137852647D01*
X58938339Y-137871281D01*
X58911509Y-137887362D01*
X58883231Y-137900737D01*
X58853779Y-137911275D01*
X58823436Y-137918875D01*
X58792494Y-137923465D01*
X58761251Y-137925000D01*
X58123751Y-137925000D01*
X58092508Y-137923465D01*
X58061566Y-137918875D01*
X58031223Y-137911275D01*
X58001771Y-137900737D01*
X57973493Y-137887362D01*
X57946663Y-137871281D01*
X57921538Y-137852647D01*
X57898361Y-137831640D01*
X57877354Y-137808463D01*
X57858720Y-137783338D01*
X57842639Y-137756508D01*
X57829264Y-137728230D01*
X57818726Y-137698778D01*
X57811126Y-137668435D01*
X57806536Y-137637493D01*
X57805001Y-137606250D01*
X57805001Y-136893750D01*
X57806536Y-136862507D01*
X57811126Y-136831565D01*
X57818726Y-136801222D01*
X57829264Y-136771770D01*
X57842639Y-136743492D01*
X57858720Y-136716662D01*
X57877354Y-136691537D01*
X57898361Y-136668360D01*
X57921538Y-136647353D01*
X57946663Y-136628719D01*
X57973493Y-136612638D01*
X58001771Y-136599263D01*
X58031223Y-136588725D01*
X58061566Y-136581125D01*
X58092508Y-136576535D01*
X58123751Y-136575000D01*
X58761251Y-136575000D01*
X58792494Y-136576535D01*
X58792494Y-136576535D01*
G37*
D11*
X58442501Y-137250000D03*
D10*
G36*
X57217494Y-136576535D02*
G01*
X57248436Y-136581125D01*
X57278779Y-136588725D01*
X57308231Y-136599263D01*
X57336509Y-136612638D01*
X57363339Y-136628719D01*
X57388464Y-136647353D01*
X57411641Y-136668360D01*
X57432648Y-136691537D01*
X57451282Y-136716662D01*
X57467363Y-136743492D01*
X57480738Y-136771770D01*
X57491276Y-136801222D01*
X57498876Y-136831565D01*
X57503466Y-136862507D01*
X57505001Y-136893750D01*
X57505001Y-137606250D01*
X57503466Y-137637493D01*
X57498876Y-137668435D01*
X57491276Y-137698778D01*
X57480738Y-137728230D01*
X57467363Y-137756508D01*
X57451282Y-137783338D01*
X57432648Y-137808463D01*
X57411641Y-137831640D01*
X57388464Y-137852647D01*
X57363339Y-137871281D01*
X57336509Y-137887362D01*
X57308231Y-137900737D01*
X57278779Y-137911275D01*
X57248436Y-137918875D01*
X57217494Y-137923465D01*
X57186251Y-137925000D01*
X56548751Y-137925000D01*
X56517508Y-137923465D01*
X56486566Y-137918875D01*
X56456223Y-137911275D01*
X56426771Y-137900737D01*
X56398493Y-137887362D01*
X56371663Y-137871281D01*
X56346538Y-137852647D01*
X56323361Y-137831640D01*
X56302354Y-137808463D01*
X56283720Y-137783338D01*
X56267639Y-137756508D01*
X56254264Y-137728230D01*
X56243726Y-137698778D01*
X56236126Y-137668435D01*
X56231536Y-137637493D01*
X56230001Y-137606250D01*
X56230001Y-136893750D01*
X56231536Y-136862507D01*
X56236126Y-136831565D01*
X56243726Y-136801222D01*
X56254264Y-136771770D01*
X56267639Y-136743492D01*
X56283720Y-136716662D01*
X56302354Y-136691537D01*
X56323361Y-136668360D01*
X56346538Y-136647353D01*
X56371663Y-136628719D01*
X56398493Y-136612638D01*
X56426771Y-136599263D01*
X56456223Y-136588725D01*
X56486566Y-136581125D01*
X56517508Y-136576535D01*
X56548751Y-136575000D01*
X57186251Y-136575000D01*
X57217494Y-136576535D01*
X57217494Y-136576535D01*
G37*
D11*
X56867501Y-137250000D03*
D10*
G36*
X57217494Y-134576535D02*
G01*
X57248436Y-134581125D01*
X57278779Y-134588725D01*
X57308231Y-134599263D01*
X57336509Y-134612638D01*
X57363339Y-134628719D01*
X57388464Y-134647353D01*
X57411641Y-134668360D01*
X57432648Y-134691537D01*
X57451282Y-134716662D01*
X57467363Y-134743492D01*
X57480738Y-134771770D01*
X57491276Y-134801222D01*
X57498876Y-134831565D01*
X57503466Y-134862507D01*
X57505001Y-134893750D01*
X57505001Y-135606250D01*
X57503466Y-135637493D01*
X57498876Y-135668435D01*
X57491276Y-135698778D01*
X57480738Y-135728230D01*
X57467363Y-135756508D01*
X57451282Y-135783338D01*
X57432648Y-135808463D01*
X57411641Y-135831640D01*
X57388464Y-135852647D01*
X57363339Y-135871281D01*
X57336509Y-135887362D01*
X57308231Y-135900737D01*
X57278779Y-135911275D01*
X57248436Y-135918875D01*
X57217494Y-135923465D01*
X57186251Y-135925000D01*
X56548751Y-135925000D01*
X56517508Y-135923465D01*
X56486566Y-135918875D01*
X56456223Y-135911275D01*
X56426771Y-135900737D01*
X56398493Y-135887362D01*
X56371663Y-135871281D01*
X56346538Y-135852647D01*
X56323361Y-135831640D01*
X56302354Y-135808463D01*
X56283720Y-135783338D01*
X56267639Y-135756508D01*
X56254264Y-135728230D01*
X56243726Y-135698778D01*
X56236126Y-135668435D01*
X56231536Y-135637493D01*
X56230001Y-135606250D01*
X56230001Y-134893750D01*
X56231536Y-134862507D01*
X56236126Y-134831565D01*
X56243726Y-134801222D01*
X56254264Y-134771770D01*
X56267639Y-134743492D01*
X56283720Y-134716662D01*
X56302354Y-134691537D01*
X56323361Y-134668360D01*
X56346538Y-134647353D01*
X56371663Y-134628719D01*
X56398493Y-134612638D01*
X56426771Y-134599263D01*
X56456223Y-134588725D01*
X56486566Y-134581125D01*
X56517508Y-134576535D01*
X56548751Y-134575000D01*
X57186251Y-134575000D01*
X57217494Y-134576535D01*
X57217494Y-134576535D01*
G37*
D11*
X56867501Y-135250000D03*
D10*
G36*
X58792494Y-134576535D02*
G01*
X58823436Y-134581125D01*
X58853779Y-134588725D01*
X58883231Y-134599263D01*
X58911509Y-134612638D01*
X58938339Y-134628719D01*
X58963464Y-134647353D01*
X58986641Y-134668360D01*
X59007648Y-134691537D01*
X59026282Y-134716662D01*
X59042363Y-134743492D01*
X59055738Y-134771770D01*
X59066276Y-134801222D01*
X59073876Y-134831565D01*
X59078466Y-134862507D01*
X59080001Y-134893750D01*
X59080001Y-135606250D01*
X59078466Y-135637493D01*
X59073876Y-135668435D01*
X59066276Y-135698778D01*
X59055738Y-135728230D01*
X59042363Y-135756508D01*
X59026282Y-135783338D01*
X59007648Y-135808463D01*
X58986641Y-135831640D01*
X58963464Y-135852647D01*
X58938339Y-135871281D01*
X58911509Y-135887362D01*
X58883231Y-135900737D01*
X58853779Y-135911275D01*
X58823436Y-135918875D01*
X58792494Y-135923465D01*
X58761251Y-135925000D01*
X58123751Y-135925000D01*
X58092508Y-135923465D01*
X58061566Y-135918875D01*
X58031223Y-135911275D01*
X58001771Y-135900737D01*
X57973493Y-135887362D01*
X57946663Y-135871281D01*
X57921538Y-135852647D01*
X57898361Y-135831640D01*
X57877354Y-135808463D01*
X57858720Y-135783338D01*
X57842639Y-135756508D01*
X57829264Y-135728230D01*
X57818726Y-135698778D01*
X57811126Y-135668435D01*
X57806536Y-135637493D01*
X57805001Y-135606250D01*
X57805001Y-134893750D01*
X57806536Y-134862507D01*
X57811126Y-134831565D01*
X57818726Y-134801222D01*
X57829264Y-134771770D01*
X57842639Y-134743492D01*
X57858720Y-134716662D01*
X57877354Y-134691537D01*
X57898361Y-134668360D01*
X57921538Y-134647353D01*
X57946663Y-134628719D01*
X57973493Y-134612638D01*
X58001771Y-134599263D01*
X58031223Y-134588725D01*
X58061566Y-134581125D01*
X58092508Y-134576535D01*
X58123751Y-134575000D01*
X58761251Y-134575000D01*
X58792494Y-134576535D01*
X58792494Y-134576535D01*
G37*
D11*
X58442501Y-135250000D03*
D10*
G36*
X64812493Y-140826535D02*
G01*
X64843435Y-140831125D01*
X64873778Y-140838725D01*
X64903230Y-140849263D01*
X64931508Y-140862638D01*
X64958338Y-140878719D01*
X64983463Y-140897353D01*
X65006640Y-140918360D01*
X65027647Y-140941537D01*
X65046281Y-140966662D01*
X65062362Y-140993492D01*
X65075737Y-141021770D01*
X65086275Y-141051222D01*
X65093875Y-141081565D01*
X65098465Y-141112507D01*
X65100000Y-141143750D01*
X65100000Y-141856250D01*
X65098465Y-141887493D01*
X65093875Y-141918435D01*
X65086275Y-141948778D01*
X65075737Y-141978230D01*
X65062362Y-142006508D01*
X65046281Y-142033338D01*
X65027647Y-142058463D01*
X65006640Y-142081640D01*
X64983463Y-142102647D01*
X64958338Y-142121281D01*
X64931508Y-142137362D01*
X64903230Y-142150737D01*
X64873778Y-142161275D01*
X64843435Y-142168875D01*
X64812493Y-142173465D01*
X64781250Y-142175000D01*
X64143750Y-142175000D01*
X64112507Y-142173465D01*
X64081565Y-142168875D01*
X64051222Y-142161275D01*
X64021770Y-142150737D01*
X63993492Y-142137362D01*
X63966662Y-142121281D01*
X63941537Y-142102647D01*
X63918360Y-142081640D01*
X63897353Y-142058463D01*
X63878719Y-142033338D01*
X63862638Y-142006508D01*
X63849263Y-141978230D01*
X63838725Y-141948778D01*
X63831125Y-141918435D01*
X63826535Y-141887493D01*
X63825000Y-141856250D01*
X63825000Y-141143750D01*
X63826535Y-141112507D01*
X63831125Y-141081565D01*
X63838725Y-141051222D01*
X63849263Y-141021770D01*
X63862638Y-140993492D01*
X63878719Y-140966662D01*
X63897353Y-140941537D01*
X63918360Y-140918360D01*
X63941537Y-140897353D01*
X63966662Y-140878719D01*
X63993492Y-140862638D01*
X64021770Y-140849263D01*
X64051222Y-140838725D01*
X64081565Y-140831125D01*
X64112507Y-140826535D01*
X64143750Y-140825000D01*
X64781250Y-140825000D01*
X64812493Y-140826535D01*
X64812493Y-140826535D01*
G37*
D11*
X64462500Y-141500000D03*
D10*
G36*
X66387493Y-140826535D02*
G01*
X66418435Y-140831125D01*
X66448778Y-140838725D01*
X66478230Y-140849263D01*
X66506508Y-140862638D01*
X66533338Y-140878719D01*
X66558463Y-140897353D01*
X66581640Y-140918360D01*
X66602647Y-140941537D01*
X66621281Y-140966662D01*
X66637362Y-140993492D01*
X66650737Y-141021770D01*
X66661275Y-141051222D01*
X66668875Y-141081565D01*
X66673465Y-141112507D01*
X66675000Y-141143750D01*
X66675000Y-141856250D01*
X66673465Y-141887493D01*
X66668875Y-141918435D01*
X66661275Y-141948778D01*
X66650737Y-141978230D01*
X66637362Y-142006508D01*
X66621281Y-142033338D01*
X66602647Y-142058463D01*
X66581640Y-142081640D01*
X66558463Y-142102647D01*
X66533338Y-142121281D01*
X66506508Y-142137362D01*
X66478230Y-142150737D01*
X66448778Y-142161275D01*
X66418435Y-142168875D01*
X66387493Y-142173465D01*
X66356250Y-142175000D01*
X65718750Y-142175000D01*
X65687507Y-142173465D01*
X65656565Y-142168875D01*
X65626222Y-142161275D01*
X65596770Y-142150737D01*
X65568492Y-142137362D01*
X65541662Y-142121281D01*
X65516537Y-142102647D01*
X65493360Y-142081640D01*
X65472353Y-142058463D01*
X65453719Y-142033338D01*
X65437638Y-142006508D01*
X65424263Y-141978230D01*
X65413725Y-141948778D01*
X65406125Y-141918435D01*
X65401535Y-141887493D01*
X65400000Y-141856250D01*
X65400000Y-141143750D01*
X65401535Y-141112507D01*
X65406125Y-141081565D01*
X65413725Y-141051222D01*
X65424263Y-141021770D01*
X65437638Y-140993492D01*
X65453719Y-140966662D01*
X65472353Y-140941537D01*
X65493360Y-140918360D01*
X65516537Y-140897353D01*
X65541662Y-140878719D01*
X65568492Y-140862638D01*
X65596770Y-140849263D01*
X65626222Y-140838725D01*
X65656565Y-140831125D01*
X65687507Y-140826535D01*
X65718750Y-140825000D01*
X66356250Y-140825000D01*
X66387493Y-140826535D01*
X66387493Y-140826535D01*
G37*
D11*
X66037500Y-141500000D03*
D10*
G36*
X64812493Y-134826535D02*
G01*
X64843435Y-134831125D01*
X64873778Y-134838725D01*
X64903230Y-134849263D01*
X64931508Y-134862638D01*
X64958338Y-134878719D01*
X64983463Y-134897353D01*
X65006640Y-134918360D01*
X65027647Y-134941537D01*
X65046281Y-134966662D01*
X65062362Y-134993492D01*
X65075737Y-135021770D01*
X65086275Y-135051222D01*
X65093875Y-135081565D01*
X65098465Y-135112507D01*
X65100000Y-135143750D01*
X65100000Y-135856250D01*
X65098465Y-135887493D01*
X65093875Y-135918435D01*
X65086275Y-135948778D01*
X65075737Y-135978230D01*
X65062362Y-136006508D01*
X65046281Y-136033338D01*
X65027647Y-136058463D01*
X65006640Y-136081640D01*
X64983463Y-136102647D01*
X64958338Y-136121281D01*
X64931508Y-136137362D01*
X64903230Y-136150737D01*
X64873778Y-136161275D01*
X64843435Y-136168875D01*
X64812493Y-136173465D01*
X64781250Y-136175000D01*
X64143750Y-136175000D01*
X64112507Y-136173465D01*
X64081565Y-136168875D01*
X64051222Y-136161275D01*
X64021770Y-136150737D01*
X63993492Y-136137362D01*
X63966662Y-136121281D01*
X63941537Y-136102647D01*
X63918360Y-136081640D01*
X63897353Y-136058463D01*
X63878719Y-136033338D01*
X63862638Y-136006508D01*
X63849263Y-135978230D01*
X63838725Y-135948778D01*
X63831125Y-135918435D01*
X63826535Y-135887493D01*
X63825000Y-135856250D01*
X63825000Y-135143750D01*
X63826535Y-135112507D01*
X63831125Y-135081565D01*
X63838725Y-135051222D01*
X63849263Y-135021770D01*
X63862638Y-134993492D01*
X63878719Y-134966662D01*
X63897353Y-134941537D01*
X63918360Y-134918360D01*
X63941537Y-134897353D01*
X63966662Y-134878719D01*
X63993492Y-134862638D01*
X64021770Y-134849263D01*
X64051222Y-134838725D01*
X64081565Y-134831125D01*
X64112507Y-134826535D01*
X64143750Y-134825000D01*
X64781250Y-134825000D01*
X64812493Y-134826535D01*
X64812493Y-134826535D01*
G37*
D11*
X64462500Y-135500000D03*
D10*
G36*
X66387493Y-134826535D02*
G01*
X66418435Y-134831125D01*
X66448778Y-134838725D01*
X66478230Y-134849263D01*
X66506508Y-134862638D01*
X66533338Y-134878719D01*
X66558463Y-134897353D01*
X66581640Y-134918360D01*
X66602647Y-134941537D01*
X66621281Y-134966662D01*
X66637362Y-134993492D01*
X66650737Y-135021770D01*
X66661275Y-135051222D01*
X66668875Y-135081565D01*
X66673465Y-135112507D01*
X66675000Y-135143750D01*
X66675000Y-135856250D01*
X66673465Y-135887493D01*
X66668875Y-135918435D01*
X66661275Y-135948778D01*
X66650737Y-135978230D01*
X66637362Y-136006508D01*
X66621281Y-136033338D01*
X66602647Y-136058463D01*
X66581640Y-136081640D01*
X66558463Y-136102647D01*
X66533338Y-136121281D01*
X66506508Y-136137362D01*
X66478230Y-136150737D01*
X66448778Y-136161275D01*
X66418435Y-136168875D01*
X66387493Y-136173465D01*
X66356250Y-136175000D01*
X65718750Y-136175000D01*
X65687507Y-136173465D01*
X65656565Y-136168875D01*
X65626222Y-136161275D01*
X65596770Y-136150737D01*
X65568492Y-136137362D01*
X65541662Y-136121281D01*
X65516537Y-136102647D01*
X65493360Y-136081640D01*
X65472353Y-136058463D01*
X65453719Y-136033338D01*
X65437638Y-136006508D01*
X65424263Y-135978230D01*
X65413725Y-135948778D01*
X65406125Y-135918435D01*
X65401535Y-135887493D01*
X65400000Y-135856250D01*
X65400000Y-135143750D01*
X65401535Y-135112507D01*
X65406125Y-135081565D01*
X65413725Y-135051222D01*
X65424263Y-135021770D01*
X65437638Y-134993492D01*
X65453719Y-134966662D01*
X65472353Y-134941537D01*
X65493360Y-134918360D01*
X65516537Y-134897353D01*
X65541662Y-134878719D01*
X65568492Y-134862638D01*
X65596770Y-134849263D01*
X65626222Y-134838725D01*
X65656565Y-134831125D01*
X65687507Y-134826535D01*
X65718750Y-134825000D01*
X66356250Y-134825000D01*
X66387493Y-134826535D01*
X66387493Y-134826535D01*
G37*
D11*
X66037500Y-135500000D03*
D10*
G36*
X66387493Y-138826535D02*
G01*
X66418435Y-138831125D01*
X66448778Y-138838725D01*
X66478230Y-138849263D01*
X66506508Y-138862638D01*
X66533338Y-138878719D01*
X66558463Y-138897353D01*
X66581640Y-138918360D01*
X66602647Y-138941537D01*
X66621281Y-138966662D01*
X66637362Y-138993492D01*
X66650737Y-139021770D01*
X66661275Y-139051222D01*
X66668875Y-139081565D01*
X66673465Y-139112507D01*
X66675000Y-139143750D01*
X66675000Y-139856250D01*
X66673465Y-139887493D01*
X66668875Y-139918435D01*
X66661275Y-139948778D01*
X66650737Y-139978230D01*
X66637362Y-140006508D01*
X66621281Y-140033338D01*
X66602647Y-140058463D01*
X66581640Y-140081640D01*
X66558463Y-140102647D01*
X66533338Y-140121281D01*
X66506508Y-140137362D01*
X66478230Y-140150737D01*
X66448778Y-140161275D01*
X66418435Y-140168875D01*
X66387493Y-140173465D01*
X66356250Y-140175000D01*
X65718750Y-140175000D01*
X65687507Y-140173465D01*
X65656565Y-140168875D01*
X65626222Y-140161275D01*
X65596770Y-140150737D01*
X65568492Y-140137362D01*
X65541662Y-140121281D01*
X65516537Y-140102647D01*
X65493360Y-140081640D01*
X65472353Y-140058463D01*
X65453719Y-140033338D01*
X65437638Y-140006508D01*
X65424263Y-139978230D01*
X65413725Y-139948778D01*
X65406125Y-139918435D01*
X65401535Y-139887493D01*
X65400000Y-139856250D01*
X65400000Y-139143750D01*
X65401535Y-139112507D01*
X65406125Y-139081565D01*
X65413725Y-139051222D01*
X65424263Y-139021770D01*
X65437638Y-138993492D01*
X65453719Y-138966662D01*
X65472353Y-138941537D01*
X65493360Y-138918360D01*
X65516537Y-138897353D01*
X65541662Y-138878719D01*
X65568492Y-138862638D01*
X65596770Y-138849263D01*
X65626222Y-138838725D01*
X65656565Y-138831125D01*
X65687507Y-138826535D01*
X65718750Y-138825000D01*
X66356250Y-138825000D01*
X66387493Y-138826535D01*
X66387493Y-138826535D01*
G37*
D11*
X66037500Y-139500000D03*
D10*
G36*
X64812493Y-138826535D02*
G01*
X64843435Y-138831125D01*
X64873778Y-138838725D01*
X64903230Y-138849263D01*
X64931508Y-138862638D01*
X64958338Y-138878719D01*
X64983463Y-138897353D01*
X65006640Y-138918360D01*
X65027647Y-138941537D01*
X65046281Y-138966662D01*
X65062362Y-138993492D01*
X65075737Y-139021770D01*
X65086275Y-139051222D01*
X65093875Y-139081565D01*
X65098465Y-139112507D01*
X65100000Y-139143750D01*
X65100000Y-139856250D01*
X65098465Y-139887493D01*
X65093875Y-139918435D01*
X65086275Y-139948778D01*
X65075737Y-139978230D01*
X65062362Y-140006508D01*
X65046281Y-140033338D01*
X65027647Y-140058463D01*
X65006640Y-140081640D01*
X64983463Y-140102647D01*
X64958338Y-140121281D01*
X64931508Y-140137362D01*
X64903230Y-140150737D01*
X64873778Y-140161275D01*
X64843435Y-140168875D01*
X64812493Y-140173465D01*
X64781250Y-140175000D01*
X64143750Y-140175000D01*
X64112507Y-140173465D01*
X64081565Y-140168875D01*
X64051222Y-140161275D01*
X64021770Y-140150737D01*
X63993492Y-140137362D01*
X63966662Y-140121281D01*
X63941537Y-140102647D01*
X63918360Y-140081640D01*
X63897353Y-140058463D01*
X63878719Y-140033338D01*
X63862638Y-140006508D01*
X63849263Y-139978230D01*
X63838725Y-139948778D01*
X63831125Y-139918435D01*
X63826535Y-139887493D01*
X63825000Y-139856250D01*
X63825000Y-139143750D01*
X63826535Y-139112507D01*
X63831125Y-139081565D01*
X63838725Y-139051222D01*
X63849263Y-139021770D01*
X63862638Y-138993492D01*
X63878719Y-138966662D01*
X63897353Y-138941537D01*
X63918360Y-138918360D01*
X63941537Y-138897353D01*
X63966662Y-138878719D01*
X63993492Y-138862638D01*
X64021770Y-138849263D01*
X64051222Y-138838725D01*
X64081565Y-138831125D01*
X64112507Y-138826535D01*
X64143750Y-138825000D01*
X64781250Y-138825000D01*
X64812493Y-138826535D01*
X64812493Y-138826535D01*
G37*
D11*
X64462500Y-139500000D03*
D17*
X64000000Y-137500000D03*
X66500000Y-137500000D03*
D18*
X84375000Y-143650000D03*
X85000000Y-143650000D03*
X85625000Y-143650000D03*
X85625000Y-141850000D03*
X85000000Y-141850000D03*
X84375000Y-141850000D03*
D19*
X90000000Y-130250000D03*
X81000000Y-130250000D03*
D10*
G36*
X83637493Y-164076535D02*
G01*
X83668435Y-164081125D01*
X83698778Y-164088725D01*
X83728230Y-164099263D01*
X83756508Y-164112638D01*
X83783338Y-164128719D01*
X83808463Y-164147353D01*
X83831640Y-164168360D01*
X83852647Y-164191537D01*
X83871281Y-164216662D01*
X83887362Y-164243492D01*
X83900737Y-164271770D01*
X83911275Y-164301222D01*
X83918875Y-164331565D01*
X83923465Y-164362507D01*
X83925000Y-164393750D01*
X83925000Y-165031250D01*
X83923465Y-165062493D01*
X83918875Y-165093435D01*
X83911275Y-165123778D01*
X83900737Y-165153230D01*
X83887362Y-165181508D01*
X83871281Y-165208338D01*
X83852647Y-165233463D01*
X83831640Y-165256640D01*
X83808463Y-165277647D01*
X83783338Y-165296281D01*
X83756508Y-165312362D01*
X83728230Y-165325737D01*
X83698778Y-165336275D01*
X83668435Y-165343875D01*
X83637493Y-165348465D01*
X83606250Y-165350000D01*
X82893750Y-165350000D01*
X82862507Y-165348465D01*
X82831565Y-165343875D01*
X82801222Y-165336275D01*
X82771770Y-165325737D01*
X82743492Y-165312362D01*
X82716662Y-165296281D01*
X82691537Y-165277647D01*
X82668360Y-165256640D01*
X82647353Y-165233463D01*
X82628719Y-165208338D01*
X82612638Y-165181508D01*
X82599263Y-165153230D01*
X82588725Y-165123778D01*
X82581125Y-165093435D01*
X82576535Y-165062493D01*
X82575000Y-165031250D01*
X82575000Y-164393750D01*
X82576535Y-164362507D01*
X82581125Y-164331565D01*
X82588725Y-164301222D01*
X82599263Y-164271770D01*
X82612638Y-164243492D01*
X82628719Y-164216662D01*
X82647353Y-164191537D01*
X82668360Y-164168360D01*
X82691537Y-164147353D01*
X82716662Y-164128719D01*
X82743492Y-164112638D01*
X82771770Y-164099263D01*
X82801222Y-164088725D01*
X82831565Y-164081125D01*
X82862507Y-164076535D01*
X82893750Y-164075000D01*
X83606250Y-164075000D01*
X83637493Y-164076535D01*
X83637493Y-164076535D01*
G37*
D11*
X83250000Y-164712500D03*
D10*
G36*
X83637493Y-165651535D02*
G01*
X83668435Y-165656125D01*
X83698778Y-165663725D01*
X83728230Y-165674263D01*
X83756508Y-165687638D01*
X83783338Y-165703719D01*
X83808463Y-165722353D01*
X83831640Y-165743360D01*
X83852647Y-165766537D01*
X83871281Y-165791662D01*
X83887362Y-165818492D01*
X83900737Y-165846770D01*
X83911275Y-165876222D01*
X83918875Y-165906565D01*
X83923465Y-165937507D01*
X83925000Y-165968750D01*
X83925000Y-166606250D01*
X83923465Y-166637493D01*
X83918875Y-166668435D01*
X83911275Y-166698778D01*
X83900737Y-166728230D01*
X83887362Y-166756508D01*
X83871281Y-166783338D01*
X83852647Y-166808463D01*
X83831640Y-166831640D01*
X83808463Y-166852647D01*
X83783338Y-166871281D01*
X83756508Y-166887362D01*
X83728230Y-166900737D01*
X83698778Y-166911275D01*
X83668435Y-166918875D01*
X83637493Y-166923465D01*
X83606250Y-166925000D01*
X82893750Y-166925000D01*
X82862507Y-166923465D01*
X82831565Y-166918875D01*
X82801222Y-166911275D01*
X82771770Y-166900737D01*
X82743492Y-166887362D01*
X82716662Y-166871281D01*
X82691537Y-166852647D01*
X82668360Y-166831640D01*
X82647353Y-166808463D01*
X82628719Y-166783338D01*
X82612638Y-166756508D01*
X82599263Y-166728230D01*
X82588725Y-166698778D01*
X82581125Y-166668435D01*
X82576535Y-166637493D01*
X82575000Y-166606250D01*
X82575000Y-165968750D01*
X82576535Y-165937507D01*
X82581125Y-165906565D01*
X82588725Y-165876222D01*
X82599263Y-165846770D01*
X82612638Y-165818492D01*
X82628719Y-165791662D01*
X82647353Y-165766537D01*
X82668360Y-165743360D01*
X82691537Y-165722353D01*
X82716662Y-165703719D01*
X82743492Y-165687638D01*
X82771770Y-165674263D01*
X82801222Y-165663725D01*
X82831565Y-165656125D01*
X82862507Y-165651535D01*
X82893750Y-165650000D01*
X83606250Y-165650000D01*
X83637493Y-165651535D01*
X83637493Y-165651535D01*
G37*
D11*
X83250000Y-166287500D03*
D10*
G36*
X81887493Y-164076535D02*
G01*
X81918435Y-164081125D01*
X81948778Y-164088725D01*
X81978230Y-164099263D01*
X82006508Y-164112638D01*
X82033338Y-164128719D01*
X82058463Y-164147353D01*
X82081640Y-164168360D01*
X82102647Y-164191537D01*
X82121281Y-164216662D01*
X82137362Y-164243492D01*
X82150737Y-164271770D01*
X82161275Y-164301222D01*
X82168875Y-164331565D01*
X82173465Y-164362507D01*
X82175000Y-164393750D01*
X82175000Y-165031250D01*
X82173465Y-165062493D01*
X82168875Y-165093435D01*
X82161275Y-165123778D01*
X82150737Y-165153230D01*
X82137362Y-165181508D01*
X82121281Y-165208338D01*
X82102647Y-165233463D01*
X82081640Y-165256640D01*
X82058463Y-165277647D01*
X82033338Y-165296281D01*
X82006508Y-165312362D01*
X81978230Y-165325737D01*
X81948778Y-165336275D01*
X81918435Y-165343875D01*
X81887493Y-165348465D01*
X81856250Y-165350000D01*
X81143750Y-165350000D01*
X81112507Y-165348465D01*
X81081565Y-165343875D01*
X81051222Y-165336275D01*
X81021770Y-165325737D01*
X80993492Y-165312362D01*
X80966662Y-165296281D01*
X80941537Y-165277647D01*
X80918360Y-165256640D01*
X80897353Y-165233463D01*
X80878719Y-165208338D01*
X80862638Y-165181508D01*
X80849263Y-165153230D01*
X80838725Y-165123778D01*
X80831125Y-165093435D01*
X80826535Y-165062493D01*
X80825000Y-165031250D01*
X80825000Y-164393750D01*
X80826535Y-164362507D01*
X80831125Y-164331565D01*
X80838725Y-164301222D01*
X80849263Y-164271770D01*
X80862638Y-164243492D01*
X80878719Y-164216662D01*
X80897353Y-164191537D01*
X80918360Y-164168360D01*
X80941537Y-164147353D01*
X80966662Y-164128719D01*
X80993492Y-164112638D01*
X81021770Y-164099263D01*
X81051222Y-164088725D01*
X81081565Y-164081125D01*
X81112507Y-164076535D01*
X81143750Y-164075000D01*
X81856250Y-164075000D01*
X81887493Y-164076535D01*
X81887493Y-164076535D01*
G37*
D11*
X81500000Y-164712500D03*
D10*
G36*
X81887493Y-165651535D02*
G01*
X81918435Y-165656125D01*
X81948778Y-165663725D01*
X81978230Y-165674263D01*
X82006508Y-165687638D01*
X82033338Y-165703719D01*
X82058463Y-165722353D01*
X82081640Y-165743360D01*
X82102647Y-165766537D01*
X82121281Y-165791662D01*
X82137362Y-165818492D01*
X82150737Y-165846770D01*
X82161275Y-165876222D01*
X82168875Y-165906565D01*
X82173465Y-165937507D01*
X82175000Y-165968750D01*
X82175000Y-166606250D01*
X82173465Y-166637493D01*
X82168875Y-166668435D01*
X82161275Y-166698778D01*
X82150737Y-166728230D01*
X82137362Y-166756508D01*
X82121281Y-166783338D01*
X82102647Y-166808463D01*
X82081640Y-166831640D01*
X82058463Y-166852647D01*
X82033338Y-166871281D01*
X82006508Y-166887362D01*
X81978230Y-166900737D01*
X81948778Y-166911275D01*
X81918435Y-166918875D01*
X81887493Y-166923465D01*
X81856250Y-166925000D01*
X81143750Y-166925000D01*
X81112507Y-166923465D01*
X81081565Y-166918875D01*
X81051222Y-166911275D01*
X81021770Y-166900737D01*
X80993492Y-166887362D01*
X80966662Y-166871281D01*
X80941537Y-166852647D01*
X80918360Y-166831640D01*
X80897353Y-166808463D01*
X80878719Y-166783338D01*
X80862638Y-166756508D01*
X80849263Y-166728230D01*
X80838725Y-166698778D01*
X80831125Y-166668435D01*
X80826535Y-166637493D01*
X80825000Y-166606250D01*
X80825000Y-165968750D01*
X80826535Y-165937507D01*
X80831125Y-165906565D01*
X80838725Y-165876222D01*
X80849263Y-165846770D01*
X80862638Y-165818492D01*
X80878719Y-165791662D01*
X80897353Y-165766537D01*
X80918360Y-165743360D01*
X80941537Y-165722353D01*
X80966662Y-165703719D01*
X80993492Y-165687638D01*
X81021770Y-165674263D01*
X81051222Y-165663725D01*
X81081565Y-165656125D01*
X81112507Y-165651535D01*
X81143750Y-165650000D01*
X81856250Y-165650000D01*
X81887493Y-165651535D01*
X81887493Y-165651535D01*
G37*
D11*
X81500000Y-166287500D03*
D10*
G36*
X92137493Y-133826535D02*
G01*
X92168435Y-133831125D01*
X92198778Y-133838725D01*
X92228230Y-133849263D01*
X92256508Y-133862638D01*
X92283338Y-133878719D01*
X92308463Y-133897353D01*
X92331640Y-133918360D01*
X92352647Y-133941537D01*
X92371281Y-133966662D01*
X92387362Y-133993492D01*
X92400737Y-134021770D01*
X92411275Y-134051222D01*
X92418875Y-134081565D01*
X92423465Y-134112507D01*
X92425000Y-134143750D01*
X92425000Y-134781250D01*
X92423465Y-134812493D01*
X92418875Y-134843435D01*
X92411275Y-134873778D01*
X92400737Y-134903230D01*
X92387362Y-134931508D01*
X92371281Y-134958338D01*
X92352647Y-134983463D01*
X92331640Y-135006640D01*
X92308463Y-135027647D01*
X92283338Y-135046281D01*
X92256508Y-135062362D01*
X92228230Y-135075737D01*
X92198778Y-135086275D01*
X92168435Y-135093875D01*
X92137493Y-135098465D01*
X92106250Y-135100000D01*
X91393750Y-135100000D01*
X91362507Y-135098465D01*
X91331565Y-135093875D01*
X91301222Y-135086275D01*
X91271770Y-135075737D01*
X91243492Y-135062362D01*
X91216662Y-135046281D01*
X91191537Y-135027647D01*
X91168360Y-135006640D01*
X91147353Y-134983463D01*
X91128719Y-134958338D01*
X91112638Y-134931508D01*
X91099263Y-134903230D01*
X91088725Y-134873778D01*
X91081125Y-134843435D01*
X91076535Y-134812493D01*
X91075000Y-134781250D01*
X91075000Y-134143750D01*
X91076535Y-134112507D01*
X91081125Y-134081565D01*
X91088725Y-134051222D01*
X91099263Y-134021770D01*
X91112638Y-133993492D01*
X91128719Y-133966662D01*
X91147353Y-133941537D01*
X91168360Y-133918360D01*
X91191537Y-133897353D01*
X91216662Y-133878719D01*
X91243492Y-133862638D01*
X91271770Y-133849263D01*
X91301222Y-133838725D01*
X91331565Y-133831125D01*
X91362507Y-133826535D01*
X91393750Y-133825000D01*
X92106250Y-133825000D01*
X92137493Y-133826535D01*
X92137493Y-133826535D01*
G37*
D11*
X91750000Y-134462500D03*
D10*
G36*
X92137493Y-135401535D02*
G01*
X92168435Y-135406125D01*
X92198778Y-135413725D01*
X92228230Y-135424263D01*
X92256508Y-135437638D01*
X92283338Y-135453719D01*
X92308463Y-135472353D01*
X92331640Y-135493360D01*
X92352647Y-135516537D01*
X92371281Y-135541662D01*
X92387362Y-135568492D01*
X92400737Y-135596770D01*
X92411275Y-135626222D01*
X92418875Y-135656565D01*
X92423465Y-135687507D01*
X92425000Y-135718750D01*
X92425000Y-136356250D01*
X92423465Y-136387493D01*
X92418875Y-136418435D01*
X92411275Y-136448778D01*
X92400737Y-136478230D01*
X92387362Y-136506508D01*
X92371281Y-136533338D01*
X92352647Y-136558463D01*
X92331640Y-136581640D01*
X92308463Y-136602647D01*
X92283338Y-136621281D01*
X92256508Y-136637362D01*
X92228230Y-136650737D01*
X92198778Y-136661275D01*
X92168435Y-136668875D01*
X92137493Y-136673465D01*
X92106250Y-136675000D01*
X91393750Y-136675000D01*
X91362507Y-136673465D01*
X91331565Y-136668875D01*
X91301222Y-136661275D01*
X91271770Y-136650737D01*
X91243492Y-136637362D01*
X91216662Y-136621281D01*
X91191537Y-136602647D01*
X91168360Y-136581640D01*
X91147353Y-136558463D01*
X91128719Y-136533338D01*
X91112638Y-136506508D01*
X91099263Y-136478230D01*
X91088725Y-136448778D01*
X91081125Y-136418435D01*
X91076535Y-136387493D01*
X91075000Y-136356250D01*
X91075000Y-135718750D01*
X91076535Y-135687507D01*
X91081125Y-135656565D01*
X91088725Y-135626222D01*
X91099263Y-135596770D01*
X91112638Y-135568492D01*
X91128719Y-135541662D01*
X91147353Y-135516537D01*
X91168360Y-135493360D01*
X91191537Y-135472353D01*
X91216662Y-135453719D01*
X91243492Y-135437638D01*
X91271770Y-135424263D01*
X91301222Y-135413725D01*
X91331565Y-135406125D01*
X91362507Y-135401535D01*
X91393750Y-135400000D01*
X92106250Y-135400000D01*
X92137493Y-135401535D01*
X92137493Y-135401535D01*
G37*
D11*
X91750000Y-136037500D03*
D10*
G36*
X86387493Y-144826535D02*
G01*
X86418435Y-144831125D01*
X86448778Y-144838725D01*
X86478230Y-144849263D01*
X86506508Y-144862638D01*
X86533338Y-144878719D01*
X86558463Y-144897353D01*
X86581640Y-144918360D01*
X86602647Y-144941537D01*
X86621281Y-144966662D01*
X86637362Y-144993492D01*
X86650737Y-145021770D01*
X86661275Y-145051222D01*
X86668875Y-145081565D01*
X86673465Y-145112507D01*
X86675000Y-145143750D01*
X86675000Y-145856250D01*
X86673465Y-145887493D01*
X86668875Y-145918435D01*
X86661275Y-145948778D01*
X86650737Y-145978230D01*
X86637362Y-146006508D01*
X86621281Y-146033338D01*
X86602647Y-146058463D01*
X86581640Y-146081640D01*
X86558463Y-146102647D01*
X86533338Y-146121281D01*
X86506508Y-146137362D01*
X86478230Y-146150737D01*
X86448778Y-146161275D01*
X86418435Y-146168875D01*
X86387493Y-146173465D01*
X86356250Y-146175000D01*
X85718750Y-146175000D01*
X85687507Y-146173465D01*
X85656565Y-146168875D01*
X85626222Y-146161275D01*
X85596770Y-146150737D01*
X85568492Y-146137362D01*
X85541662Y-146121281D01*
X85516537Y-146102647D01*
X85493360Y-146081640D01*
X85472353Y-146058463D01*
X85453719Y-146033338D01*
X85437638Y-146006508D01*
X85424263Y-145978230D01*
X85413725Y-145948778D01*
X85406125Y-145918435D01*
X85401535Y-145887493D01*
X85400000Y-145856250D01*
X85400000Y-145143750D01*
X85401535Y-145112507D01*
X85406125Y-145081565D01*
X85413725Y-145051222D01*
X85424263Y-145021770D01*
X85437638Y-144993492D01*
X85453719Y-144966662D01*
X85472353Y-144941537D01*
X85493360Y-144918360D01*
X85516537Y-144897353D01*
X85541662Y-144878719D01*
X85568492Y-144862638D01*
X85596770Y-144849263D01*
X85626222Y-144838725D01*
X85656565Y-144831125D01*
X85687507Y-144826535D01*
X85718750Y-144825000D01*
X86356250Y-144825000D01*
X86387493Y-144826535D01*
X86387493Y-144826535D01*
G37*
D11*
X86037500Y-145500000D03*
D10*
G36*
X84812493Y-144826535D02*
G01*
X84843435Y-144831125D01*
X84873778Y-144838725D01*
X84903230Y-144849263D01*
X84931508Y-144862638D01*
X84958338Y-144878719D01*
X84983463Y-144897353D01*
X85006640Y-144918360D01*
X85027647Y-144941537D01*
X85046281Y-144966662D01*
X85062362Y-144993492D01*
X85075737Y-145021770D01*
X85086275Y-145051222D01*
X85093875Y-145081565D01*
X85098465Y-145112507D01*
X85100000Y-145143750D01*
X85100000Y-145856250D01*
X85098465Y-145887493D01*
X85093875Y-145918435D01*
X85086275Y-145948778D01*
X85075737Y-145978230D01*
X85062362Y-146006508D01*
X85046281Y-146033338D01*
X85027647Y-146058463D01*
X85006640Y-146081640D01*
X84983463Y-146102647D01*
X84958338Y-146121281D01*
X84931508Y-146137362D01*
X84903230Y-146150737D01*
X84873778Y-146161275D01*
X84843435Y-146168875D01*
X84812493Y-146173465D01*
X84781250Y-146175000D01*
X84143750Y-146175000D01*
X84112507Y-146173465D01*
X84081565Y-146168875D01*
X84051222Y-146161275D01*
X84021770Y-146150737D01*
X83993492Y-146137362D01*
X83966662Y-146121281D01*
X83941537Y-146102647D01*
X83918360Y-146081640D01*
X83897353Y-146058463D01*
X83878719Y-146033338D01*
X83862638Y-146006508D01*
X83849263Y-145978230D01*
X83838725Y-145948778D01*
X83831125Y-145918435D01*
X83826535Y-145887493D01*
X83825000Y-145856250D01*
X83825000Y-145143750D01*
X83826535Y-145112507D01*
X83831125Y-145081565D01*
X83838725Y-145051222D01*
X83849263Y-145021770D01*
X83862638Y-144993492D01*
X83878719Y-144966662D01*
X83897353Y-144941537D01*
X83918360Y-144918360D01*
X83941537Y-144897353D01*
X83966662Y-144878719D01*
X83993492Y-144862638D01*
X84021770Y-144849263D01*
X84051222Y-144838725D01*
X84081565Y-144831125D01*
X84112507Y-144826535D01*
X84143750Y-144825000D01*
X84781250Y-144825000D01*
X84812493Y-144826535D01*
X84812493Y-144826535D01*
G37*
D11*
X84462500Y-145500000D03*
D10*
G36*
X85312493Y-139326535D02*
G01*
X85343435Y-139331125D01*
X85373778Y-139338725D01*
X85403230Y-139349263D01*
X85431508Y-139362638D01*
X85458338Y-139378719D01*
X85483463Y-139397353D01*
X85506640Y-139418360D01*
X85527647Y-139441537D01*
X85546281Y-139466662D01*
X85562362Y-139493492D01*
X85575737Y-139521770D01*
X85586275Y-139551222D01*
X85593875Y-139581565D01*
X85598465Y-139612507D01*
X85600000Y-139643750D01*
X85600000Y-140356250D01*
X85598465Y-140387493D01*
X85593875Y-140418435D01*
X85586275Y-140448778D01*
X85575737Y-140478230D01*
X85562362Y-140506508D01*
X85546281Y-140533338D01*
X85527647Y-140558463D01*
X85506640Y-140581640D01*
X85483463Y-140602647D01*
X85458338Y-140621281D01*
X85431508Y-140637362D01*
X85403230Y-140650737D01*
X85373778Y-140661275D01*
X85343435Y-140668875D01*
X85312493Y-140673465D01*
X85281250Y-140675000D01*
X84643750Y-140675000D01*
X84612507Y-140673465D01*
X84581565Y-140668875D01*
X84551222Y-140661275D01*
X84521770Y-140650737D01*
X84493492Y-140637362D01*
X84466662Y-140621281D01*
X84441537Y-140602647D01*
X84418360Y-140581640D01*
X84397353Y-140558463D01*
X84378719Y-140533338D01*
X84362638Y-140506508D01*
X84349263Y-140478230D01*
X84338725Y-140448778D01*
X84331125Y-140418435D01*
X84326535Y-140387493D01*
X84325000Y-140356250D01*
X84325000Y-139643750D01*
X84326535Y-139612507D01*
X84331125Y-139581565D01*
X84338725Y-139551222D01*
X84349263Y-139521770D01*
X84362638Y-139493492D01*
X84378719Y-139466662D01*
X84397353Y-139441537D01*
X84418360Y-139418360D01*
X84441537Y-139397353D01*
X84466662Y-139378719D01*
X84493492Y-139362638D01*
X84521770Y-139349263D01*
X84551222Y-139338725D01*
X84581565Y-139331125D01*
X84612507Y-139326535D01*
X84643750Y-139325000D01*
X85281250Y-139325000D01*
X85312493Y-139326535D01*
X85312493Y-139326535D01*
G37*
D11*
X84962500Y-140000000D03*
D10*
G36*
X86887493Y-139326535D02*
G01*
X86918435Y-139331125D01*
X86948778Y-139338725D01*
X86978230Y-139349263D01*
X87006508Y-139362638D01*
X87033338Y-139378719D01*
X87058463Y-139397353D01*
X87081640Y-139418360D01*
X87102647Y-139441537D01*
X87121281Y-139466662D01*
X87137362Y-139493492D01*
X87150737Y-139521770D01*
X87161275Y-139551222D01*
X87168875Y-139581565D01*
X87173465Y-139612507D01*
X87175000Y-139643750D01*
X87175000Y-140356250D01*
X87173465Y-140387493D01*
X87168875Y-140418435D01*
X87161275Y-140448778D01*
X87150737Y-140478230D01*
X87137362Y-140506508D01*
X87121281Y-140533338D01*
X87102647Y-140558463D01*
X87081640Y-140581640D01*
X87058463Y-140602647D01*
X87033338Y-140621281D01*
X87006508Y-140637362D01*
X86978230Y-140650737D01*
X86948778Y-140661275D01*
X86918435Y-140668875D01*
X86887493Y-140673465D01*
X86856250Y-140675000D01*
X86218750Y-140675000D01*
X86187507Y-140673465D01*
X86156565Y-140668875D01*
X86126222Y-140661275D01*
X86096770Y-140650737D01*
X86068492Y-140637362D01*
X86041662Y-140621281D01*
X86016537Y-140602647D01*
X85993360Y-140581640D01*
X85972353Y-140558463D01*
X85953719Y-140533338D01*
X85937638Y-140506508D01*
X85924263Y-140478230D01*
X85913725Y-140448778D01*
X85906125Y-140418435D01*
X85901535Y-140387493D01*
X85900000Y-140356250D01*
X85900000Y-139643750D01*
X85901535Y-139612507D01*
X85906125Y-139581565D01*
X85913725Y-139551222D01*
X85924263Y-139521770D01*
X85937638Y-139493492D01*
X85953719Y-139466662D01*
X85972353Y-139441537D01*
X85993360Y-139418360D01*
X86016537Y-139397353D01*
X86041662Y-139378719D01*
X86068492Y-139362638D01*
X86096770Y-139349263D01*
X86126222Y-139338725D01*
X86156565Y-139331125D01*
X86187507Y-139326535D01*
X86218750Y-139325000D01*
X86856250Y-139325000D01*
X86887493Y-139326535D01*
X86887493Y-139326535D01*
G37*
D11*
X86537500Y-140000000D03*
D10*
G36*
X82744637Y-149576535D02*
G01*
X82775579Y-149581125D01*
X82805922Y-149588725D01*
X82835374Y-149599263D01*
X82863652Y-149612638D01*
X82890482Y-149628719D01*
X82915607Y-149647353D01*
X82938784Y-149668360D01*
X82959791Y-149691537D01*
X82978425Y-149716662D01*
X82994506Y-149743492D01*
X83007881Y-149771770D01*
X83018419Y-149801222D01*
X83026019Y-149831565D01*
X83030609Y-149862507D01*
X83032144Y-149893750D01*
X83032144Y-150606250D01*
X83030609Y-150637493D01*
X83026019Y-150668435D01*
X83018419Y-150698778D01*
X83007881Y-150728230D01*
X82994506Y-150756508D01*
X82978425Y-150783338D01*
X82959791Y-150808463D01*
X82938784Y-150831640D01*
X82915607Y-150852647D01*
X82890482Y-150871281D01*
X82863652Y-150887362D01*
X82835374Y-150900737D01*
X82805922Y-150911275D01*
X82775579Y-150918875D01*
X82744637Y-150923465D01*
X82713394Y-150925000D01*
X82075894Y-150925000D01*
X82044651Y-150923465D01*
X82013709Y-150918875D01*
X81983366Y-150911275D01*
X81953914Y-150900737D01*
X81925636Y-150887362D01*
X81898806Y-150871281D01*
X81873681Y-150852647D01*
X81850504Y-150831640D01*
X81829497Y-150808463D01*
X81810863Y-150783338D01*
X81794782Y-150756508D01*
X81781407Y-150728230D01*
X81770869Y-150698778D01*
X81763269Y-150668435D01*
X81758679Y-150637493D01*
X81757144Y-150606250D01*
X81757144Y-149893750D01*
X81758679Y-149862507D01*
X81763269Y-149831565D01*
X81770869Y-149801222D01*
X81781407Y-149771770D01*
X81794782Y-149743492D01*
X81810863Y-149716662D01*
X81829497Y-149691537D01*
X81850504Y-149668360D01*
X81873681Y-149647353D01*
X81898806Y-149628719D01*
X81925636Y-149612638D01*
X81953914Y-149599263D01*
X81983366Y-149588725D01*
X82013709Y-149581125D01*
X82044651Y-149576535D01*
X82075894Y-149575000D01*
X82713394Y-149575000D01*
X82744637Y-149576535D01*
X82744637Y-149576535D01*
G37*
D11*
X82394644Y-150250000D03*
D10*
G36*
X84319637Y-149576535D02*
G01*
X84350579Y-149581125D01*
X84380922Y-149588725D01*
X84410374Y-149599263D01*
X84438652Y-149612638D01*
X84465482Y-149628719D01*
X84490607Y-149647353D01*
X84513784Y-149668360D01*
X84534791Y-149691537D01*
X84553425Y-149716662D01*
X84569506Y-149743492D01*
X84582881Y-149771770D01*
X84593419Y-149801222D01*
X84601019Y-149831565D01*
X84605609Y-149862507D01*
X84607144Y-149893750D01*
X84607144Y-150606250D01*
X84605609Y-150637493D01*
X84601019Y-150668435D01*
X84593419Y-150698778D01*
X84582881Y-150728230D01*
X84569506Y-150756508D01*
X84553425Y-150783338D01*
X84534791Y-150808463D01*
X84513784Y-150831640D01*
X84490607Y-150852647D01*
X84465482Y-150871281D01*
X84438652Y-150887362D01*
X84410374Y-150900737D01*
X84380922Y-150911275D01*
X84350579Y-150918875D01*
X84319637Y-150923465D01*
X84288394Y-150925000D01*
X83650894Y-150925000D01*
X83619651Y-150923465D01*
X83588709Y-150918875D01*
X83558366Y-150911275D01*
X83528914Y-150900737D01*
X83500636Y-150887362D01*
X83473806Y-150871281D01*
X83448681Y-150852647D01*
X83425504Y-150831640D01*
X83404497Y-150808463D01*
X83385863Y-150783338D01*
X83369782Y-150756508D01*
X83356407Y-150728230D01*
X83345869Y-150698778D01*
X83338269Y-150668435D01*
X83333679Y-150637493D01*
X83332144Y-150606250D01*
X83332144Y-149893750D01*
X83333679Y-149862507D01*
X83338269Y-149831565D01*
X83345869Y-149801222D01*
X83356407Y-149771770D01*
X83369782Y-149743492D01*
X83385863Y-149716662D01*
X83404497Y-149691537D01*
X83425504Y-149668360D01*
X83448681Y-149647353D01*
X83473806Y-149628719D01*
X83500636Y-149612638D01*
X83528914Y-149599263D01*
X83558366Y-149588725D01*
X83588709Y-149581125D01*
X83619651Y-149576535D01*
X83650894Y-149575000D01*
X84288394Y-149575000D01*
X84319637Y-149576535D01*
X84319637Y-149576535D01*
G37*
D11*
X83969644Y-150250000D03*
D10*
G36*
X84319637Y-147576535D02*
G01*
X84350579Y-147581125D01*
X84380922Y-147588725D01*
X84410374Y-147599263D01*
X84438652Y-147612638D01*
X84465482Y-147628719D01*
X84490607Y-147647353D01*
X84513784Y-147668360D01*
X84534791Y-147691537D01*
X84553425Y-147716662D01*
X84569506Y-147743492D01*
X84582881Y-147771770D01*
X84593419Y-147801222D01*
X84601019Y-147831565D01*
X84605609Y-147862507D01*
X84607144Y-147893750D01*
X84607144Y-148606250D01*
X84605609Y-148637493D01*
X84601019Y-148668435D01*
X84593419Y-148698778D01*
X84582881Y-148728230D01*
X84569506Y-148756508D01*
X84553425Y-148783338D01*
X84534791Y-148808463D01*
X84513784Y-148831640D01*
X84490607Y-148852647D01*
X84465482Y-148871281D01*
X84438652Y-148887362D01*
X84410374Y-148900737D01*
X84380922Y-148911275D01*
X84350579Y-148918875D01*
X84319637Y-148923465D01*
X84288394Y-148925000D01*
X83650894Y-148925000D01*
X83619651Y-148923465D01*
X83588709Y-148918875D01*
X83558366Y-148911275D01*
X83528914Y-148900737D01*
X83500636Y-148887362D01*
X83473806Y-148871281D01*
X83448681Y-148852647D01*
X83425504Y-148831640D01*
X83404497Y-148808463D01*
X83385863Y-148783338D01*
X83369782Y-148756508D01*
X83356407Y-148728230D01*
X83345869Y-148698778D01*
X83338269Y-148668435D01*
X83333679Y-148637493D01*
X83332144Y-148606250D01*
X83332144Y-147893750D01*
X83333679Y-147862507D01*
X83338269Y-147831565D01*
X83345869Y-147801222D01*
X83356407Y-147771770D01*
X83369782Y-147743492D01*
X83385863Y-147716662D01*
X83404497Y-147691537D01*
X83425504Y-147668360D01*
X83448681Y-147647353D01*
X83473806Y-147628719D01*
X83500636Y-147612638D01*
X83528914Y-147599263D01*
X83558366Y-147588725D01*
X83588709Y-147581125D01*
X83619651Y-147576535D01*
X83650894Y-147575000D01*
X84288394Y-147575000D01*
X84319637Y-147576535D01*
X84319637Y-147576535D01*
G37*
D11*
X83969644Y-148250000D03*
D10*
G36*
X82744637Y-147576535D02*
G01*
X82775579Y-147581125D01*
X82805922Y-147588725D01*
X82835374Y-147599263D01*
X82863652Y-147612638D01*
X82890482Y-147628719D01*
X82915607Y-147647353D01*
X82938784Y-147668360D01*
X82959791Y-147691537D01*
X82978425Y-147716662D01*
X82994506Y-147743492D01*
X83007881Y-147771770D01*
X83018419Y-147801222D01*
X83026019Y-147831565D01*
X83030609Y-147862507D01*
X83032144Y-147893750D01*
X83032144Y-148606250D01*
X83030609Y-148637493D01*
X83026019Y-148668435D01*
X83018419Y-148698778D01*
X83007881Y-148728230D01*
X82994506Y-148756508D01*
X82978425Y-148783338D01*
X82959791Y-148808463D01*
X82938784Y-148831640D01*
X82915607Y-148852647D01*
X82890482Y-148871281D01*
X82863652Y-148887362D01*
X82835374Y-148900737D01*
X82805922Y-148911275D01*
X82775579Y-148918875D01*
X82744637Y-148923465D01*
X82713394Y-148925000D01*
X82075894Y-148925000D01*
X82044651Y-148923465D01*
X82013709Y-148918875D01*
X81983366Y-148911275D01*
X81953914Y-148900737D01*
X81925636Y-148887362D01*
X81898806Y-148871281D01*
X81873681Y-148852647D01*
X81850504Y-148831640D01*
X81829497Y-148808463D01*
X81810863Y-148783338D01*
X81794782Y-148756508D01*
X81781407Y-148728230D01*
X81770869Y-148698778D01*
X81763269Y-148668435D01*
X81758679Y-148637493D01*
X81757144Y-148606250D01*
X81757144Y-147893750D01*
X81758679Y-147862507D01*
X81763269Y-147831565D01*
X81770869Y-147801222D01*
X81781407Y-147771770D01*
X81794782Y-147743492D01*
X81810863Y-147716662D01*
X81829497Y-147691537D01*
X81850504Y-147668360D01*
X81873681Y-147647353D01*
X81898806Y-147628719D01*
X81925636Y-147612638D01*
X81953914Y-147599263D01*
X81983366Y-147588725D01*
X82013709Y-147581125D01*
X82044651Y-147576535D01*
X82075894Y-147575000D01*
X82713394Y-147575000D01*
X82744637Y-147576535D01*
X82744637Y-147576535D01*
G37*
D11*
X82394644Y-148250000D03*
D10*
G36*
X72887493Y-127826535D02*
G01*
X72918435Y-127831125D01*
X72948778Y-127838725D01*
X72978230Y-127849263D01*
X73006508Y-127862638D01*
X73033338Y-127878719D01*
X73058463Y-127897353D01*
X73081640Y-127918360D01*
X73102647Y-127941537D01*
X73121281Y-127966662D01*
X73137362Y-127993492D01*
X73150737Y-128021770D01*
X73161275Y-128051222D01*
X73168875Y-128081565D01*
X73173465Y-128112507D01*
X73175000Y-128143750D01*
X73175000Y-128781250D01*
X73173465Y-128812493D01*
X73168875Y-128843435D01*
X73161275Y-128873778D01*
X73150737Y-128903230D01*
X73137362Y-128931508D01*
X73121281Y-128958338D01*
X73102647Y-128983463D01*
X73081640Y-129006640D01*
X73058463Y-129027647D01*
X73033338Y-129046281D01*
X73006508Y-129062362D01*
X72978230Y-129075737D01*
X72948778Y-129086275D01*
X72918435Y-129093875D01*
X72887493Y-129098465D01*
X72856250Y-129100000D01*
X72143750Y-129100000D01*
X72112507Y-129098465D01*
X72081565Y-129093875D01*
X72051222Y-129086275D01*
X72021770Y-129075737D01*
X71993492Y-129062362D01*
X71966662Y-129046281D01*
X71941537Y-129027647D01*
X71918360Y-129006640D01*
X71897353Y-128983463D01*
X71878719Y-128958338D01*
X71862638Y-128931508D01*
X71849263Y-128903230D01*
X71838725Y-128873778D01*
X71831125Y-128843435D01*
X71826535Y-128812493D01*
X71825000Y-128781250D01*
X71825000Y-128143750D01*
X71826535Y-128112507D01*
X71831125Y-128081565D01*
X71838725Y-128051222D01*
X71849263Y-128021770D01*
X71862638Y-127993492D01*
X71878719Y-127966662D01*
X71897353Y-127941537D01*
X71918360Y-127918360D01*
X71941537Y-127897353D01*
X71966662Y-127878719D01*
X71993492Y-127862638D01*
X72021770Y-127849263D01*
X72051222Y-127838725D01*
X72081565Y-127831125D01*
X72112507Y-127826535D01*
X72143750Y-127825000D01*
X72856250Y-127825000D01*
X72887493Y-127826535D01*
X72887493Y-127826535D01*
G37*
D11*
X72500000Y-128462500D03*
D10*
G36*
X72887493Y-129401535D02*
G01*
X72918435Y-129406125D01*
X72948778Y-129413725D01*
X72978230Y-129424263D01*
X73006508Y-129437638D01*
X73033338Y-129453719D01*
X73058463Y-129472353D01*
X73081640Y-129493360D01*
X73102647Y-129516537D01*
X73121281Y-129541662D01*
X73137362Y-129568492D01*
X73150737Y-129596770D01*
X73161275Y-129626222D01*
X73168875Y-129656565D01*
X73173465Y-129687507D01*
X73175000Y-129718750D01*
X73175000Y-130356250D01*
X73173465Y-130387493D01*
X73168875Y-130418435D01*
X73161275Y-130448778D01*
X73150737Y-130478230D01*
X73137362Y-130506508D01*
X73121281Y-130533338D01*
X73102647Y-130558463D01*
X73081640Y-130581640D01*
X73058463Y-130602647D01*
X73033338Y-130621281D01*
X73006508Y-130637362D01*
X72978230Y-130650737D01*
X72948778Y-130661275D01*
X72918435Y-130668875D01*
X72887493Y-130673465D01*
X72856250Y-130675000D01*
X72143750Y-130675000D01*
X72112507Y-130673465D01*
X72081565Y-130668875D01*
X72051222Y-130661275D01*
X72021770Y-130650737D01*
X71993492Y-130637362D01*
X71966662Y-130621281D01*
X71941537Y-130602647D01*
X71918360Y-130581640D01*
X71897353Y-130558463D01*
X71878719Y-130533338D01*
X71862638Y-130506508D01*
X71849263Y-130478230D01*
X71838725Y-130448778D01*
X71831125Y-130418435D01*
X71826535Y-130387493D01*
X71825000Y-130356250D01*
X71825000Y-129718750D01*
X71826535Y-129687507D01*
X71831125Y-129656565D01*
X71838725Y-129626222D01*
X71849263Y-129596770D01*
X71862638Y-129568492D01*
X71878719Y-129541662D01*
X71897353Y-129516537D01*
X71918360Y-129493360D01*
X71941537Y-129472353D01*
X71966662Y-129453719D01*
X71993492Y-129437638D01*
X72021770Y-129424263D01*
X72051222Y-129413725D01*
X72081565Y-129406125D01*
X72112507Y-129401535D01*
X72143750Y-129400000D01*
X72856250Y-129400000D01*
X72887493Y-129401535D01*
X72887493Y-129401535D01*
G37*
D11*
X72500000Y-130037500D03*
D10*
G36*
X66387493Y-146326535D02*
G01*
X66418435Y-146331125D01*
X66448778Y-146338725D01*
X66478230Y-146349263D01*
X66506508Y-146362638D01*
X66533338Y-146378719D01*
X66558463Y-146397353D01*
X66581640Y-146418360D01*
X66602647Y-146441537D01*
X66621281Y-146466662D01*
X66637362Y-146493492D01*
X66650737Y-146521770D01*
X66661275Y-146551222D01*
X66668875Y-146581565D01*
X66673465Y-146612507D01*
X66675000Y-146643750D01*
X66675000Y-147356250D01*
X66673465Y-147387493D01*
X66668875Y-147418435D01*
X66661275Y-147448778D01*
X66650737Y-147478230D01*
X66637362Y-147506508D01*
X66621281Y-147533338D01*
X66602647Y-147558463D01*
X66581640Y-147581640D01*
X66558463Y-147602647D01*
X66533338Y-147621281D01*
X66506508Y-147637362D01*
X66478230Y-147650737D01*
X66448778Y-147661275D01*
X66418435Y-147668875D01*
X66387493Y-147673465D01*
X66356250Y-147675000D01*
X65718750Y-147675000D01*
X65687507Y-147673465D01*
X65656565Y-147668875D01*
X65626222Y-147661275D01*
X65596770Y-147650737D01*
X65568492Y-147637362D01*
X65541662Y-147621281D01*
X65516537Y-147602647D01*
X65493360Y-147581640D01*
X65472353Y-147558463D01*
X65453719Y-147533338D01*
X65437638Y-147506508D01*
X65424263Y-147478230D01*
X65413725Y-147448778D01*
X65406125Y-147418435D01*
X65401535Y-147387493D01*
X65400000Y-147356250D01*
X65400000Y-146643750D01*
X65401535Y-146612507D01*
X65406125Y-146581565D01*
X65413725Y-146551222D01*
X65424263Y-146521770D01*
X65437638Y-146493492D01*
X65453719Y-146466662D01*
X65472353Y-146441537D01*
X65493360Y-146418360D01*
X65516537Y-146397353D01*
X65541662Y-146378719D01*
X65568492Y-146362638D01*
X65596770Y-146349263D01*
X65626222Y-146338725D01*
X65656565Y-146331125D01*
X65687507Y-146326535D01*
X65718750Y-146325000D01*
X66356250Y-146325000D01*
X66387493Y-146326535D01*
X66387493Y-146326535D01*
G37*
D11*
X66037500Y-147000000D03*
D10*
G36*
X64812493Y-146326535D02*
G01*
X64843435Y-146331125D01*
X64873778Y-146338725D01*
X64903230Y-146349263D01*
X64931508Y-146362638D01*
X64958338Y-146378719D01*
X64983463Y-146397353D01*
X65006640Y-146418360D01*
X65027647Y-146441537D01*
X65046281Y-146466662D01*
X65062362Y-146493492D01*
X65075737Y-146521770D01*
X65086275Y-146551222D01*
X65093875Y-146581565D01*
X65098465Y-146612507D01*
X65100000Y-146643750D01*
X65100000Y-147356250D01*
X65098465Y-147387493D01*
X65093875Y-147418435D01*
X65086275Y-147448778D01*
X65075737Y-147478230D01*
X65062362Y-147506508D01*
X65046281Y-147533338D01*
X65027647Y-147558463D01*
X65006640Y-147581640D01*
X64983463Y-147602647D01*
X64958338Y-147621281D01*
X64931508Y-147637362D01*
X64903230Y-147650737D01*
X64873778Y-147661275D01*
X64843435Y-147668875D01*
X64812493Y-147673465D01*
X64781250Y-147675000D01*
X64143750Y-147675000D01*
X64112507Y-147673465D01*
X64081565Y-147668875D01*
X64051222Y-147661275D01*
X64021770Y-147650737D01*
X63993492Y-147637362D01*
X63966662Y-147621281D01*
X63941537Y-147602647D01*
X63918360Y-147581640D01*
X63897353Y-147558463D01*
X63878719Y-147533338D01*
X63862638Y-147506508D01*
X63849263Y-147478230D01*
X63838725Y-147448778D01*
X63831125Y-147418435D01*
X63826535Y-147387493D01*
X63825000Y-147356250D01*
X63825000Y-146643750D01*
X63826535Y-146612507D01*
X63831125Y-146581565D01*
X63838725Y-146551222D01*
X63849263Y-146521770D01*
X63862638Y-146493492D01*
X63878719Y-146466662D01*
X63897353Y-146441537D01*
X63918360Y-146418360D01*
X63941537Y-146397353D01*
X63966662Y-146378719D01*
X63993492Y-146362638D01*
X64021770Y-146349263D01*
X64051222Y-146338725D01*
X64081565Y-146331125D01*
X64112507Y-146326535D01*
X64143750Y-146325000D01*
X64781250Y-146325000D01*
X64812493Y-146326535D01*
X64812493Y-146326535D01*
G37*
D11*
X64462500Y-147000000D03*
D10*
G36*
X64812493Y-142527456D02*
G01*
X64843435Y-142532046D01*
X64873778Y-142539646D01*
X64903230Y-142550184D01*
X64931508Y-142563559D01*
X64958338Y-142579640D01*
X64983463Y-142598274D01*
X65006640Y-142619281D01*
X65027647Y-142642458D01*
X65046281Y-142667583D01*
X65062362Y-142694413D01*
X65075737Y-142722691D01*
X65086275Y-142752143D01*
X65093875Y-142782486D01*
X65098465Y-142813428D01*
X65100000Y-142844671D01*
X65100000Y-143557171D01*
X65098465Y-143588414D01*
X65093875Y-143619356D01*
X65086275Y-143649699D01*
X65075737Y-143679151D01*
X65062362Y-143707429D01*
X65046281Y-143734259D01*
X65027647Y-143759384D01*
X65006640Y-143782561D01*
X64983463Y-143803568D01*
X64958338Y-143822202D01*
X64931508Y-143838283D01*
X64903230Y-143851658D01*
X64873778Y-143862196D01*
X64843435Y-143869796D01*
X64812493Y-143874386D01*
X64781250Y-143875921D01*
X64143750Y-143875921D01*
X64112507Y-143874386D01*
X64081565Y-143869796D01*
X64051222Y-143862196D01*
X64021770Y-143851658D01*
X63993492Y-143838283D01*
X63966662Y-143822202D01*
X63941537Y-143803568D01*
X63918360Y-143782561D01*
X63897353Y-143759384D01*
X63878719Y-143734259D01*
X63862638Y-143707429D01*
X63849263Y-143679151D01*
X63838725Y-143649699D01*
X63831125Y-143619356D01*
X63826535Y-143588414D01*
X63825000Y-143557171D01*
X63825000Y-142844671D01*
X63826535Y-142813428D01*
X63831125Y-142782486D01*
X63838725Y-142752143D01*
X63849263Y-142722691D01*
X63862638Y-142694413D01*
X63878719Y-142667583D01*
X63897353Y-142642458D01*
X63918360Y-142619281D01*
X63941537Y-142598274D01*
X63966662Y-142579640D01*
X63993492Y-142563559D01*
X64021770Y-142550184D01*
X64051222Y-142539646D01*
X64081565Y-142532046D01*
X64112507Y-142527456D01*
X64143750Y-142525921D01*
X64781250Y-142525921D01*
X64812493Y-142527456D01*
X64812493Y-142527456D01*
G37*
D11*
X64462500Y-143200921D03*
D10*
G36*
X66387493Y-142527456D02*
G01*
X66418435Y-142532046D01*
X66448778Y-142539646D01*
X66478230Y-142550184D01*
X66506508Y-142563559D01*
X66533338Y-142579640D01*
X66558463Y-142598274D01*
X66581640Y-142619281D01*
X66602647Y-142642458D01*
X66621281Y-142667583D01*
X66637362Y-142694413D01*
X66650737Y-142722691D01*
X66661275Y-142752143D01*
X66668875Y-142782486D01*
X66673465Y-142813428D01*
X66675000Y-142844671D01*
X66675000Y-143557171D01*
X66673465Y-143588414D01*
X66668875Y-143619356D01*
X66661275Y-143649699D01*
X66650737Y-143679151D01*
X66637362Y-143707429D01*
X66621281Y-143734259D01*
X66602647Y-143759384D01*
X66581640Y-143782561D01*
X66558463Y-143803568D01*
X66533338Y-143822202D01*
X66506508Y-143838283D01*
X66478230Y-143851658D01*
X66448778Y-143862196D01*
X66418435Y-143869796D01*
X66387493Y-143874386D01*
X66356250Y-143875921D01*
X65718750Y-143875921D01*
X65687507Y-143874386D01*
X65656565Y-143869796D01*
X65626222Y-143862196D01*
X65596770Y-143851658D01*
X65568492Y-143838283D01*
X65541662Y-143822202D01*
X65516537Y-143803568D01*
X65493360Y-143782561D01*
X65472353Y-143759384D01*
X65453719Y-143734259D01*
X65437638Y-143707429D01*
X65424263Y-143679151D01*
X65413725Y-143649699D01*
X65406125Y-143619356D01*
X65401535Y-143588414D01*
X65400000Y-143557171D01*
X65400000Y-142844671D01*
X65401535Y-142813428D01*
X65406125Y-142782486D01*
X65413725Y-142752143D01*
X65424263Y-142722691D01*
X65437638Y-142694413D01*
X65453719Y-142667583D01*
X65472353Y-142642458D01*
X65493360Y-142619281D01*
X65516537Y-142598274D01*
X65541662Y-142579640D01*
X65568492Y-142563559D01*
X65596770Y-142550184D01*
X65626222Y-142539646D01*
X65656565Y-142532046D01*
X65687507Y-142527456D01*
X65718750Y-142525921D01*
X66356250Y-142525921D01*
X66387493Y-142527456D01*
X66387493Y-142527456D01*
G37*
D11*
X66037500Y-143200921D03*
D10*
G36*
X85887493Y-135326535D02*
G01*
X85918435Y-135331125D01*
X85948778Y-135338725D01*
X85978230Y-135349263D01*
X86006508Y-135362638D01*
X86033338Y-135378719D01*
X86058463Y-135397353D01*
X86081640Y-135418360D01*
X86102647Y-135441537D01*
X86121281Y-135466662D01*
X86137362Y-135493492D01*
X86150737Y-135521770D01*
X86161275Y-135551222D01*
X86168875Y-135581565D01*
X86173465Y-135612507D01*
X86175000Y-135643750D01*
X86175000Y-136356250D01*
X86173465Y-136387493D01*
X86168875Y-136418435D01*
X86161275Y-136448778D01*
X86150737Y-136478230D01*
X86137362Y-136506508D01*
X86121281Y-136533338D01*
X86102647Y-136558463D01*
X86081640Y-136581640D01*
X86058463Y-136602647D01*
X86033338Y-136621281D01*
X86006508Y-136637362D01*
X85978230Y-136650737D01*
X85948778Y-136661275D01*
X85918435Y-136668875D01*
X85887493Y-136673465D01*
X85856250Y-136675000D01*
X85218750Y-136675000D01*
X85187507Y-136673465D01*
X85156565Y-136668875D01*
X85126222Y-136661275D01*
X85096770Y-136650737D01*
X85068492Y-136637362D01*
X85041662Y-136621281D01*
X85016537Y-136602647D01*
X84993360Y-136581640D01*
X84972353Y-136558463D01*
X84953719Y-136533338D01*
X84937638Y-136506508D01*
X84924263Y-136478230D01*
X84913725Y-136448778D01*
X84906125Y-136418435D01*
X84901535Y-136387493D01*
X84900000Y-136356250D01*
X84900000Y-135643750D01*
X84901535Y-135612507D01*
X84906125Y-135581565D01*
X84913725Y-135551222D01*
X84924263Y-135521770D01*
X84937638Y-135493492D01*
X84953719Y-135466662D01*
X84972353Y-135441537D01*
X84993360Y-135418360D01*
X85016537Y-135397353D01*
X85041662Y-135378719D01*
X85068492Y-135362638D01*
X85096770Y-135349263D01*
X85126222Y-135338725D01*
X85156565Y-135331125D01*
X85187507Y-135326535D01*
X85218750Y-135325000D01*
X85856250Y-135325000D01*
X85887493Y-135326535D01*
X85887493Y-135326535D01*
G37*
D11*
X85537500Y-136000000D03*
D10*
G36*
X84312493Y-135326535D02*
G01*
X84343435Y-135331125D01*
X84373778Y-135338725D01*
X84403230Y-135349263D01*
X84431508Y-135362638D01*
X84458338Y-135378719D01*
X84483463Y-135397353D01*
X84506640Y-135418360D01*
X84527647Y-135441537D01*
X84546281Y-135466662D01*
X84562362Y-135493492D01*
X84575737Y-135521770D01*
X84586275Y-135551222D01*
X84593875Y-135581565D01*
X84598465Y-135612507D01*
X84600000Y-135643750D01*
X84600000Y-136356250D01*
X84598465Y-136387493D01*
X84593875Y-136418435D01*
X84586275Y-136448778D01*
X84575737Y-136478230D01*
X84562362Y-136506508D01*
X84546281Y-136533338D01*
X84527647Y-136558463D01*
X84506640Y-136581640D01*
X84483463Y-136602647D01*
X84458338Y-136621281D01*
X84431508Y-136637362D01*
X84403230Y-136650737D01*
X84373778Y-136661275D01*
X84343435Y-136668875D01*
X84312493Y-136673465D01*
X84281250Y-136675000D01*
X83643750Y-136675000D01*
X83612507Y-136673465D01*
X83581565Y-136668875D01*
X83551222Y-136661275D01*
X83521770Y-136650737D01*
X83493492Y-136637362D01*
X83466662Y-136621281D01*
X83441537Y-136602647D01*
X83418360Y-136581640D01*
X83397353Y-136558463D01*
X83378719Y-136533338D01*
X83362638Y-136506508D01*
X83349263Y-136478230D01*
X83338725Y-136448778D01*
X83331125Y-136418435D01*
X83326535Y-136387493D01*
X83325000Y-136356250D01*
X83325000Y-135643750D01*
X83326535Y-135612507D01*
X83331125Y-135581565D01*
X83338725Y-135551222D01*
X83349263Y-135521770D01*
X83362638Y-135493492D01*
X83378719Y-135466662D01*
X83397353Y-135441537D01*
X83418360Y-135418360D01*
X83441537Y-135397353D01*
X83466662Y-135378719D01*
X83493492Y-135362638D01*
X83521770Y-135349263D01*
X83551222Y-135338725D01*
X83581565Y-135331125D01*
X83612507Y-135326535D01*
X83643750Y-135325000D01*
X84281250Y-135325000D01*
X84312493Y-135326535D01*
X84312493Y-135326535D01*
G37*
D11*
X83962500Y-136000000D03*
D10*
G36*
X66387493Y-144326535D02*
G01*
X66418435Y-144331125D01*
X66448778Y-144338725D01*
X66478230Y-144349263D01*
X66506508Y-144362638D01*
X66533338Y-144378719D01*
X66558463Y-144397353D01*
X66581640Y-144418360D01*
X66602647Y-144441537D01*
X66621281Y-144466662D01*
X66637362Y-144493492D01*
X66650737Y-144521770D01*
X66661275Y-144551222D01*
X66668875Y-144581565D01*
X66673465Y-144612507D01*
X66675000Y-144643750D01*
X66675000Y-145356250D01*
X66673465Y-145387493D01*
X66668875Y-145418435D01*
X66661275Y-145448778D01*
X66650737Y-145478230D01*
X66637362Y-145506508D01*
X66621281Y-145533338D01*
X66602647Y-145558463D01*
X66581640Y-145581640D01*
X66558463Y-145602647D01*
X66533338Y-145621281D01*
X66506508Y-145637362D01*
X66478230Y-145650737D01*
X66448778Y-145661275D01*
X66418435Y-145668875D01*
X66387493Y-145673465D01*
X66356250Y-145675000D01*
X65718750Y-145675000D01*
X65687507Y-145673465D01*
X65656565Y-145668875D01*
X65626222Y-145661275D01*
X65596770Y-145650737D01*
X65568492Y-145637362D01*
X65541662Y-145621281D01*
X65516537Y-145602647D01*
X65493360Y-145581640D01*
X65472353Y-145558463D01*
X65453719Y-145533338D01*
X65437638Y-145506508D01*
X65424263Y-145478230D01*
X65413725Y-145448778D01*
X65406125Y-145418435D01*
X65401535Y-145387493D01*
X65400000Y-145356250D01*
X65400000Y-144643750D01*
X65401535Y-144612507D01*
X65406125Y-144581565D01*
X65413725Y-144551222D01*
X65424263Y-144521770D01*
X65437638Y-144493492D01*
X65453719Y-144466662D01*
X65472353Y-144441537D01*
X65493360Y-144418360D01*
X65516537Y-144397353D01*
X65541662Y-144378719D01*
X65568492Y-144362638D01*
X65596770Y-144349263D01*
X65626222Y-144338725D01*
X65656565Y-144331125D01*
X65687507Y-144326535D01*
X65718750Y-144325000D01*
X66356250Y-144325000D01*
X66387493Y-144326535D01*
X66387493Y-144326535D01*
G37*
D11*
X66037500Y-145000000D03*
D10*
G36*
X64812493Y-144326535D02*
G01*
X64843435Y-144331125D01*
X64873778Y-144338725D01*
X64903230Y-144349263D01*
X64931508Y-144362638D01*
X64958338Y-144378719D01*
X64983463Y-144397353D01*
X65006640Y-144418360D01*
X65027647Y-144441537D01*
X65046281Y-144466662D01*
X65062362Y-144493492D01*
X65075737Y-144521770D01*
X65086275Y-144551222D01*
X65093875Y-144581565D01*
X65098465Y-144612507D01*
X65100000Y-144643750D01*
X65100000Y-145356250D01*
X65098465Y-145387493D01*
X65093875Y-145418435D01*
X65086275Y-145448778D01*
X65075737Y-145478230D01*
X65062362Y-145506508D01*
X65046281Y-145533338D01*
X65027647Y-145558463D01*
X65006640Y-145581640D01*
X64983463Y-145602647D01*
X64958338Y-145621281D01*
X64931508Y-145637362D01*
X64903230Y-145650737D01*
X64873778Y-145661275D01*
X64843435Y-145668875D01*
X64812493Y-145673465D01*
X64781250Y-145675000D01*
X64143750Y-145675000D01*
X64112507Y-145673465D01*
X64081565Y-145668875D01*
X64051222Y-145661275D01*
X64021770Y-145650737D01*
X63993492Y-145637362D01*
X63966662Y-145621281D01*
X63941537Y-145602647D01*
X63918360Y-145581640D01*
X63897353Y-145558463D01*
X63878719Y-145533338D01*
X63862638Y-145506508D01*
X63849263Y-145478230D01*
X63838725Y-145448778D01*
X63831125Y-145418435D01*
X63826535Y-145387493D01*
X63825000Y-145356250D01*
X63825000Y-144643750D01*
X63826535Y-144612507D01*
X63831125Y-144581565D01*
X63838725Y-144551222D01*
X63849263Y-144521770D01*
X63862638Y-144493492D01*
X63878719Y-144466662D01*
X63897353Y-144441537D01*
X63918360Y-144418360D01*
X63941537Y-144397353D01*
X63966662Y-144378719D01*
X63993492Y-144362638D01*
X64021770Y-144349263D01*
X64051222Y-144338725D01*
X64081565Y-144331125D01*
X64112507Y-144326535D01*
X64143750Y-144325000D01*
X64781250Y-144325000D01*
X64812493Y-144326535D01*
X64812493Y-144326535D01*
G37*
D11*
X64462500Y-145000000D03*
D10*
G36*
X74637493Y-129401535D02*
G01*
X74668435Y-129406125D01*
X74698778Y-129413725D01*
X74728230Y-129424263D01*
X74756508Y-129437638D01*
X74783338Y-129453719D01*
X74808463Y-129472353D01*
X74831640Y-129493360D01*
X74852647Y-129516537D01*
X74871281Y-129541662D01*
X74887362Y-129568492D01*
X74900737Y-129596770D01*
X74911275Y-129626222D01*
X74918875Y-129656565D01*
X74923465Y-129687507D01*
X74925000Y-129718750D01*
X74925000Y-130356250D01*
X74923465Y-130387493D01*
X74918875Y-130418435D01*
X74911275Y-130448778D01*
X74900737Y-130478230D01*
X74887362Y-130506508D01*
X74871281Y-130533338D01*
X74852647Y-130558463D01*
X74831640Y-130581640D01*
X74808463Y-130602647D01*
X74783338Y-130621281D01*
X74756508Y-130637362D01*
X74728230Y-130650737D01*
X74698778Y-130661275D01*
X74668435Y-130668875D01*
X74637493Y-130673465D01*
X74606250Y-130675000D01*
X73893750Y-130675000D01*
X73862507Y-130673465D01*
X73831565Y-130668875D01*
X73801222Y-130661275D01*
X73771770Y-130650737D01*
X73743492Y-130637362D01*
X73716662Y-130621281D01*
X73691537Y-130602647D01*
X73668360Y-130581640D01*
X73647353Y-130558463D01*
X73628719Y-130533338D01*
X73612638Y-130506508D01*
X73599263Y-130478230D01*
X73588725Y-130448778D01*
X73581125Y-130418435D01*
X73576535Y-130387493D01*
X73575000Y-130356250D01*
X73575000Y-129718750D01*
X73576535Y-129687507D01*
X73581125Y-129656565D01*
X73588725Y-129626222D01*
X73599263Y-129596770D01*
X73612638Y-129568492D01*
X73628719Y-129541662D01*
X73647353Y-129516537D01*
X73668360Y-129493360D01*
X73691537Y-129472353D01*
X73716662Y-129453719D01*
X73743492Y-129437638D01*
X73771770Y-129424263D01*
X73801222Y-129413725D01*
X73831565Y-129406125D01*
X73862507Y-129401535D01*
X73893750Y-129400000D01*
X74606250Y-129400000D01*
X74637493Y-129401535D01*
X74637493Y-129401535D01*
G37*
D11*
X74250000Y-130037500D03*
D10*
G36*
X74637493Y-127826535D02*
G01*
X74668435Y-127831125D01*
X74698778Y-127838725D01*
X74728230Y-127849263D01*
X74756508Y-127862638D01*
X74783338Y-127878719D01*
X74808463Y-127897353D01*
X74831640Y-127918360D01*
X74852647Y-127941537D01*
X74871281Y-127966662D01*
X74887362Y-127993492D01*
X74900737Y-128021770D01*
X74911275Y-128051222D01*
X74918875Y-128081565D01*
X74923465Y-128112507D01*
X74925000Y-128143750D01*
X74925000Y-128781250D01*
X74923465Y-128812493D01*
X74918875Y-128843435D01*
X74911275Y-128873778D01*
X74900737Y-128903230D01*
X74887362Y-128931508D01*
X74871281Y-128958338D01*
X74852647Y-128983463D01*
X74831640Y-129006640D01*
X74808463Y-129027647D01*
X74783338Y-129046281D01*
X74756508Y-129062362D01*
X74728230Y-129075737D01*
X74698778Y-129086275D01*
X74668435Y-129093875D01*
X74637493Y-129098465D01*
X74606250Y-129100000D01*
X73893750Y-129100000D01*
X73862507Y-129098465D01*
X73831565Y-129093875D01*
X73801222Y-129086275D01*
X73771770Y-129075737D01*
X73743492Y-129062362D01*
X73716662Y-129046281D01*
X73691537Y-129027647D01*
X73668360Y-129006640D01*
X73647353Y-128983463D01*
X73628719Y-128958338D01*
X73612638Y-128931508D01*
X73599263Y-128903230D01*
X73588725Y-128873778D01*
X73581125Y-128843435D01*
X73576535Y-128812493D01*
X73575000Y-128781250D01*
X73575000Y-128143750D01*
X73576535Y-128112507D01*
X73581125Y-128081565D01*
X73588725Y-128051222D01*
X73599263Y-128021770D01*
X73612638Y-127993492D01*
X73628719Y-127966662D01*
X73647353Y-127941537D01*
X73668360Y-127918360D01*
X73691537Y-127897353D01*
X73716662Y-127878719D01*
X73743492Y-127862638D01*
X73771770Y-127849263D01*
X73801222Y-127838725D01*
X73831565Y-127831125D01*
X73862507Y-127826535D01*
X73893750Y-127825000D01*
X74606250Y-127825000D01*
X74637493Y-127826535D01*
X74637493Y-127826535D01*
G37*
D11*
X74250000Y-128462500D03*
D20*
X70150000Y-136000000D03*
X70150000Y-136500000D03*
X70150000Y-137000000D03*
X70150000Y-137500000D03*
X70150000Y-138000000D03*
X70150000Y-138500000D03*
X70150000Y-139000000D03*
X70150000Y-139500000D03*
X70150000Y-140000000D03*
X70150000Y-140500000D03*
X70150000Y-141000000D03*
X70150000Y-141500000D03*
D21*
X71750000Y-143100000D03*
X72250000Y-143100000D03*
X72750000Y-143100000D03*
X73250000Y-143100000D03*
X73750000Y-143100000D03*
X74250000Y-143100000D03*
X74750000Y-143100000D03*
X75250000Y-143100000D03*
X75750000Y-143100000D03*
X76250000Y-143100000D03*
X76750000Y-143100000D03*
X77250000Y-143100000D03*
D20*
X78850000Y-141500000D03*
X78850000Y-141000000D03*
X78850000Y-140500000D03*
X78850000Y-140000000D03*
X78850000Y-139500000D03*
X78850000Y-139000000D03*
X78850000Y-138500000D03*
X78850000Y-138000000D03*
X78850000Y-137500000D03*
X78850000Y-137000000D03*
X78850000Y-136500000D03*
X78850000Y-136000000D03*
D21*
X77250000Y-134400000D03*
X76750000Y-134400000D03*
X76250000Y-134400000D03*
X75750000Y-134400000D03*
X75250000Y-134400000D03*
X74750000Y-134400000D03*
X74250000Y-134400000D03*
X73750000Y-134400000D03*
X73250000Y-134400000D03*
X72750000Y-134400000D03*
X72250000Y-134400000D03*
X71750000Y-134400000D03*
D22*
X91450000Y-138150000D03*
X90500000Y-138150000D03*
X89550000Y-138150000D03*
X89550000Y-140350000D03*
X91450000Y-140350000D03*
X90500000Y-140350000D03*
D10*
G36*
X88637493Y-135439035D02*
G01*
X88668435Y-135443625D01*
X88698778Y-135451225D01*
X88728230Y-135461763D01*
X88756508Y-135475138D01*
X88783338Y-135491219D01*
X88808463Y-135509853D01*
X88831640Y-135530860D01*
X88852647Y-135554037D01*
X88871281Y-135579162D01*
X88887362Y-135605992D01*
X88900737Y-135634270D01*
X88911275Y-135663722D01*
X88918875Y-135694065D01*
X88923465Y-135725007D01*
X88925000Y-135756250D01*
X88925000Y-136393750D01*
X88923465Y-136424993D01*
X88918875Y-136455935D01*
X88911275Y-136486278D01*
X88900737Y-136515730D01*
X88887362Y-136544008D01*
X88871281Y-136570838D01*
X88852647Y-136595963D01*
X88831640Y-136619140D01*
X88808463Y-136640147D01*
X88783338Y-136658781D01*
X88756508Y-136674862D01*
X88728230Y-136688237D01*
X88698778Y-136698775D01*
X88668435Y-136706375D01*
X88637493Y-136710965D01*
X88606250Y-136712500D01*
X87893750Y-136712500D01*
X87862507Y-136710965D01*
X87831565Y-136706375D01*
X87801222Y-136698775D01*
X87771770Y-136688237D01*
X87743492Y-136674862D01*
X87716662Y-136658781D01*
X87691537Y-136640147D01*
X87668360Y-136619140D01*
X87647353Y-136595963D01*
X87628719Y-136570838D01*
X87612638Y-136544008D01*
X87599263Y-136515730D01*
X87588725Y-136486278D01*
X87581125Y-136455935D01*
X87576535Y-136424993D01*
X87575000Y-136393750D01*
X87575000Y-135756250D01*
X87576535Y-135725007D01*
X87581125Y-135694065D01*
X87588725Y-135663722D01*
X87599263Y-135634270D01*
X87612638Y-135605992D01*
X87628719Y-135579162D01*
X87647353Y-135554037D01*
X87668360Y-135530860D01*
X87691537Y-135509853D01*
X87716662Y-135491219D01*
X87743492Y-135475138D01*
X87771770Y-135461763D01*
X87801222Y-135451225D01*
X87831565Y-135443625D01*
X87862507Y-135439035D01*
X87893750Y-135437500D01*
X88606250Y-135437500D01*
X88637493Y-135439035D01*
X88637493Y-135439035D01*
G37*
D11*
X88250000Y-136075000D03*
D10*
G36*
X88637493Y-133864035D02*
G01*
X88668435Y-133868625D01*
X88698778Y-133876225D01*
X88728230Y-133886763D01*
X88756508Y-133900138D01*
X88783338Y-133916219D01*
X88808463Y-133934853D01*
X88831640Y-133955860D01*
X88852647Y-133979037D01*
X88871281Y-134004162D01*
X88887362Y-134030992D01*
X88900737Y-134059270D01*
X88911275Y-134088722D01*
X88918875Y-134119065D01*
X88923465Y-134150007D01*
X88925000Y-134181250D01*
X88925000Y-134818750D01*
X88923465Y-134849993D01*
X88918875Y-134880935D01*
X88911275Y-134911278D01*
X88900737Y-134940730D01*
X88887362Y-134969008D01*
X88871281Y-134995838D01*
X88852647Y-135020963D01*
X88831640Y-135044140D01*
X88808463Y-135065147D01*
X88783338Y-135083781D01*
X88756508Y-135099862D01*
X88728230Y-135113237D01*
X88698778Y-135123775D01*
X88668435Y-135131375D01*
X88637493Y-135135965D01*
X88606250Y-135137500D01*
X87893750Y-135137500D01*
X87862507Y-135135965D01*
X87831565Y-135131375D01*
X87801222Y-135123775D01*
X87771770Y-135113237D01*
X87743492Y-135099862D01*
X87716662Y-135083781D01*
X87691537Y-135065147D01*
X87668360Y-135044140D01*
X87647353Y-135020963D01*
X87628719Y-134995838D01*
X87612638Y-134969008D01*
X87599263Y-134940730D01*
X87588725Y-134911278D01*
X87581125Y-134880935D01*
X87576535Y-134849993D01*
X87575000Y-134818750D01*
X87575000Y-134181250D01*
X87576535Y-134150007D01*
X87581125Y-134119065D01*
X87588725Y-134088722D01*
X87599263Y-134059270D01*
X87612638Y-134030992D01*
X87628719Y-134004162D01*
X87647353Y-133979037D01*
X87668360Y-133955860D01*
X87691537Y-133934853D01*
X87716662Y-133916219D01*
X87743492Y-133900138D01*
X87771770Y-133886763D01*
X87801222Y-133876225D01*
X87831565Y-133868625D01*
X87862507Y-133864035D01*
X87893750Y-133862500D01*
X88606250Y-133862500D01*
X88637493Y-133864035D01*
X88637493Y-133864035D01*
G37*
D11*
X88250000Y-134500000D03*
D10*
G36*
X90387493Y-133849392D02*
G01*
X90418435Y-133853982D01*
X90448778Y-133861582D01*
X90478230Y-133872120D01*
X90506508Y-133885495D01*
X90533338Y-133901576D01*
X90558463Y-133920210D01*
X90581640Y-133941217D01*
X90602647Y-133964394D01*
X90621281Y-133989519D01*
X90637362Y-134016349D01*
X90650737Y-134044627D01*
X90661275Y-134074079D01*
X90668875Y-134104422D01*
X90673465Y-134135364D01*
X90675000Y-134166607D01*
X90675000Y-134804107D01*
X90673465Y-134835350D01*
X90668875Y-134866292D01*
X90661275Y-134896635D01*
X90650737Y-134926087D01*
X90637362Y-134954365D01*
X90621281Y-134981195D01*
X90602647Y-135006320D01*
X90581640Y-135029497D01*
X90558463Y-135050504D01*
X90533338Y-135069138D01*
X90506508Y-135085219D01*
X90478230Y-135098594D01*
X90448778Y-135109132D01*
X90418435Y-135116732D01*
X90387493Y-135121322D01*
X90356250Y-135122857D01*
X89643750Y-135122857D01*
X89612507Y-135121322D01*
X89581565Y-135116732D01*
X89551222Y-135109132D01*
X89521770Y-135098594D01*
X89493492Y-135085219D01*
X89466662Y-135069138D01*
X89441537Y-135050504D01*
X89418360Y-135029497D01*
X89397353Y-135006320D01*
X89378719Y-134981195D01*
X89362638Y-134954365D01*
X89349263Y-134926087D01*
X89338725Y-134896635D01*
X89331125Y-134866292D01*
X89326535Y-134835350D01*
X89325000Y-134804107D01*
X89325000Y-134166607D01*
X89326535Y-134135364D01*
X89331125Y-134104422D01*
X89338725Y-134074079D01*
X89349263Y-134044627D01*
X89362638Y-134016349D01*
X89378719Y-133989519D01*
X89397353Y-133964394D01*
X89418360Y-133941217D01*
X89441537Y-133920210D01*
X89466662Y-133901576D01*
X89493492Y-133885495D01*
X89521770Y-133872120D01*
X89551222Y-133861582D01*
X89581565Y-133853982D01*
X89612507Y-133849392D01*
X89643750Y-133847857D01*
X90356250Y-133847857D01*
X90387493Y-133849392D01*
X90387493Y-133849392D01*
G37*
D11*
X90000000Y-134485357D03*
D10*
G36*
X90387493Y-135424392D02*
G01*
X90418435Y-135428982D01*
X90448778Y-135436582D01*
X90478230Y-135447120D01*
X90506508Y-135460495D01*
X90533338Y-135476576D01*
X90558463Y-135495210D01*
X90581640Y-135516217D01*
X90602647Y-135539394D01*
X90621281Y-135564519D01*
X90637362Y-135591349D01*
X90650737Y-135619627D01*
X90661275Y-135649079D01*
X90668875Y-135679422D01*
X90673465Y-135710364D01*
X90675000Y-135741607D01*
X90675000Y-136379107D01*
X90673465Y-136410350D01*
X90668875Y-136441292D01*
X90661275Y-136471635D01*
X90650737Y-136501087D01*
X90637362Y-136529365D01*
X90621281Y-136556195D01*
X90602647Y-136581320D01*
X90581640Y-136604497D01*
X90558463Y-136625504D01*
X90533338Y-136644138D01*
X90506508Y-136660219D01*
X90478230Y-136673594D01*
X90448778Y-136684132D01*
X90418435Y-136691732D01*
X90387493Y-136696322D01*
X90356250Y-136697857D01*
X89643750Y-136697857D01*
X89612507Y-136696322D01*
X89581565Y-136691732D01*
X89551222Y-136684132D01*
X89521770Y-136673594D01*
X89493492Y-136660219D01*
X89466662Y-136644138D01*
X89441537Y-136625504D01*
X89418360Y-136604497D01*
X89397353Y-136581320D01*
X89378719Y-136556195D01*
X89362638Y-136529365D01*
X89349263Y-136501087D01*
X89338725Y-136471635D01*
X89331125Y-136441292D01*
X89326535Y-136410350D01*
X89325000Y-136379107D01*
X89325000Y-135741607D01*
X89326535Y-135710364D01*
X89331125Y-135679422D01*
X89338725Y-135649079D01*
X89349263Y-135619627D01*
X89362638Y-135591349D01*
X89378719Y-135564519D01*
X89397353Y-135539394D01*
X89418360Y-135516217D01*
X89441537Y-135495210D01*
X89466662Y-135476576D01*
X89493492Y-135460495D01*
X89521770Y-135447120D01*
X89551222Y-135436582D01*
X89581565Y-135428982D01*
X89612507Y-135424392D01*
X89643750Y-135422857D01*
X90356250Y-135422857D01*
X90387493Y-135424392D01*
X90387493Y-135424392D01*
G37*
D11*
X90000000Y-136060357D03*
D10*
G36*
X89137493Y-143401535D02*
G01*
X89168435Y-143406125D01*
X89198778Y-143413725D01*
X89228230Y-143424263D01*
X89256508Y-143437638D01*
X89283338Y-143453719D01*
X89308463Y-143472353D01*
X89331640Y-143493360D01*
X89352647Y-143516537D01*
X89371281Y-143541662D01*
X89387362Y-143568492D01*
X89400737Y-143596770D01*
X89411275Y-143626222D01*
X89418875Y-143656565D01*
X89423465Y-143687507D01*
X89425000Y-143718750D01*
X89425000Y-144356250D01*
X89423465Y-144387493D01*
X89418875Y-144418435D01*
X89411275Y-144448778D01*
X89400737Y-144478230D01*
X89387362Y-144506508D01*
X89371281Y-144533338D01*
X89352647Y-144558463D01*
X89331640Y-144581640D01*
X89308463Y-144602647D01*
X89283338Y-144621281D01*
X89256508Y-144637362D01*
X89228230Y-144650737D01*
X89198778Y-144661275D01*
X89168435Y-144668875D01*
X89137493Y-144673465D01*
X89106250Y-144675000D01*
X88393750Y-144675000D01*
X88362507Y-144673465D01*
X88331565Y-144668875D01*
X88301222Y-144661275D01*
X88271770Y-144650737D01*
X88243492Y-144637362D01*
X88216662Y-144621281D01*
X88191537Y-144602647D01*
X88168360Y-144581640D01*
X88147353Y-144558463D01*
X88128719Y-144533338D01*
X88112638Y-144506508D01*
X88099263Y-144478230D01*
X88088725Y-144448778D01*
X88081125Y-144418435D01*
X88076535Y-144387493D01*
X88075000Y-144356250D01*
X88075000Y-143718750D01*
X88076535Y-143687507D01*
X88081125Y-143656565D01*
X88088725Y-143626222D01*
X88099263Y-143596770D01*
X88112638Y-143568492D01*
X88128719Y-143541662D01*
X88147353Y-143516537D01*
X88168360Y-143493360D01*
X88191537Y-143472353D01*
X88216662Y-143453719D01*
X88243492Y-143437638D01*
X88271770Y-143424263D01*
X88301222Y-143413725D01*
X88331565Y-143406125D01*
X88362507Y-143401535D01*
X88393750Y-143400000D01*
X89106250Y-143400000D01*
X89137493Y-143401535D01*
X89137493Y-143401535D01*
G37*
D11*
X88750000Y-144037500D03*
D10*
G36*
X89137493Y-141826535D02*
G01*
X89168435Y-141831125D01*
X89198778Y-141838725D01*
X89228230Y-141849263D01*
X89256508Y-141862638D01*
X89283338Y-141878719D01*
X89308463Y-141897353D01*
X89331640Y-141918360D01*
X89352647Y-141941537D01*
X89371281Y-141966662D01*
X89387362Y-141993492D01*
X89400737Y-142021770D01*
X89411275Y-142051222D01*
X89418875Y-142081565D01*
X89423465Y-142112507D01*
X89425000Y-142143750D01*
X89425000Y-142781250D01*
X89423465Y-142812493D01*
X89418875Y-142843435D01*
X89411275Y-142873778D01*
X89400737Y-142903230D01*
X89387362Y-142931508D01*
X89371281Y-142958338D01*
X89352647Y-142983463D01*
X89331640Y-143006640D01*
X89308463Y-143027647D01*
X89283338Y-143046281D01*
X89256508Y-143062362D01*
X89228230Y-143075737D01*
X89198778Y-143086275D01*
X89168435Y-143093875D01*
X89137493Y-143098465D01*
X89106250Y-143100000D01*
X88393750Y-143100000D01*
X88362507Y-143098465D01*
X88331565Y-143093875D01*
X88301222Y-143086275D01*
X88271770Y-143075737D01*
X88243492Y-143062362D01*
X88216662Y-143046281D01*
X88191537Y-143027647D01*
X88168360Y-143006640D01*
X88147353Y-142983463D01*
X88128719Y-142958338D01*
X88112638Y-142931508D01*
X88099263Y-142903230D01*
X88088725Y-142873778D01*
X88081125Y-142843435D01*
X88076535Y-142812493D01*
X88075000Y-142781250D01*
X88075000Y-142143750D01*
X88076535Y-142112507D01*
X88081125Y-142081565D01*
X88088725Y-142051222D01*
X88099263Y-142021770D01*
X88112638Y-141993492D01*
X88128719Y-141966662D01*
X88147353Y-141941537D01*
X88168360Y-141918360D01*
X88191537Y-141897353D01*
X88216662Y-141878719D01*
X88243492Y-141862638D01*
X88271770Y-141849263D01*
X88301222Y-141838725D01*
X88331565Y-141831125D01*
X88362507Y-141826535D01*
X88393750Y-141825000D01*
X89106250Y-141825000D01*
X89137493Y-141826535D01*
X89137493Y-141826535D01*
G37*
D11*
X88750000Y-142462500D03*
D23*
X90000000Y-166000000D03*
D19*
X87460000Y-166000000D03*
X90000000Y-163460000D03*
X87460000Y-163460000D03*
X90000000Y-160920000D03*
X87460000Y-160920000D03*
X90000000Y-158380000D03*
X87460000Y-158380000D03*
D24*
X78225000Y-147775000D03*
X78225000Y-148425000D03*
X78225000Y-149075000D03*
X78225000Y-149725000D03*
X80275000Y-149725000D03*
X80275000Y-149075000D03*
X80275000Y-148425000D03*
X80275000Y-147775000D03*
M02*
