G04 #@! TF.GenerationSoftware,KiCad,Pcbnew,(5.0.0)*
G04 #@! TF.CreationDate,2019-03-22T22:35:01+01:00*
G04 #@! TF.ProjectId,nrf24l01-node,6E726632346C30312D6E6F64652E6B69,rev?*
G04 #@! TF.SameCoordinates,Original*
G04 #@! TF.FileFunction,Legend,Top*
G04 #@! TF.FilePolarity,Positive*
%FSLAX46Y46*%
G04 Gerber Fmt 4.6, Leading zero omitted, Abs format (unit mm)*
G04 Created by KiCad (PCBNEW (5.0.0)) date 03/22/19 22:35:01*
%MOMM*%
%LPD*%
G01*
G04 APERTURE LIST*
%ADD10C,0.120000*%
%ADD11C,0.150000*%
%ADD12C,0.100000*%
G04 APERTURE END LIST*
D10*
G04 #@! TO.C,C21*
X76390000Y-156237221D02*
X76390000Y-156562779D01*
X77410000Y-156237221D02*
X77410000Y-156562779D01*
G04 #@! TO.C,C20*
X71410000Y-156237221D02*
X71410000Y-156562779D01*
X70390000Y-156237221D02*
X70390000Y-156562779D01*
G04 #@! TO.C,R9*
X84637221Y-133690000D02*
X84962779Y-133690000D01*
X84637221Y-134710000D02*
X84962779Y-134710000D01*
G04 #@! TO.C,IC5*
X74635000Y-155240000D02*
X72550000Y-155240000D01*
X73225000Y-157560000D02*
X74635000Y-157560000D01*
G04 #@! TO.C,C19*
X67490000Y-149587221D02*
X67490000Y-149912779D01*
X68510000Y-149587221D02*
X68510000Y-149912779D01*
G04 #@! TO.C,C4*
X61412779Y-139760000D02*
X61087221Y-139760000D01*
X61412779Y-138740000D02*
X61087221Y-138740000D01*
G04 #@! TO.C,IC4*
X62235000Y-142090000D02*
X60150000Y-142090000D01*
X60825000Y-144410000D02*
X62235000Y-144410000D01*
G04 #@! TO.C,R8*
X65412779Y-150490000D02*
X65087221Y-150490000D01*
X65412779Y-151510000D02*
X65087221Y-151510000D01*
G04 #@! TO.C,R7*
X65412779Y-149510000D02*
X65087221Y-149510000D01*
X65412779Y-148490000D02*
X65087221Y-148490000D01*
D11*
G04 #@! TO.C,CON1*
X58436000Y-133951800D02*
X58004200Y-133951800D01*
X58004200Y-133951800D02*
X58004200Y-133520000D01*
X58182000Y-126750000D02*
X58000000Y-126750000D01*
X58004200Y-126763600D02*
X58004200Y-126916000D01*
X66564000Y-126750000D02*
X67000000Y-126750000D01*
X67000000Y-126750000D02*
X67000000Y-127170000D01*
X66564000Y-133951800D02*
X67000000Y-133951800D01*
X67000000Y-133951800D02*
X67000000Y-133520000D01*
D10*
G04 #@! TO.C,C18*
X76510000Y-129087221D02*
X76510000Y-129412779D01*
X75490000Y-129087221D02*
X75490000Y-129412779D01*
G04 #@! TO.C,R4*
X57492222Y-138740000D02*
X57817780Y-138740000D01*
X57492222Y-139760000D02*
X57817780Y-139760000D01*
G04 #@! TO.C,R5*
X57492222Y-137760000D02*
X57817780Y-137760000D01*
X57492222Y-136740000D02*
X57817780Y-136740000D01*
G04 #@! TO.C,R6*
X57492222Y-134740000D02*
X57817780Y-134740000D01*
X57492222Y-135760000D02*
X57817780Y-135760000D01*
G04 #@! TO.C,L1*
X65087221Y-140990000D02*
X65412779Y-140990000D01*
X65087221Y-142010000D02*
X65412779Y-142010000D01*
G04 #@! TO.C,C3*
X65412779Y-134990000D02*
X65087221Y-134990000D01*
X65412779Y-136010000D02*
X65087221Y-136010000D01*
G04 #@! TO.C,C2*
X65412779Y-140010000D02*
X65087221Y-140010000D01*
X65412779Y-138990000D02*
X65087221Y-138990000D01*
G04 #@! TO.C,Y1*
X65925000Y-136625000D02*
X64575000Y-136625000D01*
X65925000Y-138375000D02*
X64575000Y-138375000D01*
G04 #@! TO.C,IC3*
X83840000Y-142015000D02*
X83840000Y-144100000D01*
X86160000Y-143425000D02*
X86160000Y-142015000D01*
D11*
G04 #@! TO.C,C1*
X90000000Y-127100000D02*
X81000000Y-127100000D01*
X90000000Y-133400000D02*
X81000000Y-133400000D01*
X90000000Y-127100000D02*
G75*
G02X90000000Y-133400000I0J-3150000D01*
G01*
X81000000Y-133400000D02*
G75*
G02X81000000Y-127100000I0J3150000D01*
G01*
D10*
G04 #@! TO.C,C5*
X83760000Y-165337221D02*
X83760000Y-165662779D01*
X82740000Y-165337221D02*
X82740000Y-165662779D01*
G04 #@! TO.C,C6*
X82010000Y-165337221D02*
X82010000Y-165662779D01*
X80990000Y-165337221D02*
X80990000Y-165662779D01*
G04 #@! TO.C,C7*
X92260000Y-135412779D02*
X92260000Y-135087221D01*
X91240000Y-135412779D02*
X91240000Y-135087221D01*
G04 #@! TO.C,C8*
X85087221Y-146010000D02*
X85412779Y-146010000D01*
X85087221Y-144990000D02*
X85412779Y-144990000D01*
G04 #@! TO.C,C9*
X85587221Y-139490000D02*
X85912779Y-139490000D01*
X85587221Y-140510000D02*
X85912779Y-140510000D01*
G04 #@! TO.C,C10*
X83019365Y-149740000D02*
X83344923Y-149740000D01*
X83019365Y-150760000D02*
X83344923Y-150760000D01*
G04 #@! TO.C,C11*
X83019365Y-148760000D02*
X83344923Y-148760000D01*
X83019365Y-147740000D02*
X83344923Y-147740000D01*
G04 #@! TO.C,C12*
X73010000Y-129412779D02*
X73010000Y-129087221D01*
X71990000Y-129412779D02*
X71990000Y-129087221D01*
G04 #@! TO.C,C13*
X65412779Y-147510000D02*
X65087221Y-147510000D01*
X65412779Y-146490000D02*
X65087221Y-146490000D01*
G04 #@! TO.C,C14*
X65412779Y-142690921D02*
X65087221Y-142690921D01*
X65412779Y-143710921D02*
X65087221Y-143710921D01*
G04 #@! TO.C,C15*
X84587221Y-136510000D02*
X84912779Y-136510000D01*
X84587221Y-135490000D02*
X84912779Y-135490000D01*
G04 #@! TO.C,C16*
X65412779Y-145510000D02*
X65087221Y-145510000D01*
X65412779Y-144490000D02*
X65087221Y-144490000D01*
G04 #@! TO.C,C17*
X73740000Y-129412779D02*
X73740000Y-129087221D01*
X74760000Y-129412779D02*
X74760000Y-129087221D01*
D11*
G04 #@! TO.C,IC1*
X70875000Y-135125000D02*
X70875000Y-135550000D01*
X78125000Y-135125000D02*
X78125000Y-135650000D01*
X78125000Y-142375000D02*
X78125000Y-141850000D01*
X70875000Y-142375000D02*
X70875000Y-141850000D01*
X70875000Y-135125000D02*
X71400000Y-135125000D01*
X70875000Y-142375000D02*
X71400000Y-142375000D01*
X78125000Y-142375000D02*
X77600000Y-142375000D01*
X78125000Y-135125000D02*
X77600000Y-135125000D01*
X70875000Y-135550000D02*
X69500000Y-135550000D01*
D10*
G04 #@! TO.C,IC2*
X88890000Y-138350000D02*
X88890000Y-140150000D01*
X92110000Y-140150000D02*
X92110000Y-137700000D01*
G04 #@! TO.C,R1*
X87740000Y-135450279D02*
X87740000Y-135124721D01*
X88760000Y-135450279D02*
X88760000Y-135124721D01*
G04 #@! TO.C,R2*
X90510000Y-135435636D02*
X90510000Y-135110078D01*
X89490000Y-135435636D02*
X89490000Y-135110078D01*
G04 #@! TO.C,R3*
X88240000Y-143412779D02*
X88240000Y-143087221D01*
X89260000Y-143412779D02*
X89260000Y-143087221D01*
G04 #@! TO.C,U1*
X91270000Y-167524000D02*
X85936000Y-167524000D01*
X85936000Y-167524000D02*
X85936000Y-156856000D01*
X85936000Y-156856000D02*
X91270000Y-156856000D01*
X91270000Y-156856000D02*
X91270000Y-156856000D01*
X88730000Y-167016000D02*
X88730000Y-164730000D01*
X88730000Y-164730000D02*
X91016000Y-164730000D01*
X91016000Y-164730000D02*
X91016000Y-164730000D01*
X91600000Y-168100000D02*
X62400000Y-168100000D01*
X62400000Y-168100000D02*
X62400000Y-152650000D01*
X62400000Y-152650000D02*
X91600000Y-152650000D01*
X91600000Y-152650000D02*
X91600000Y-168100000D01*
X91600000Y-168100000D02*
X91600000Y-168100000D01*
X91270000Y-156856000D02*
X91270000Y-167524000D01*
X91270000Y-167524000D02*
X91270000Y-167524000D01*
D12*
G04 #@! TO.C,U2*
X80610000Y-150100000D02*
X80610000Y-149950000D01*
X80600000Y-150100000D02*
X80450000Y-150100000D01*
X80600000Y-147400000D02*
X80450000Y-147400000D01*
X80600000Y-147400000D02*
X80600000Y-147550000D01*
X77900000Y-147550000D02*
X77900000Y-147400000D01*
X77900000Y-147400000D02*
X78050000Y-147400000D01*
X78050000Y-150100000D02*
X77800000Y-150100000D01*
G04 #@! TO.C,C21*
D11*
X78687142Y-157042857D02*
X78734761Y-157090476D01*
X78782380Y-157233333D01*
X78782380Y-157328571D01*
X78734761Y-157471428D01*
X78639523Y-157566666D01*
X78544285Y-157614285D01*
X78353809Y-157661904D01*
X78210952Y-157661904D01*
X78020476Y-157614285D01*
X77925238Y-157566666D01*
X77830000Y-157471428D01*
X77782380Y-157328571D01*
X77782380Y-157233333D01*
X77830000Y-157090476D01*
X77877619Y-157042857D01*
X77877619Y-156661904D02*
X77830000Y-156614285D01*
X77782380Y-156519047D01*
X77782380Y-156280952D01*
X77830000Y-156185714D01*
X77877619Y-156138095D01*
X77972857Y-156090476D01*
X78068095Y-156090476D01*
X78210952Y-156138095D01*
X78782380Y-156709523D01*
X78782380Y-156090476D01*
X78782380Y-155138095D02*
X78782380Y-155709523D01*
X78782380Y-155423809D02*
X77782380Y-155423809D01*
X77925238Y-155519047D01*
X78020476Y-155614285D01*
X78068095Y-155709523D01*
G04 #@! TO.C,C20*
X72687142Y-157042857D02*
X72734761Y-157090476D01*
X72782380Y-157233333D01*
X72782380Y-157328571D01*
X72734761Y-157471428D01*
X72639523Y-157566666D01*
X72544285Y-157614285D01*
X72353809Y-157661904D01*
X72210952Y-157661904D01*
X72020476Y-157614285D01*
X71925238Y-157566666D01*
X71830000Y-157471428D01*
X71782380Y-157328571D01*
X71782380Y-157233333D01*
X71830000Y-157090476D01*
X71877619Y-157042857D01*
X71877619Y-156661904D02*
X71830000Y-156614285D01*
X71782380Y-156519047D01*
X71782380Y-156280952D01*
X71830000Y-156185714D01*
X71877619Y-156138095D01*
X71972857Y-156090476D01*
X72068095Y-156090476D01*
X72210952Y-156138095D01*
X72782380Y-156709523D01*
X72782380Y-156090476D01*
X71782380Y-155471428D02*
X71782380Y-155376190D01*
X71830000Y-155280952D01*
X71877619Y-155233333D01*
X71972857Y-155185714D01*
X72163333Y-155138095D01*
X72401428Y-155138095D01*
X72591904Y-155185714D01*
X72687142Y-155233333D01*
X72734761Y-155280952D01*
X72782380Y-155376190D01*
X72782380Y-155471428D01*
X72734761Y-155566666D01*
X72687142Y-155614285D01*
X72591904Y-155661904D01*
X72401428Y-155709523D01*
X72163333Y-155709523D01*
X71972857Y-155661904D01*
X71877619Y-155614285D01*
X71830000Y-155566666D01*
X71782380Y-155471428D01*
G04 #@! TO.C,R9*
X84633333Y-133222380D02*
X84300000Y-132746190D01*
X84061904Y-133222380D02*
X84061904Y-132222380D01*
X84442857Y-132222380D01*
X84538095Y-132270000D01*
X84585714Y-132317619D01*
X84633333Y-132412857D01*
X84633333Y-132555714D01*
X84585714Y-132650952D01*
X84538095Y-132698571D01*
X84442857Y-132746190D01*
X84061904Y-132746190D01*
X85109523Y-133222380D02*
X85300000Y-133222380D01*
X85395238Y-133174761D01*
X85442857Y-133127142D01*
X85538095Y-132984285D01*
X85585714Y-132793809D01*
X85585714Y-132412857D01*
X85538095Y-132317619D01*
X85490476Y-132270000D01*
X85395238Y-132222380D01*
X85204761Y-132222380D01*
X85109523Y-132270000D01*
X85061904Y-132317619D01*
X85014285Y-132412857D01*
X85014285Y-132650952D01*
X85061904Y-132746190D01*
X85109523Y-132793809D01*
X85204761Y-132841428D01*
X85395238Y-132841428D01*
X85490476Y-132793809D01*
X85538095Y-132746190D01*
X85585714Y-132650952D01*
G04 #@! TO.C,IC5*
X72923809Y-154902380D02*
X72923809Y-153902380D01*
X73971428Y-154807142D02*
X73923809Y-154854761D01*
X73780952Y-154902380D01*
X73685714Y-154902380D01*
X73542857Y-154854761D01*
X73447619Y-154759523D01*
X73400000Y-154664285D01*
X73352380Y-154473809D01*
X73352380Y-154330952D01*
X73400000Y-154140476D01*
X73447619Y-154045238D01*
X73542857Y-153950000D01*
X73685714Y-153902380D01*
X73780952Y-153902380D01*
X73923809Y-153950000D01*
X73971428Y-153997619D01*
X74876190Y-153902380D02*
X74400000Y-153902380D01*
X74352380Y-154378571D01*
X74400000Y-154330952D01*
X74495238Y-154283333D01*
X74733333Y-154283333D01*
X74828571Y-154330952D01*
X74876190Y-154378571D01*
X74923809Y-154473809D01*
X74923809Y-154711904D01*
X74876190Y-154807142D01*
X74828571Y-154854761D01*
X74733333Y-154902380D01*
X74495238Y-154902380D01*
X74400000Y-154854761D01*
X74352380Y-154807142D01*
G04 #@! TO.C,REF\002A\002A*
X54416666Y-142652380D02*
X54083333Y-142176190D01*
X53845238Y-142652380D02*
X53845238Y-141652380D01*
X54226190Y-141652380D01*
X54321428Y-141700000D01*
X54369047Y-141747619D01*
X54416666Y-141842857D01*
X54416666Y-141985714D01*
X54369047Y-142080952D01*
X54321428Y-142128571D01*
X54226190Y-142176190D01*
X53845238Y-142176190D01*
X54845238Y-142128571D02*
X55178571Y-142128571D01*
X55321428Y-142652380D02*
X54845238Y-142652380D01*
X54845238Y-141652380D01*
X55321428Y-141652380D01*
X56083333Y-142128571D02*
X55750000Y-142128571D01*
X55750000Y-142652380D02*
X55750000Y-141652380D01*
X56226190Y-141652380D01*
X56750000Y-141652380D02*
X56750000Y-141890476D01*
X56511904Y-141795238D02*
X56750000Y-141890476D01*
X56988095Y-141795238D01*
X56607142Y-142080952D02*
X56750000Y-141890476D01*
X56892857Y-142080952D01*
X57511904Y-141652380D02*
X57511904Y-141890476D01*
X57273809Y-141795238D02*
X57511904Y-141890476D01*
X57750000Y-141795238D01*
X57369047Y-142080952D02*
X57511904Y-141890476D01*
X57654761Y-142080952D01*
X92416666Y-142652380D02*
X92083333Y-142176190D01*
X91845238Y-142652380D02*
X91845238Y-141652380D01*
X92226190Y-141652380D01*
X92321428Y-141700000D01*
X92369047Y-141747619D01*
X92416666Y-141842857D01*
X92416666Y-141985714D01*
X92369047Y-142080952D01*
X92321428Y-142128571D01*
X92226190Y-142176190D01*
X91845238Y-142176190D01*
X92845238Y-142128571D02*
X93178571Y-142128571D01*
X93321428Y-142652380D02*
X92845238Y-142652380D01*
X92845238Y-141652380D01*
X93321428Y-141652380D01*
X94083333Y-142128571D02*
X93750000Y-142128571D01*
X93750000Y-142652380D02*
X93750000Y-141652380D01*
X94226190Y-141652380D01*
X94750000Y-141652380D02*
X94750000Y-141890476D01*
X94511904Y-141795238D02*
X94750000Y-141890476D01*
X94988095Y-141795238D01*
X94607142Y-142080952D02*
X94750000Y-141890476D01*
X94892857Y-142080952D01*
X95511904Y-141652380D02*
X95511904Y-141890476D01*
X95273809Y-141795238D02*
X95511904Y-141890476D01*
X95750000Y-141795238D01*
X95369047Y-142080952D02*
X95511904Y-141890476D01*
X95654761Y-142080952D01*
G04 #@! TO.C,C19*
X67607142Y-152357142D02*
X67559523Y-152404761D01*
X67416666Y-152452380D01*
X67321428Y-152452380D01*
X67178571Y-152404761D01*
X67083333Y-152309523D01*
X67035714Y-152214285D01*
X66988095Y-152023809D01*
X66988095Y-151880952D01*
X67035714Y-151690476D01*
X67083333Y-151595238D01*
X67178571Y-151500000D01*
X67321428Y-151452380D01*
X67416666Y-151452380D01*
X67559523Y-151500000D01*
X67607142Y-151547619D01*
X68559523Y-152452380D02*
X67988095Y-152452380D01*
X68273809Y-152452380D02*
X68273809Y-151452380D01*
X68178571Y-151595238D01*
X68083333Y-151690476D01*
X67988095Y-151738095D01*
X69035714Y-152452380D02*
X69226190Y-152452380D01*
X69321428Y-152404761D01*
X69369047Y-152357142D01*
X69464285Y-152214285D01*
X69511904Y-152023809D01*
X69511904Y-151642857D01*
X69464285Y-151547619D01*
X69416666Y-151500000D01*
X69321428Y-151452380D01*
X69130952Y-151452380D01*
X69035714Y-151500000D01*
X68988095Y-151547619D01*
X68940476Y-151642857D01*
X68940476Y-151880952D01*
X68988095Y-151976190D01*
X69035714Y-152023809D01*
X69130952Y-152071428D01*
X69321428Y-152071428D01*
X69416666Y-152023809D01*
X69464285Y-151976190D01*
X69511904Y-151880952D01*
G04 #@! TO.C,C4*
X61083333Y-141037142D02*
X61035714Y-141084761D01*
X60892857Y-141132380D01*
X60797619Y-141132380D01*
X60654761Y-141084761D01*
X60559523Y-140989523D01*
X60511904Y-140894285D01*
X60464285Y-140703809D01*
X60464285Y-140560952D01*
X60511904Y-140370476D01*
X60559523Y-140275238D01*
X60654761Y-140180000D01*
X60797619Y-140132380D01*
X60892857Y-140132380D01*
X61035714Y-140180000D01*
X61083333Y-140227619D01*
X61940476Y-140465714D02*
X61940476Y-141132380D01*
X61702380Y-140084761D02*
X61464285Y-140799047D01*
X62083333Y-140799047D01*
G04 #@! TO.C,IC4*
X57523809Y-142952380D02*
X57523809Y-141952380D01*
X58571428Y-142857142D02*
X58523809Y-142904761D01*
X58380952Y-142952380D01*
X58285714Y-142952380D01*
X58142857Y-142904761D01*
X58047619Y-142809523D01*
X58000000Y-142714285D01*
X57952380Y-142523809D01*
X57952380Y-142380952D01*
X58000000Y-142190476D01*
X58047619Y-142095238D01*
X58142857Y-142000000D01*
X58285714Y-141952380D01*
X58380952Y-141952380D01*
X58523809Y-142000000D01*
X58571428Y-142047619D01*
X59428571Y-142285714D02*
X59428571Y-142952380D01*
X59190476Y-141904761D02*
X58952380Y-142619047D01*
X59571428Y-142619047D01*
G04 #@! TO.C,R8*
X62583333Y-151452380D02*
X62250000Y-150976190D01*
X62011904Y-151452380D02*
X62011904Y-150452380D01*
X62392857Y-150452380D01*
X62488095Y-150500000D01*
X62535714Y-150547619D01*
X62583333Y-150642857D01*
X62583333Y-150785714D01*
X62535714Y-150880952D01*
X62488095Y-150928571D01*
X62392857Y-150976190D01*
X62011904Y-150976190D01*
X63154761Y-150880952D02*
X63059523Y-150833333D01*
X63011904Y-150785714D01*
X62964285Y-150690476D01*
X62964285Y-150642857D01*
X63011904Y-150547619D01*
X63059523Y-150500000D01*
X63154761Y-150452380D01*
X63345238Y-150452380D01*
X63440476Y-150500000D01*
X63488095Y-150547619D01*
X63535714Y-150642857D01*
X63535714Y-150690476D01*
X63488095Y-150785714D01*
X63440476Y-150833333D01*
X63345238Y-150880952D01*
X63154761Y-150880952D01*
X63059523Y-150928571D01*
X63011904Y-150976190D01*
X62964285Y-151071428D01*
X62964285Y-151261904D01*
X63011904Y-151357142D01*
X63059523Y-151404761D01*
X63154761Y-151452380D01*
X63345238Y-151452380D01*
X63440476Y-151404761D01*
X63488095Y-151357142D01*
X63535714Y-151261904D01*
X63535714Y-151071428D01*
X63488095Y-150976190D01*
X63440476Y-150928571D01*
X63345238Y-150880952D01*
G04 #@! TO.C,R7*
X62583333Y-149452380D02*
X62250000Y-148976190D01*
X62011904Y-149452380D02*
X62011904Y-148452380D01*
X62392857Y-148452380D01*
X62488095Y-148500000D01*
X62535714Y-148547619D01*
X62583333Y-148642857D01*
X62583333Y-148785714D01*
X62535714Y-148880952D01*
X62488095Y-148928571D01*
X62392857Y-148976190D01*
X62011904Y-148976190D01*
X62916666Y-148452380D02*
X63583333Y-148452380D01*
X63154761Y-149452380D01*
G04 #@! TO.C,CON1*
X60535714Y-135357142D02*
X60488095Y-135404761D01*
X60345238Y-135452380D01*
X60250000Y-135452380D01*
X60107142Y-135404761D01*
X60011904Y-135309523D01*
X59964285Y-135214285D01*
X59916666Y-135023809D01*
X59916666Y-134880952D01*
X59964285Y-134690476D01*
X60011904Y-134595238D01*
X60107142Y-134500000D01*
X60250000Y-134452380D01*
X60345238Y-134452380D01*
X60488095Y-134500000D01*
X60535714Y-134547619D01*
X61154761Y-134452380D02*
X61345238Y-134452380D01*
X61440476Y-134500000D01*
X61535714Y-134595238D01*
X61583333Y-134785714D01*
X61583333Y-135119047D01*
X61535714Y-135309523D01*
X61440476Y-135404761D01*
X61345238Y-135452380D01*
X61154761Y-135452380D01*
X61059523Y-135404761D01*
X60964285Y-135309523D01*
X60916666Y-135119047D01*
X60916666Y-134785714D01*
X60964285Y-134595238D01*
X61059523Y-134500000D01*
X61154761Y-134452380D01*
X62011904Y-135452380D02*
X62011904Y-134452380D01*
X62583333Y-135452380D01*
X62583333Y-134452380D01*
X63583333Y-135452380D02*
X63011904Y-135452380D01*
X63297619Y-135452380D02*
X63297619Y-134452380D01*
X63202380Y-134595238D01*
X63107142Y-134690476D01*
X63011904Y-134738095D01*
G04 #@! TO.C,C18*
X77357142Y-127857142D02*
X77309523Y-127904761D01*
X77166666Y-127952380D01*
X77071428Y-127952380D01*
X76928571Y-127904761D01*
X76833333Y-127809523D01*
X76785714Y-127714285D01*
X76738095Y-127523809D01*
X76738095Y-127380952D01*
X76785714Y-127190476D01*
X76833333Y-127095238D01*
X76928571Y-127000000D01*
X77071428Y-126952380D01*
X77166666Y-126952380D01*
X77309523Y-127000000D01*
X77357142Y-127047619D01*
X78309523Y-127952380D02*
X77738095Y-127952380D01*
X78023809Y-127952380D02*
X78023809Y-126952380D01*
X77928571Y-127095238D01*
X77833333Y-127190476D01*
X77738095Y-127238095D01*
X78880952Y-127380952D02*
X78785714Y-127333333D01*
X78738095Y-127285714D01*
X78690476Y-127190476D01*
X78690476Y-127142857D01*
X78738095Y-127047619D01*
X78785714Y-127000000D01*
X78880952Y-126952380D01*
X79071428Y-126952380D01*
X79166666Y-127000000D01*
X79214285Y-127047619D01*
X79261904Y-127142857D01*
X79261904Y-127190476D01*
X79214285Y-127285714D01*
X79166666Y-127333333D01*
X79071428Y-127380952D01*
X78880952Y-127380952D01*
X78785714Y-127428571D01*
X78738095Y-127476190D01*
X78690476Y-127571428D01*
X78690476Y-127761904D01*
X78738095Y-127857142D01*
X78785714Y-127904761D01*
X78880952Y-127952380D01*
X79071428Y-127952380D01*
X79166666Y-127904761D01*
X79214285Y-127857142D01*
X79261904Y-127761904D01*
X79261904Y-127571428D01*
X79214285Y-127476190D01*
X79166666Y-127428571D01*
X79071428Y-127380952D01*
G04 #@! TO.C,R4*
X57488334Y-141202380D02*
X57155001Y-140726190D01*
X56916905Y-141202380D02*
X56916905Y-140202380D01*
X57297858Y-140202380D01*
X57393096Y-140250000D01*
X57440715Y-140297619D01*
X57488334Y-140392857D01*
X57488334Y-140535714D01*
X57440715Y-140630952D01*
X57393096Y-140678571D01*
X57297858Y-140726190D01*
X56916905Y-140726190D01*
X58345477Y-140535714D02*
X58345477Y-141202380D01*
X58107381Y-140154761D02*
X57869286Y-140869047D01*
X58488334Y-140869047D01*
G04 #@! TO.C,R5*
X60083333Y-137702380D02*
X59750000Y-137226190D01*
X59511904Y-137702380D02*
X59511904Y-136702380D01*
X59892857Y-136702380D01*
X59988095Y-136750000D01*
X60035714Y-136797619D01*
X60083333Y-136892857D01*
X60083333Y-137035714D01*
X60035714Y-137130952D01*
X59988095Y-137178571D01*
X59892857Y-137226190D01*
X59511904Y-137226190D01*
X60988095Y-136702380D02*
X60511904Y-136702380D01*
X60464285Y-137178571D01*
X60511904Y-137130952D01*
X60607142Y-137083333D01*
X60845238Y-137083333D01*
X60940476Y-137130952D01*
X60988095Y-137178571D01*
X61035714Y-137273809D01*
X61035714Y-137511904D01*
X60988095Y-137607142D01*
X60940476Y-137654761D01*
X60845238Y-137702380D01*
X60607142Y-137702380D01*
X60511904Y-137654761D01*
X60464285Y-137607142D01*
G04 #@! TO.C,R6*
X56833333Y-134272380D02*
X56500000Y-133796190D01*
X56261904Y-134272380D02*
X56261904Y-133272380D01*
X56642857Y-133272380D01*
X56738095Y-133320000D01*
X56785714Y-133367619D01*
X56833333Y-133462857D01*
X56833333Y-133605714D01*
X56785714Y-133700952D01*
X56738095Y-133748571D01*
X56642857Y-133796190D01*
X56261904Y-133796190D01*
X57690476Y-133272380D02*
X57500000Y-133272380D01*
X57404761Y-133320000D01*
X57357142Y-133367619D01*
X57261904Y-133510476D01*
X57214285Y-133700952D01*
X57214285Y-134081904D01*
X57261904Y-134177142D01*
X57309523Y-134224761D01*
X57404761Y-134272380D01*
X57595238Y-134272380D01*
X57690476Y-134224761D01*
X57738095Y-134177142D01*
X57785714Y-134081904D01*
X57785714Y-133843809D01*
X57738095Y-133748571D01*
X57690476Y-133700952D01*
X57595238Y-133653333D01*
X57404761Y-133653333D01*
X57309523Y-133700952D01*
X57261904Y-133748571D01*
X57214285Y-133843809D01*
G04 #@! TO.C,L1*
X67583333Y-141952380D02*
X67107142Y-141952380D01*
X67107142Y-140952380D01*
X68440476Y-141952380D02*
X67869047Y-141952380D01*
X68154761Y-141952380D02*
X68154761Y-140952380D01*
X68059523Y-141095238D01*
X67964285Y-141190476D01*
X67869047Y-141238095D01*
G04 #@! TO.C,C3*
X67583333Y-135607142D02*
X67535714Y-135654761D01*
X67392857Y-135702380D01*
X67297619Y-135702380D01*
X67154761Y-135654761D01*
X67059523Y-135559523D01*
X67011904Y-135464285D01*
X66964285Y-135273809D01*
X66964285Y-135130952D01*
X67011904Y-134940476D01*
X67059523Y-134845238D01*
X67154761Y-134750000D01*
X67297619Y-134702380D01*
X67392857Y-134702380D01*
X67535714Y-134750000D01*
X67583333Y-134797619D01*
X67916666Y-134702380D02*
X68535714Y-134702380D01*
X68202380Y-135083333D01*
X68345238Y-135083333D01*
X68440476Y-135130952D01*
X68488095Y-135178571D01*
X68535714Y-135273809D01*
X68535714Y-135511904D01*
X68488095Y-135607142D01*
X68440476Y-135654761D01*
X68345238Y-135702380D01*
X68059523Y-135702380D01*
X67964285Y-135654761D01*
X67916666Y-135607142D01*
G04 #@! TO.C,C2*
X67583333Y-139857142D02*
X67535714Y-139904761D01*
X67392857Y-139952380D01*
X67297619Y-139952380D01*
X67154761Y-139904761D01*
X67059523Y-139809523D01*
X67011904Y-139714285D01*
X66964285Y-139523809D01*
X66964285Y-139380952D01*
X67011904Y-139190476D01*
X67059523Y-139095238D01*
X67154761Y-139000000D01*
X67297619Y-138952380D01*
X67392857Y-138952380D01*
X67535714Y-139000000D01*
X67583333Y-139047619D01*
X67964285Y-139047619D02*
X68011904Y-139000000D01*
X68107142Y-138952380D01*
X68345238Y-138952380D01*
X68440476Y-139000000D01*
X68488095Y-139047619D01*
X68535714Y-139142857D01*
X68535714Y-139238095D01*
X68488095Y-139380952D01*
X67916666Y-139952380D01*
X68535714Y-139952380D01*
G04 #@! TO.C,Y1*
X61773809Y-137476190D02*
X61773809Y-137952380D01*
X61440476Y-136952380D02*
X61773809Y-137476190D01*
X62107142Y-136952380D01*
X62964285Y-137952380D02*
X62392857Y-137952380D01*
X62678571Y-137952380D02*
X62678571Y-136952380D01*
X62583333Y-137095238D01*
X62488095Y-137190476D01*
X62392857Y-137238095D01*
G04 #@! TO.C,IC3*
X81523809Y-143202380D02*
X81523809Y-142202380D01*
X82571428Y-143107142D02*
X82523809Y-143154761D01*
X82380952Y-143202380D01*
X82285714Y-143202380D01*
X82142857Y-143154761D01*
X82047619Y-143059523D01*
X82000000Y-142964285D01*
X81952380Y-142773809D01*
X81952380Y-142630952D01*
X82000000Y-142440476D01*
X82047619Y-142345238D01*
X82142857Y-142250000D01*
X82285714Y-142202380D01*
X82380952Y-142202380D01*
X82523809Y-142250000D01*
X82571428Y-142297619D01*
X82904761Y-142202380D02*
X83523809Y-142202380D01*
X83190476Y-142583333D01*
X83333333Y-142583333D01*
X83428571Y-142630952D01*
X83476190Y-142678571D01*
X83523809Y-142773809D01*
X83523809Y-143011904D01*
X83476190Y-143107142D01*
X83428571Y-143154761D01*
X83333333Y-143202380D01*
X83047619Y-143202380D01*
X82952380Y-143154761D01*
X82904761Y-143107142D01*
G04 #@! TO.C,C1*
X85333333Y-130607142D02*
X85285714Y-130654761D01*
X85142857Y-130702380D01*
X85047619Y-130702380D01*
X84904761Y-130654761D01*
X84809523Y-130559523D01*
X84761904Y-130464285D01*
X84714285Y-130273809D01*
X84714285Y-130130952D01*
X84761904Y-129940476D01*
X84809523Y-129845238D01*
X84904761Y-129750000D01*
X85047619Y-129702380D01*
X85142857Y-129702380D01*
X85285714Y-129750000D01*
X85333333Y-129797619D01*
X86285714Y-130702380D02*
X85714285Y-130702380D01*
X86000000Y-130702380D02*
X86000000Y-129702380D01*
X85904761Y-129845238D01*
X85809523Y-129940476D01*
X85714285Y-129988095D01*
X89238095Y-128242857D02*
X90761904Y-128242857D01*
X90000000Y-129004761D02*
X90000000Y-127480952D01*
X80238095Y-128242857D02*
X81761904Y-128242857D01*
G04 #@! TO.C,C5*
X83083333Y-163607142D02*
X83035714Y-163654761D01*
X82892857Y-163702380D01*
X82797619Y-163702380D01*
X82654761Y-163654761D01*
X82559523Y-163559523D01*
X82511904Y-163464285D01*
X82464285Y-163273809D01*
X82464285Y-163130952D01*
X82511904Y-162940476D01*
X82559523Y-162845238D01*
X82654761Y-162750000D01*
X82797619Y-162702380D01*
X82892857Y-162702380D01*
X83035714Y-162750000D01*
X83083333Y-162797619D01*
X83988095Y-162702380D02*
X83511904Y-162702380D01*
X83464285Y-163178571D01*
X83511904Y-163130952D01*
X83607142Y-163083333D01*
X83845238Y-163083333D01*
X83940476Y-163130952D01*
X83988095Y-163178571D01*
X84035714Y-163273809D01*
X84035714Y-163511904D01*
X83988095Y-163607142D01*
X83940476Y-163654761D01*
X83845238Y-163702380D01*
X83607142Y-163702380D01*
X83511904Y-163654761D01*
X83464285Y-163607142D01*
G04 #@! TO.C,C6*
X81333333Y-163607142D02*
X81285714Y-163654761D01*
X81142857Y-163702380D01*
X81047619Y-163702380D01*
X80904761Y-163654761D01*
X80809523Y-163559523D01*
X80761904Y-163464285D01*
X80714285Y-163273809D01*
X80714285Y-163130952D01*
X80761904Y-162940476D01*
X80809523Y-162845238D01*
X80904761Y-162750000D01*
X81047619Y-162702380D01*
X81142857Y-162702380D01*
X81285714Y-162750000D01*
X81333333Y-162797619D01*
X82190476Y-162702380D02*
X82000000Y-162702380D01*
X81904761Y-162750000D01*
X81857142Y-162797619D01*
X81761904Y-162940476D01*
X81714285Y-163130952D01*
X81714285Y-163511904D01*
X81761904Y-163607142D01*
X81809523Y-163654761D01*
X81904761Y-163702380D01*
X82095238Y-163702380D01*
X82190476Y-163654761D01*
X82238095Y-163607142D01*
X82285714Y-163511904D01*
X82285714Y-163273809D01*
X82238095Y-163178571D01*
X82190476Y-163130952D01*
X82095238Y-163083333D01*
X81904761Y-163083333D01*
X81809523Y-163130952D01*
X81761904Y-163178571D01*
X81714285Y-163273809D01*
G04 #@! TO.C,C7*
X93607142Y-135416666D02*
X93654761Y-135464285D01*
X93702380Y-135607142D01*
X93702380Y-135702380D01*
X93654761Y-135845238D01*
X93559523Y-135940476D01*
X93464285Y-135988095D01*
X93273809Y-136035714D01*
X93130952Y-136035714D01*
X92940476Y-135988095D01*
X92845238Y-135940476D01*
X92750000Y-135845238D01*
X92702380Y-135702380D01*
X92702380Y-135607142D01*
X92750000Y-135464285D01*
X92797619Y-135416666D01*
X92702380Y-135083333D02*
X92702380Y-134416666D01*
X93702380Y-134845238D01*
G04 #@! TO.C,C8*
X82583333Y-145857142D02*
X82535714Y-145904761D01*
X82392857Y-145952380D01*
X82297619Y-145952380D01*
X82154761Y-145904761D01*
X82059523Y-145809523D01*
X82011904Y-145714285D01*
X81964285Y-145523809D01*
X81964285Y-145380952D01*
X82011904Y-145190476D01*
X82059523Y-145095238D01*
X82154761Y-145000000D01*
X82297619Y-144952380D01*
X82392857Y-144952380D01*
X82535714Y-145000000D01*
X82583333Y-145047619D01*
X83154761Y-145380952D02*
X83059523Y-145333333D01*
X83011904Y-145285714D01*
X82964285Y-145190476D01*
X82964285Y-145142857D01*
X83011904Y-145047619D01*
X83059523Y-145000000D01*
X83154761Y-144952380D01*
X83345238Y-144952380D01*
X83440476Y-145000000D01*
X83488095Y-145047619D01*
X83535714Y-145142857D01*
X83535714Y-145190476D01*
X83488095Y-145285714D01*
X83440476Y-145333333D01*
X83345238Y-145380952D01*
X83154761Y-145380952D01*
X83059523Y-145428571D01*
X83011904Y-145476190D01*
X82964285Y-145571428D01*
X82964285Y-145761904D01*
X83011904Y-145857142D01*
X83059523Y-145904761D01*
X83154761Y-145952380D01*
X83345238Y-145952380D01*
X83440476Y-145904761D01*
X83488095Y-145857142D01*
X83535714Y-145761904D01*
X83535714Y-145571428D01*
X83488095Y-145476190D01*
X83440476Y-145428571D01*
X83345238Y-145380952D01*
G04 #@! TO.C,C9*
X85583333Y-138927142D02*
X85535714Y-138974761D01*
X85392857Y-139022380D01*
X85297619Y-139022380D01*
X85154761Y-138974761D01*
X85059523Y-138879523D01*
X85011904Y-138784285D01*
X84964285Y-138593809D01*
X84964285Y-138450952D01*
X85011904Y-138260476D01*
X85059523Y-138165238D01*
X85154761Y-138070000D01*
X85297619Y-138022380D01*
X85392857Y-138022380D01*
X85535714Y-138070000D01*
X85583333Y-138117619D01*
X86059523Y-139022380D02*
X86250000Y-139022380D01*
X86345238Y-138974761D01*
X86392857Y-138927142D01*
X86488095Y-138784285D01*
X86535714Y-138593809D01*
X86535714Y-138212857D01*
X86488095Y-138117619D01*
X86440476Y-138070000D01*
X86345238Y-138022380D01*
X86154761Y-138022380D01*
X86059523Y-138070000D01*
X86011904Y-138117619D01*
X85964285Y-138212857D01*
X85964285Y-138450952D01*
X86011904Y-138546190D01*
X86059523Y-138593809D01*
X86154761Y-138641428D01*
X86345238Y-138641428D01*
X86440476Y-138593809D01*
X86488095Y-138546190D01*
X86535714Y-138450952D01*
G04 #@! TO.C,C10*
X85607142Y-150607142D02*
X85559523Y-150654761D01*
X85416666Y-150702380D01*
X85321428Y-150702380D01*
X85178571Y-150654761D01*
X85083333Y-150559523D01*
X85035714Y-150464285D01*
X84988095Y-150273809D01*
X84988095Y-150130952D01*
X85035714Y-149940476D01*
X85083333Y-149845238D01*
X85178571Y-149750000D01*
X85321428Y-149702380D01*
X85416666Y-149702380D01*
X85559523Y-149750000D01*
X85607142Y-149797619D01*
X86559523Y-150702380D02*
X85988095Y-150702380D01*
X86273809Y-150702380D02*
X86273809Y-149702380D01*
X86178571Y-149845238D01*
X86083333Y-149940476D01*
X85988095Y-149988095D01*
X87178571Y-149702380D02*
X87273809Y-149702380D01*
X87369047Y-149750000D01*
X87416666Y-149797619D01*
X87464285Y-149892857D01*
X87511904Y-150083333D01*
X87511904Y-150321428D01*
X87464285Y-150511904D01*
X87416666Y-150607142D01*
X87369047Y-150654761D01*
X87273809Y-150702380D01*
X87178571Y-150702380D01*
X87083333Y-150654761D01*
X87035714Y-150607142D01*
X86988095Y-150511904D01*
X86940476Y-150321428D01*
X86940476Y-150083333D01*
X86988095Y-149892857D01*
X87035714Y-149797619D01*
X87083333Y-149750000D01*
X87178571Y-149702380D01*
G04 #@! TO.C,C11*
X85607142Y-148607142D02*
X85559523Y-148654761D01*
X85416666Y-148702380D01*
X85321428Y-148702380D01*
X85178571Y-148654761D01*
X85083333Y-148559523D01*
X85035714Y-148464285D01*
X84988095Y-148273809D01*
X84988095Y-148130952D01*
X85035714Y-147940476D01*
X85083333Y-147845238D01*
X85178571Y-147750000D01*
X85321428Y-147702380D01*
X85416666Y-147702380D01*
X85559523Y-147750000D01*
X85607142Y-147797619D01*
X86559523Y-148702380D02*
X85988095Y-148702380D01*
X86273809Y-148702380D02*
X86273809Y-147702380D01*
X86178571Y-147845238D01*
X86083333Y-147940476D01*
X85988095Y-147988095D01*
X87511904Y-148702380D02*
X86940476Y-148702380D01*
X87226190Y-148702380D02*
X87226190Y-147702380D01*
X87130952Y-147845238D01*
X87035714Y-147940476D01*
X86940476Y-147988095D01*
G04 #@! TO.C,C12*
X69607142Y-129607142D02*
X69559523Y-129654761D01*
X69416666Y-129702380D01*
X69321428Y-129702380D01*
X69178571Y-129654761D01*
X69083333Y-129559523D01*
X69035714Y-129464285D01*
X68988095Y-129273809D01*
X68988095Y-129130952D01*
X69035714Y-128940476D01*
X69083333Y-128845238D01*
X69178571Y-128750000D01*
X69321428Y-128702380D01*
X69416666Y-128702380D01*
X69559523Y-128750000D01*
X69607142Y-128797619D01*
X70559523Y-129702380D02*
X69988095Y-129702380D01*
X70273809Y-129702380D02*
X70273809Y-128702380D01*
X70178571Y-128845238D01*
X70083333Y-128940476D01*
X69988095Y-128988095D01*
X70940476Y-128797619D02*
X70988095Y-128750000D01*
X71083333Y-128702380D01*
X71321428Y-128702380D01*
X71416666Y-128750000D01*
X71464285Y-128797619D01*
X71511904Y-128892857D01*
X71511904Y-128988095D01*
X71464285Y-129130952D01*
X70892857Y-129702380D01*
X71511904Y-129702380D01*
G04 #@! TO.C,C13*
X61607142Y-147357142D02*
X61559523Y-147404761D01*
X61416666Y-147452380D01*
X61321428Y-147452380D01*
X61178571Y-147404761D01*
X61083333Y-147309523D01*
X61035714Y-147214285D01*
X60988095Y-147023809D01*
X60988095Y-146880952D01*
X61035714Y-146690476D01*
X61083333Y-146595238D01*
X61178571Y-146500000D01*
X61321428Y-146452380D01*
X61416666Y-146452380D01*
X61559523Y-146500000D01*
X61607142Y-146547619D01*
X62559523Y-147452380D02*
X61988095Y-147452380D01*
X62273809Y-147452380D02*
X62273809Y-146452380D01*
X62178571Y-146595238D01*
X62083333Y-146690476D01*
X61988095Y-146738095D01*
X62892857Y-146452380D02*
X63511904Y-146452380D01*
X63178571Y-146833333D01*
X63321428Y-146833333D01*
X63416666Y-146880952D01*
X63464285Y-146928571D01*
X63511904Y-147023809D01*
X63511904Y-147261904D01*
X63464285Y-147357142D01*
X63416666Y-147404761D01*
X63321428Y-147452380D01*
X63035714Y-147452380D01*
X62940476Y-147404761D01*
X62892857Y-147357142D01*
G04 #@! TO.C,C14*
X67607142Y-143607142D02*
X67559523Y-143654761D01*
X67416666Y-143702380D01*
X67321428Y-143702380D01*
X67178571Y-143654761D01*
X67083333Y-143559523D01*
X67035714Y-143464285D01*
X66988095Y-143273809D01*
X66988095Y-143130952D01*
X67035714Y-142940476D01*
X67083333Y-142845238D01*
X67178571Y-142750000D01*
X67321428Y-142702380D01*
X67416666Y-142702380D01*
X67559523Y-142750000D01*
X67607142Y-142797619D01*
X68559523Y-143702380D02*
X67988095Y-143702380D01*
X68273809Y-143702380D02*
X68273809Y-142702380D01*
X68178571Y-142845238D01*
X68083333Y-142940476D01*
X67988095Y-142988095D01*
X69416666Y-143035714D02*
X69416666Y-143702380D01*
X69178571Y-142654761D02*
X68940476Y-143369047D01*
X69559523Y-143369047D01*
G04 #@! TO.C,C15*
X84107142Y-134927142D02*
X84059523Y-134974761D01*
X83916666Y-135022380D01*
X83821428Y-135022380D01*
X83678571Y-134974761D01*
X83583333Y-134879523D01*
X83535714Y-134784285D01*
X83488095Y-134593809D01*
X83488095Y-134450952D01*
X83535714Y-134260476D01*
X83583333Y-134165238D01*
X83678571Y-134070000D01*
X83821428Y-134022380D01*
X83916666Y-134022380D01*
X84059523Y-134070000D01*
X84107142Y-134117619D01*
X85059523Y-135022380D02*
X84488095Y-135022380D01*
X84773809Y-135022380D02*
X84773809Y-134022380D01*
X84678571Y-134165238D01*
X84583333Y-134260476D01*
X84488095Y-134308095D01*
X85964285Y-134022380D02*
X85488095Y-134022380D01*
X85440476Y-134498571D01*
X85488095Y-134450952D01*
X85583333Y-134403333D01*
X85821428Y-134403333D01*
X85916666Y-134450952D01*
X85964285Y-134498571D01*
X86011904Y-134593809D01*
X86011904Y-134831904D01*
X85964285Y-134927142D01*
X85916666Y-134974761D01*
X85821428Y-135022380D01*
X85583333Y-135022380D01*
X85488095Y-134974761D01*
X85440476Y-134927142D01*
G04 #@! TO.C,C16*
X61607142Y-145857142D02*
X61559523Y-145904761D01*
X61416666Y-145952380D01*
X61321428Y-145952380D01*
X61178571Y-145904761D01*
X61083333Y-145809523D01*
X61035714Y-145714285D01*
X60988095Y-145523809D01*
X60988095Y-145380952D01*
X61035714Y-145190476D01*
X61083333Y-145095238D01*
X61178571Y-145000000D01*
X61321428Y-144952380D01*
X61416666Y-144952380D01*
X61559523Y-145000000D01*
X61607142Y-145047619D01*
X62559523Y-145952380D02*
X61988095Y-145952380D01*
X62273809Y-145952380D02*
X62273809Y-144952380D01*
X62178571Y-145095238D01*
X62083333Y-145190476D01*
X61988095Y-145238095D01*
X63416666Y-144952380D02*
X63226190Y-144952380D01*
X63130952Y-145000000D01*
X63083333Y-145047619D01*
X62988095Y-145190476D01*
X62940476Y-145380952D01*
X62940476Y-145761904D01*
X62988095Y-145857142D01*
X63035714Y-145904761D01*
X63130952Y-145952380D01*
X63321428Y-145952380D01*
X63416666Y-145904761D01*
X63464285Y-145857142D01*
X63511904Y-145761904D01*
X63511904Y-145523809D01*
X63464285Y-145428571D01*
X63416666Y-145380952D01*
X63321428Y-145333333D01*
X63130952Y-145333333D01*
X63035714Y-145380952D01*
X62988095Y-145428571D01*
X62940476Y-145523809D01*
G04 #@! TO.C,C17*
X73607142Y-131857142D02*
X73559523Y-131904761D01*
X73416666Y-131952380D01*
X73321428Y-131952380D01*
X73178571Y-131904761D01*
X73083333Y-131809523D01*
X73035714Y-131714285D01*
X72988095Y-131523809D01*
X72988095Y-131380952D01*
X73035714Y-131190476D01*
X73083333Y-131095238D01*
X73178571Y-131000000D01*
X73321428Y-130952380D01*
X73416666Y-130952380D01*
X73559523Y-131000000D01*
X73607142Y-131047619D01*
X74559523Y-131952380D02*
X73988095Y-131952380D01*
X74273809Y-131952380D02*
X74273809Y-130952380D01*
X74178571Y-131095238D01*
X74083333Y-131190476D01*
X73988095Y-131238095D01*
X74892857Y-130952380D02*
X75559523Y-130952380D01*
X75130952Y-131952380D01*
G04 #@! TO.C,IC1*
X73523809Y-133202380D02*
X73523809Y-132202380D01*
X74571428Y-133107142D02*
X74523809Y-133154761D01*
X74380952Y-133202380D01*
X74285714Y-133202380D01*
X74142857Y-133154761D01*
X74047619Y-133059523D01*
X74000000Y-132964285D01*
X73952380Y-132773809D01*
X73952380Y-132630952D01*
X74000000Y-132440476D01*
X74047619Y-132345238D01*
X74142857Y-132250000D01*
X74285714Y-132202380D01*
X74380952Y-132202380D01*
X74523809Y-132250000D01*
X74571428Y-132297619D01*
X75523809Y-133202380D02*
X74952380Y-133202380D01*
X75238095Y-133202380D02*
X75238095Y-132202380D01*
X75142857Y-132345238D01*
X75047619Y-132440476D01*
X74952380Y-132488095D01*
G04 #@! TO.C,IC2*
X93452380Y-140226190D02*
X92452380Y-140226190D01*
X93357142Y-139178571D02*
X93404761Y-139226190D01*
X93452380Y-139369047D01*
X93452380Y-139464285D01*
X93404761Y-139607142D01*
X93309523Y-139702380D01*
X93214285Y-139750000D01*
X93023809Y-139797619D01*
X92880952Y-139797619D01*
X92690476Y-139750000D01*
X92595238Y-139702380D01*
X92500000Y-139607142D01*
X92452380Y-139464285D01*
X92452380Y-139369047D01*
X92500000Y-139226190D01*
X92547619Y-139178571D01*
X92547619Y-138797619D02*
X92500000Y-138750000D01*
X92452380Y-138654761D01*
X92452380Y-138416666D01*
X92500000Y-138321428D01*
X92547619Y-138273809D01*
X92642857Y-138226190D01*
X92738095Y-138226190D01*
X92880952Y-138273809D01*
X93452380Y-138845238D01*
X93452380Y-138226190D01*
G04 #@! TO.C,R1*
X87583333Y-137952380D02*
X87250000Y-137476190D01*
X87011904Y-137952380D02*
X87011904Y-136952380D01*
X87392857Y-136952380D01*
X87488095Y-137000000D01*
X87535714Y-137047619D01*
X87583333Y-137142857D01*
X87583333Y-137285714D01*
X87535714Y-137380952D01*
X87488095Y-137428571D01*
X87392857Y-137476190D01*
X87011904Y-137476190D01*
X88535714Y-137952380D02*
X87964285Y-137952380D01*
X88250000Y-137952380D02*
X88250000Y-136952380D01*
X88154761Y-137095238D01*
X88059523Y-137190476D01*
X87964285Y-137238095D01*
G04 #@! TO.C,R2*
X89833333Y-133202380D02*
X89500000Y-132726190D01*
X89261904Y-133202380D02*
X89261904Y-132202380D01*
X89642857Y-132202380D01*
X89738095Y-132250000D01*
X89785714Y-132297619D01*
X89833333Y-132392857D01*
X89833333Y-132535714D01*
X89785714Y-132630952D01*
X89738095Y-132678571D01*
X89642857Y-132726190D01*
X89261904Y-132726190D01*
X90214285Y-132297619D02*
X90261904Y-132250000D01*
X90357142Y-132202380D01*
X90595238Y-132202380D01*
X90690476Y-132250000D01*
X90738095Y-132297619D01*
X90785714Y-132392857D01*
X90785714Y-132488095D01*
X90738095Y-132630952D01*
X90166666Y-133202380D01*
X90785714Y-133202380D01*
G04 #@! TO.C,R3*
X90333333Y-143452380D02*
X90000000Y-142976190D01*
X89761904Y-143452380D02*
X89761904Y-142452380D01*
X90142857Y-142452380D01*
X90238095Y-142500000D01*
X90285714Y-142547619D01*
X90333333Y-142642857D01*
X90333333Y-142785714D01*
X90285714Y-142880952D01*
X90238095Y-142928571D01*
X90142857Y-142976190D01*
X89761904Y-142976190D01*
X90666666Y-142452380D02*
X91285714Y-142452380D01*
X90952380Y-142833333D01*
X91095238Y-142833333D01*
X91190476Y-142880952D01*
X91238095Y-142928571D01*
X91285714Y-143023809D01*
X91285714Y-143261904D01*
X91238095Y-143357142D01*
X91190476Y-143404761D01*
X91095238Y-143452380D01*
X90809523Y-143452380D01*
X90714285Y-143404761D01*
X90666666Y-143357142D01*
G04 #@! TO.C,U1*
X91988095Y-165452380D02*
X91988095Y-166261904D01*
X92035714Y-166357142D01*
X92083333Y-166404761D01*
X92178571Y-166452380D01*
X92369047Y-166452380D01*
X92464285Y-166404761D01*
X92511904Y-166357142D01*
X92559523Y-166261904D01*
X92559523Y-165452380D01*
X93559523Y-166452380D02*
X92988095Y-166452380D01*
X93273809Y-166452380D02*
X93273809Y-165452380D01*
X93178571Y-165595238D01*
X93083333Y-165690476D01*
X92988095Y-165738095D01*
G04 #@! TO.C,U2*
X78738095Y-150452380D02*
X78738095Y-151261904D01*
X78785714Y-151357142D01*
X78833333Y-151404761D01*
X78928571Y-151452380D01*
X79119047Y-151452380D01*
X79214285Y-151404761D01*
X79261904Y-151357142D01*
X79309523Y-151261904D01*
X79309523Y-150452380D01*
X79738095Y-150547619D02*
X79785714Y-150500000D01*
X79880952Y-150452380D01*
X80119047Y-150452380D01*
X80214285Y-150500000D01*
X80261904Y-150547619D01*
X80309523Y-150642857D01*
X80309523Y-150738095D01*
X80261904Y-150880952D01*
X79690476Y-151452380D01*
X80309523Y-151452380D01*
G04 #@! TD*
M02*
