M48
;DRILL file {KiCad (5.0.0)} date 03/22/19 22:34:57
;FORMAT={-:-/ absolute / metric / decimal}
FMAT,2
METRIC,TZ
T1C0.300
T2C0.400
T3C0.762
T4C4.300
%
G90
G05
M71
T1
X63.Y-141.75
X68.21Y-142.5
X71.Y-144.75
X71.Y-145.75
X71.Y-146.75
X71.Y-148.
X71.Y-149.
X71.Y-150.
X71.Y-151.
X71.Y-152.25
X71.734Y-144.766
X72.25Y-146.75
X72.25Y-152.25
X72.5Y-150.
X73.25Y-147.5
X73.75Y-152.25
X74.25Y-148.5
X75.25Y-144.75
X75.25Y-145.75
X75.25Y-149.5
X75.25Y-152.25
X75.75Y-150.75
X76.75Y-146.5
X76.75Y-152.25
X76.9Y-154.5
X77.Y-144.75
X77.5Y-139.75
X78.5Y-144.75
X78.5Y-146.5
X78.5Y-150.5
X78.5Y-151.25
X78.5Y-152.25
X79.Y-143.
X79.555Y-149.25
X80.5Y-139.5
X80.5Y-142.5
X80.75Y-141.25
X82.Y-154.1
X82.6Y-135.3
X82.7Y-153.2
X83.2Y-140.1
X83.506Y-146.923
X86.25Y-142.75
X86.8Y-141.1
X86.9Y-134.4
T2
X57.Y-134.
X57.Y-140.5
X60.Y-131.
X61.Y-131.
X62.Y-138.
X63.Y-135.5
X63.Y-145.25
X63.25Y-139.5
X63.25Y-141.
X63.5Y-131.
X65.Y-131.
X65.09Y-129.63
X67.25Y-147.
X67.5Y-132.5
X68.Y-151.75
X68.5Y-147.75
X68.638Y-131.112
X70.185Y-145.25
X72.5Y-131.5
X73.75Y-141.75
X74.75Y-163.55
X75.25Y-141.5
X76.5Y-141.5
X77.25Y-150.25
X79.Y-153.5
X79.75Y-146.
X81.275Y-152.157
X81.568Y-146.77
X82.5Y-147.
X82.5Y-151.5
X83.962Y-136.
X85.25Y-138.75
X87.Y-146.75
X90.Y-143.5
X93.Y-137.25
T3
X81.Y-130.25
X90.Y-130.25
X87.46Y-158.38
X87.46Y-160.92
X87.46Y-163.46
X87.46Y-166.
X90.Y-158.38
X90.Y-160.92
X90.Y-163.46
X90.Y-166.
T4
X93.75Y-147.5
X55.75Y-147.5
T0
M30
