G04 #@! TF.GenerationSoftware,KiCad,Pcbnew,(5.0.0)*
G04 #@! TF.CreationDate,2019-01-15T20:44:40+01:00*
G04 #@! TF.ProjectId,nrf24l01-node,6E726632346C30312D6E6F64652E6B69,rev?*
G04 #@! TF.SameCoordinates,Original*
G04 #@! TF.FileFunction,Copper,L2,Bot,Signal*
G04 #@! TF.FilePolarity,Positive*
%FSLAX46Y46*%
G04 Gerber Fmt 4.6, Leading zero omitted, Abs format (unit mm)*
G04 Created by KiCad (PCBNEW (5.0.0)) date 01/15/19 20:44:40*
%MOMM*%
%LPD*%
G01*
G04 APERTURE LIST*
G04 #@! TA.AperFunction,SMDPad,CuDef*
%ADD10R,5.500000X6.000000*%
G04 #@! TD*
G04 #@! TA.AperFunction,SMDPad,CuDef*
%ADD11R,8.000000X8.000000*%
G04 #@! TD*
G04 #@! TA.AperFunction,ComponentPad*
%ADD12C,1.524000*%
G04 #@! TD*
G04 #@! TA.AperFunction,ComponentPad*
%ADD13R,1.524000X1.524000*%
G04 #@! TD*
G04 #@! TA.AperFunction,ViaPad*
%ADD14C,0.800000*%
G04 #@! TD*
G04 #@! TA.AperFunction,ViaPad*
%ADD15C,0.400000*%
G04 #@! TD*
G04 #@! TA.AperFunction,Conductor*
%ADD16C,0.250000*%
G04 #@! TD*
G04 #@! TA.AperFunction,Conductor*
%ADD17C,0.200000*%
G04 #@! TD*
G04 #@! TA.AperFunction,Conductor*
%ADD18C,0.254000*%
G04 #@! TD*
G04 APERTURE END LIST*
D10*
G04 #@! TO.P,BT1,1*
G04 #@! TO.N,VCC*
X74750000Y-163550000D03*
X74750000Y-132950000D03*
D11*
G04 #@! TO.P,BT1,2*
G04 #@! TO.N,GND*
X74750000Y-148250000D03*
G04 #@! TD*
D12*
G04 #@! TO.P,C1,1*
G04 #@! TO.N,VCC*
X90000000Y-130250000D03*
G04 #@! TO.P,C1,2*
G04 #@! TO.N,GND*
X81000000Y-130250000D03*
G04 #@! TD*
D13*
G04 #@! TO.P,U1,1*
G04 #@! TO.N,GND*
X90000000Y-166000000D03*
D12*
G04 #@! TO.P,U1,2*
G04 #@! TO.N,/NRF_VCC*
X87460000Y-166000000D03*
G04 #@! TO.P,U1,3*
G04 #@! TO.N,/NRF_CE*
X90000000Y-163460000D03*
G04 #@! TO.P,U1,4*
G04 #@! TO.N,/NRF_CS*
X87460000Y-163460000D03*
G04 #@! TO.P,U1,5*
G04 #@! TO.N,/BME280_SCK*
X90000000Y-160920000D03*
G04 #@! TO.P,U1,6*
G04 #@! TO.N,/BME280_SDI*
X87460000Y-160920000D03*
G04 #@! TO.P,U1,7*
G04 #@! TO.N,/BME280_SDO*
X90000000Y-158380000D03*
G04 #@! TO.P,U1,8*
G04 #@! TO.N,/NRF_IRQ*
X87460000Y-158380000D03*
G04 #@! TD*
D14*
G04 #@! TO.N,GND*
X68000000Y-150537500D03*
G04 #@! TO.N,VCC*
X62000000Y-139250000D03*
X68000000Y-149000000D03*
X66000000Y-149000000D03*
D15*
G04 #@! TO.N,GND*
X75250000Y-145750000D03*
X76750000Y-146500000D03*
X78500000Y-146500000D03*
X73500000Y-149750000D03*
X72500000Y-149000000D03*
X72500000Y-150750000D03*
X74250000Y-150750000D03*
X75750000Y-150750000D03*
X75250000Y-149500000D03*
X74250000Y-148500000D03*
X73250000Y-147500000D03*
X72250000Y-146750000D03*
X71000000Y-149000000D03*
X71000000Y-148000000D03*
X71000000Y-146750000D03*
X71000000Y-145750000D03*
X71000000Y-144750000D03*
X75250000Y-144750000D03*
X77000000Y-144750000D03*
X78500000Y-144750000D03*
D14*
G04 #@! TO.N,VCC*
X88750000Y-144037500D03*
G04 #@! TO.N,GND*
X77250000Y-150250000D03*
X64500000Y-147000000D03*
X86000000Y-145500000D03*
G04 #@! TO.N,VCC*
X56750000Y-139250000D03*
X56750000Y-137250000D03*
X56750000Y-135250000D03*
G04 #@! TO.N,GND*
X64500000Y-145000000D03*
X64500000Y-143250000D03*
X64500000Y-139500000D03*
X64500000Y-135500000D03*
G04 #@! TO.N,VCC*
X60000000Y-132750000D03*
G04 #@! TO.N,GND*
X65000000Y-132750000D03*
G04 #@! TO.N,VCC*
X64500000Y-141500000D03*
X83962500Y-136000000D03*
X72500000Y-130037500D03*
X82394644Y-148250000D03*
X82394644Y-150250000D03*
X66037500Y-147000000D03*
X86787500Y-140000000D03*
X91750000Y-136037500D03*
X73750000Y-141750000D03*
G04 #@! TO.N,GND*
X85212500Y-140000000D03*
D15*
X79555026Y-149250000D03*
X71733839Y-144766161D03*
X78500000Y-150500000D03*
X78500000Y-151250000D03*
X78500000Y-152250000D03*
X76750000Y-152250000D03*
X72250000Y-152250000D03*
X73750000Y-152250000D03*
X71000000Y-152250000D03*
X75250000Y-152250000D03*
X71000000Y-151000000D03*
X71000000Y-150000000D03*
D14*
X66037500Y-151000000D03*
G04 #@! TO.N,/BME280_SDO*
X81675021Y-146796315D03*
X81682630Y-151713879D03*
G04 #@! TO.N,/NRF_IRQ*
X76500000Y-141500000D03*
D15*
G04 #@! TO.N,/SIG_WAKE*
X80500000Y-142500000D03*
X79000000Y-143000000D03*
G04 #@! TO.N,/SIG_DONE*
X77500000Y-139750000D03*
X80500000Y-139500000D03*
D14*
G04 #@! TO.N,/BME280_SS*
X79000000Y-153500000D03*
X79750000Y-146000000D03*
G04 #@! TO.N,/SWDIO*
X67500000Y-132500000D03*
X61000000Y-131000000D03*
D15*
G04 #@! TO.N,/NRF_VCC_EN*
X80750000Y-141250000D03*
X86250000Y-142750000D03*
D14*
G04 #@! TO.N,/NRF_CS*
X70185010Y-145250000D03*
X75250000Y-141500000D03*
G04 #@! TO.N,/MCU_RESET*
X68637660Y-131112340D03*
X65000000Y-130274990D03*
X63500000Y-131000000D03*
D15*
G04 #@! TO.N,/VBAT_ADC*
X63250000Y-141500000D03*
X67499974Y-142500000D03*
G04 #@! TD*
D16*
G04 #@! TO.N,VCC*
X71287500Y-141750000D02*
X66037500Y-147000000D01*
X73750000Y-141750000D02*
X71287500Y-141750000D01*
G04 #@! TO.N,GND*
X65000000Y-135000000D02*
X64500000Y-135500000D01*
X65000000Y-132750000D02*
X65000000Y-135000000D01*
G04 #@! TO.N,/BME280_SDO*
X81661907Y-151127471D02*
X81682630Y-151148194D01*
X81661907Y-147375114D02*
X81661907Y-151127471D01*
X81682630Y-151148194D02*
X81682630Y-151713879D01*
X81675021Y-147362000D02*
X81661907Y-147375114D01*
X81675021Y-146796315D02*
X81675021Y-147362000D01*
G04 #@! TO.N,/NRF_IRQ*
X81157674Y-152157674D02*
X87500000Y-158500000D01*
X80960000Y-152157674D02*
X81157674Y-152157674D01*
X76500000Y-141500000D02*
X80950011Y-145950011D01*
X80950011Y-145950011D02*
X80950011Y-152147685D01*
X80950011Y-152147685D02*
X80960000Y-152157674D01*
D17*
G04 #@! TO.N,/SIG_WAKE*
X80000000Y-143000000D02*
X80500000Y-142500000D01*
X79000000Y-143000000D02*
X80000000Y-143000000D01*
G04 #@! TO.N,/SIG_DONE*
X80300001Y-139699999D02*
X80500000Y-139500000D01*
X80250000Y-139750000D02*
X80300001Y-139699999D01*
X77500000Y-139750000D02*
X80250000Y-139750000D01*
D16*
G04 #@! TO.N,/BME280_SS*
X80500000Y-146750000D02*
X79750000Y-146000000D01*
X80500000Y-152000000D02*
X80500000Y-146750000D01*
X79000000Y-153500000D02*
X80500000Y-152000000D01*
G04 #@! TO.N,/SWDIO*
X61725002Y-130274998D02*
X61399999Y-130600001D01*
X63848002Y-130274998D02*
X61725002Y-130274998D01*
X61399999Y-130600001D02*
X61000000Y-131000000D01*
X66073004Y-132500000D02*
X63848002Y-130274998D01*
X67500000Y-132500000D02*
X66073004Y-132500000D01*
D17*
G04 #@! TO.N,/NRF_VCC_EN*
X82250000Y-142750000D02*
X85967158Y-142750000D01*
X85967158Y-142750000D02*
X86250000Y-142750000D01*
X80750000Y-141250000D02*
X82250000Y-142750000D01*
G04 #@! TO.N,/NRF_CS*
X70185010Y-144684315D02*
X70185010Y-145250000D01*
X70185010Y-144314990D02*
X70185010Y-144684315D01*
X71000000Y-143500000D02*
X70185010Y-144314990D01*
X75250000Y-141500000D02*
X73250000Y-143500000D01*
X73250000Y-143500000D02*
X71000000Y-143500000D01*
D16*
G04 #@! TO.N,/MCU_RESET*
X67800310Y-130274990D02*
X65565685Y-130274990D01*
X65565685Y-130274990D02*
X65000000Y-130274990D01*
X68637660Y-131112340D02*
X67800310Y-130274990D01*
D17*
G04 #@! TO.N,/VBAT_ADC*
X67217132Y-142500000D02*
X67499974Y-142500000D01*
X63250000Y-141500000D02*
X64250000Y-142500000D01*
X64250000Y-142500000D02*
X67217132Y-142500000D01*
G04 #@! TD*
D18*
G04 #@! TO.N,VCC*
G36*
X92197354Y-127220167D02*
X92608746Y-127407217D01*
X92951105Y-127702212D01*
X93196906Y-128081437D01*
X93330373Y-128527721D01*
X93348001Y-128764935D01*
X93348000Y-141539589D01*
X93371325Y-141656851D01*
X93460175Y-141789825D01*
X93593148Y-141878675D01*
X93750000Y-141909875D01*
X93773188Y-141905263D01*
X94664074Y-141978507D01*
X95553609Y-142201942D01*
X96394699Y-142567658D01*
X97164763Y-143065835D01*
X97843127Y-143683100D01*
X98411561Y-144402862D01*
X98854812Y-145205807D01*
X99160966Y-146070362D01*
X99323042Y-146980251D01*
X99347222Y-147492974D01*
X99271493Y-148414079D01*
X99048058Y-149303609D01*
X98682342Y-150144699D01*
X98184165Y-150914763D01*
X97566900Y-151593127D01*
X96847134Y-152161564D01*
X96044190Y-152604812D01*
X95179637Y-152910966D01*
X94269749Y-153073042D01*
X93780186Y-153096129D01*
X93750000Y-153090125D01*
X93593149Y-153121325D01*
X93460176Y-153210175D01*
X93371326Y-153343148D01*
X93348001Y-153460410D01*
X93348000Y-166221361D01*
X93279833Y-166697354D01*
X93092784Y-167108745D01*
X92797788Y-167451105D01*
X92418564Y-167696906D01*
X91972279Y-167830373D01*
X91735079Y-167848000D01*
X69877000Y-167848000D01*
X69877000Y-165783384D01*
X86371000Y-165783384D01*
X86371000Y-166216616D01*
X86536790Y-166616869D01*
X86843131Y-166923210D01*
X87243384Y-167089000D01*
X87676616Y-167089000D01*
X88076869Y-166923210D01*
X88383210Y-166616869D01*
X88549000Y-166216616D01*
X88549000Y-165783384D01*
X88383210Y-165383131D01*
X88238079Y-165238000D01*
X88904594Y-165238000D01*
X88904594Y-166762000D01*
X88929973Y-166889589D01*
X89002246Y-166997754D01*
X89110411Y-167070027D01*
X89238000Y-167095406D01*
X90762000Y-167095406D01*
X90889589Y-167070027D01*
X90997754Y-166997754D01*
X91070027Y-166889589D01*
X91095406Y-166762000D01*
X91095406Y-165238000D01*
X91070027Y-165110411D01*
X90997754Y-165002246D01*
X90889589Y-164929973D01*
X90762000Y-164904594D01*
X89238000Y-164904594D01*
X89110411Y-164929973D01*
X89002246Y-165002246D01*
X88929973Y-165110411D01*
X88904594Y-165238000D01*
X88238079Y-165238000D01*
X88076869Y-165076790D01*
X87676616Y-164911000D01*
X87243384Y-164911000D01*
X86843131Y-165076790D01*
X86536790Y-165383131D01*
X86371000Y-165783384D01*
X69877000Y-165783384D01*
X69877000Y-163243384D01*
X86371000Y-163243384D01*
X86371000Y-163676616D01*
X86536790Y-164076869D01*
X86843131Y-164383210D01*
X87243384Y-164549000D01*
X87676616Y-164549000D01*
X88076869Y-164383210D01*
X88383210Y-164076869D01*
X88549000Y-163676616D01*
X88549000Y-163243384D01*
X88911000Y-163243384D01*
X88911000Y-163676616D01*
X89076790Y-164076869D01*
X89383131Y-164383210D01*
X89783384Y-164549000D01*
X90216616Y-164549000D01*
X90616869Y-164383210D01*
X90923210Y-164076869D01*
X91089000Y-163676616D01*
X91089000Y-163243384D01*
X90923210Y-162843131D01*
X90616869Y-162536790D01*
X90216616Y-162371000D01*
X89783384Y-162371000D01*
X89383131Y-162536790D01*
X89076790Y-162843131D01*
X88911000Y-163243384D01*
X88549000Y-163243384D01*
X88383210Y-162843131D01*
X88076869Y-162536790D01*
X87676616Y-162371000D01*
X87243384Y-162371000D01*
X86843131Y-162536790D01*
X86536790Y-162843131D01*
X86371000Y-163243384D01*
X69877000Y-163243384D01*
X69877000Y-160703384D01*
X86371000Y-160703384D01*
X86371000Y-161136616D01*
X86536790Y-161536869D01*
X86843131Y-161843210D01*
X87243384Y-162009000D01*
X87676616Y-162009000D01*
X88076869Y-161843210D01*
X88383210Y-161536869D01*
X88549000Y-161136616D01*
X88549000Y-160703384D01*
X88911000Y-160703384D01*
X88911000Y-161136616D01*
X89076790Y-161536869D01*
X89383131Y-161843210D01*
X89783384Y-162009000D01*
X90216616Y-162009000D01*
X90616869Y-161843210D01*
X90923210Y-161536869D01*
X91089000Y-161136616D01*
X91089000Y-160703384D01*
X90923210Y-160303131D01*
X90616869Y-159996790D01*
X90216616Y-159831000D01*
X89783384Y-159831000D01*
X89383131Y-159996790D01*
X89076790Y-160303131D01*
X88911000Y-160703384D01*
X88549000Y-160703384D01*
X88383210Y-160303131D01*
X88076869Y-159996790D01*
X87676616Y-159831000D01*
X87243384Y-159831000D01*
X86843131Y-159996790D01*
X86536790Y-160303131D01*
X86371000Y-160703384D01*
X69877000Y-160703384D01*
X69877000Y-152750000D01*
X69867333Y-152701399D01*
X69839803Y-152660197D01*
X69798601Y-152632667D01*
X69750000Y-152623000D01*
X55750000Y-152623000D01*
X55701399Y-152632667D01*
X55660197Y-152660197D01*
X55632667Y-152701399D01*
X55623000Y-152750000D01*
X55623000Y-153086203D01*
X54835921Y-153021493D01*
X53946391Y-152798058D01*
X53105301Y-152432342D01*
X52335237Y-151934165D01*
X51656873Y-151316900D01*
X51292396Y-150855391D01*
X65310500Y-150855391D01*
X65310500Y-151144609D01*
X65421179Y-151411813D01*
X65625687Y-151616321D01*
X65892891Y-151727000D01*
X66182109Y-151727000D01*
X66449313Y-151616321D01*
X66653821Y-151411813D01*
X66764500Y-151144609D01*
X66764500Y-150855391D01*
X66653821Y-150588187D01*
X66458525Y-150392891D01*
X67273000Y-150392891D01*
X67273000Y-150682109D01*
X67383679Y-150949313D01*
X67588187Y-151153821D01*
X67855391Y-151264500D01*
X68144609Y-151264500D01*
X68411813Y-151153821D01*
X68616321Y-150949313D01*
X68727000Y-150682109D01*
X68727000Y-150392891D01*
X68616321Y-150125687D01*
X68411813Y-149921179D01*
X68144609Y-149810500D01*
X67855391Y-149810500D01*
X67588187Y-149921179D01*
X67383679Y-150125687D01*
X67273000Y-150392891D01*
X66458525Y-150392891D01*
X66449313Y-150383679D01*
X66182109Y-150273000D01*
X65892891Y-150273000D01*
X65625687Y-150383679D01*
X65421179Y-150588187D01*
X65310500Y-150855391D01*
X51292396Y-150855391D01*
X51088436Y-150597134D01*
X50645188Y-149794190D01*
X50339034Y-148929637D01*
X50176958Y-148019749D01*
X50152778Y-147507027D01*
X50193863Y-147007294D01*
X53273000Y-147007294D01*
X53273000Y-147992706D01*
X53650101Y-148903108D01*
X54346892Y-149599899D01*
X55257294Y-149977000D01*
X56242706Y-149977000D01*
X57153108Y-149599899D01*
X57849899Y-148903108D01*
X58227000Y-147992706D01*
X58227000Y-147007294D01*
X58164080Y-146855391D01*
X63773000Y-146855391D01*
X63773000Y-147144609D01*
X63883679Y-147411813D01*
X64088187Y-147616321D01*
X64355391Y-147727000D01*
X64644609Y-147727000D01*
X64911813Y-147616321D01*
X65116321Y-147411813D01*
X65227000Y-147144609D01*
X65227000Y-146855391D01*
X65116321Y-146588187D01*
X64911813Y-146383679D01*
X64644609Y-146273000D01*
X64355391Y-146273000D01*
X64088187Y-146383679D01*
X63883679Y-146588187D01*
X63773000Y-146855391D01*
X58164080Y-146855391D01*
X57849899Y-146096892D01*
X57153108Y-145400101D01*
X56242706Y-145023000D01*
X55257294Y-145023000D01*
X54346892Y-145400101D01*
X53650101Y-146096892D01*
X53273000Y-147007294D01*
X50193863Y-147007294D01*
X50228507Y-146585926D01*
X50451942Y-145696391D01*
X50817618Y-144855391D01*
X63773000Y-144855391D01*
X63773000Y-145144609D01*
X63883679Y-145411813D01*
X64088187Y-145616321D01*
X64355391Y-145727000D01*
X64644609Y-145727000D01*
X64911813Y-145616321D01*
X65116321Y-145411813D01*
X65227000Y-145144609D01*
X65227000Y-145105391D01*
X69458010Y-145105391D01*
X69458010Y-145394609D01*
X69568689Y-145661813D01*
X69773197Y-145866321D01*
X70040401Y-145977000D01*
X70329619Y-145977000D01*
X70416594Y-145940974D01*
X70416594Y-152250000D01*
X70441973Y-152377589D01*
X70514246Y-152485754D01*
X70532201Y-152497751D01*
X70553231Y-152548522D01*
X70701478Y-152696769D01*
X70895173Y-152777000D01*
X71104827Y-152777000D01*
X71298522Y-152696769D01*
X71411885Y-152583406D01*
X71838115Y-152583406D01*
X71951478Y-152696769D01*
X72145173Y-152777000D01*
X72354827Y-152777000D01*
X72548522Y-152696769D01*
X72661885Y-152583406D01*
X73338115Y-152583406D01*
X73451478Y-152696769D01*
X73645173Y-152777000D01*
X73854827Y-152777000D01*
X74048522Y-152696769D01*
X74161885Y-152583406D01*
X74838115Y-152583406D01*
X74951478Y-152696769D01*
X75145173Y-152777000D01*
X75354827Y-152777000D01*
X75548522Y-152696769D01*
X75661885Y-152583406D01*
X76338115Y-152583406D01*
X76451478Y-152696769D01*
X76645173Y-152777000D01*
X76854827Y-152777000D01*
X77048522Y-152696769D01*
X77161885Y-152583406D01*
X78088115Y-152583406D01*
X78201478Y-152696769D01*
X78395173Y-152777000D01*
X78604827Y-152777000D01*
X78798522Y-152696769D01*
X78946769Y-152548522D01*
X78967799Y-152497751D01*
X78985754Y-152485754D01*
X79058027Y-152377589D01*
X79083406Y-152250000D01*
X79083406Y-149488526D01*
X79108257Y-149548522D01*
X79256504Y-149696769D01*
X79450199Y-149777000D01*
X79659853Y-149777000D01*
X79853548Y-149696769D01*
X80001795Y-149548522D01*
X80048000Y-149436972D01*
X80048000Y-151812775D01*
X79087776Y-152773000D01*
X78855391Y-152773000D01*
X78588187Y-152883679D01*
X78383679Y-153088187D01*
X78273000Y-153355391D01*
X78273000Y-153644609D01*
X78383679Y-153911813D01*
X78588187Y-154116321D01*
X78855391Y-154227000D01*
X79144609Y-154227000D01*
X79411813Y-154116321D01*
X79616321Y-153911813D01*
X79727000Y-153644609D01*
X79727000Y-153412224D01*
X80647045Y-152492180D01*
X80783638Y-152583449D01*
X80915482Y-152609674D01*
X80960000Y-152618529D01*
X80976102Y-152615326D01*
X86415859Y-158055083D01*
X86371000Y-158163384D01*
X86371000Y-158596616D01*
X86536790Y-158996869D01*
X86843131Y-159303210D01*
X87243384Y-159469000D01*
X87676616Y-159469000D01*
X88076869Y-159303210D01*
X88383210Y-158996869D01*
X88549000Y-158596616D01*
X88549000Y-158163384D01*
X88911000Y-158163384D01*
X88911000Y-158596616D01*
X89076790Y-158996869D01*
X89383131Y-159303210D01*
X89783384Y-159469000D01*
X90216616Y-159469000D01*
X90616869Y-159303210D01*
X90923210Y-158996869D01*
X91089000Y-158596616D01*
X91089000Y-158163384D01*
X90923210Y-157763131D01*
X90616869Y-157456790D01*
X90216616Y-157291000D01*
X89783384Y-157291000D01*
X89383131Y-157456790D01*
X89076790Y-157763131D01*
X88911000Y-158163384D01*
X88549000Y-158163384D01*
X88383210Y-157763131D01*
X88076869Y-157456790D01*
X87676616Y-157291000D01*
X87243384Y-157291000D01*
X87021946Y-157382722D01*
X82006041Y-152366817D01*
X82094443Y-152330200D01*
X82298951Y-152125692D01*
X82409630Y-151858488D01*
X82409630Y-151569270D01*
X82298951Y-151302066D01*
X82143089Y-151146204D01*
X82119378Y-151027000D01*
X82113907Y-150999493D01*
X82113907Y-147472448D01*
X82127021Y-147406518D01*
X82135480Y-147363990D01*
X82291342Y-147208128D01*
X82374529Y-147007294D01*
X91273000Y-147007294D01*
X91273000Y-147992706D01*
X91650101Y-148903108D01*
X92346892Y-149599899D01*
X93257294Y-149977000D01*
X94242706Y-149977000D01*
X95153108Y-149599899D01*
X95849899Y-148903108D01*
X96227000Y-147992706D01*
X96227000Y-147007294D01*
X95849899Y-146096892D01*
X95153108Y-145400101D01*
X94242706Y-145023000D01*
X93257294Y-145023000D01*
X92346892Y-145400101D01*
X91650101Y-146096892D01*
X91273000Y-147007294D01*
X82374529Y-147007294D01*
X82402021Y-146940924D01*
X82402021Y-146651706D01*
X82291342Y-146384502D01*
X82086834Y-146179994D01*
X81819630Y-146069315D01*
X81530412Y-146069315D01*
X81402011Y-146122500D01*
X81402011Y-145994529D01*
X81410866Y-145950011D01*
X81389808Y-145844141D01*
X81375786Y-145773649D01*
X81275885Y-145624137D01*
X81238145Y-145598920D01*
X80994616Y-145355391D01*
X85273000Y-145355391D01*
X85273000Y-145644609D01*
X85383679Y-145911813D01*
X85588187Y-146116321D01*
X85855391Y-146227000D01*
X86144609Y-146227000D01*
X86411813Y-146116321D01*
X86616321Y-145911813D01*
X86727000Y-145644609D01*
X86727000Y-145355391D01*
X86616321Y-145088187D01*
X86411813Y-144883679D01*
X86144609Y-144773000D01*
X85855391Y-144773000D01*
X85588187Y-144883679D01*
X85383679Y-145088187D01*
X85273000Y-145355391D01*
X80994616Y-145355391D01*
X79148242Y-143509017D01*
X79298522Y-143446769D01*
X79318291Y-143427000D01*
X79957947Y-143427000D01*
X80000000Y-143435365D01*
X80042053Y-143427000D01*
X80042054Y-143427000D01*
X80166607Y-143402225D01*
X80307850Y-143307850D01*
X80331675Y-143272193D01*
X80576869Y-143027000D01*
X80604827Y-143027000D01*
X80798522Y-142946769D01*
X80946769Y-142798522D01*
X81027000Y-142604827D01*
X81027000Y-142395173D01*
X80946769Y-142201478D01*
X80798522Y-142053231D01*
X80604827Y-141973000D01*
X80395173Y-141973000D01*
X80201478Y-142053231D01*
X80053231Y-142201478D01*
X79973000Y-142395173D01*
X79973000Y-142423131D01*
X79823132Y-142573000D01*
X79318291Y-142573000D01*
X79298522Y-142553231D01*
X79104827Y-142473000D01*
X78895173Y-142473000D01*
X78701478Y-142553231D01*
X78553231Y-142701478D01*
X78490983Y-142851758D01*
X77227000Y-141587776D01*
X77227000Y-141355391D01*
X77139926Y-141145173D01*
X80223000Y-141145173D01*
X80223000Y-141354827D01*
X80303231Y-141548522D01*
X80451478Y-141696769D01*
X80645173Y-141777000D01*
X80673132Y-141777000D01*
X81918329Y-143022198D01*
X81942150Y-143057850D01*
X82083393Y-143152225D01*
X82207946Y-143177000D01*
X82249999Y-143185365D01*
X82292052Y-143177000D01*
X85931709Y-143177000D01*
X85951478Y-143196769D01*
X86145173Y-143277000D01*
X86354827Y-143277000D01*
X86548522Y-143196769D01*
X86696769Y-143048522D01*
X86777000Y-142854827D01*
X86777000Y-142645173D01*
X86696769Y-142451478D01*
X86548522Y-142303231D01*
X86354827Y-142223000D01*
X86145173Y-142223000D01*
X85951478Y-142303231D01*
X85931709Y-142323000D01*
X82426870Y-142323000D01*
X81277000Y-141173132D01*
X81277000Y-141145173D01*
X81196769Y-140951478D01*
X81048522Y-140803231D01*
X80854827Y-140723000D01*
X80645173Y-140723000D01*
X80451478Y-140803231D01*
X80303231Y-140951478D01*
X80223000Y-141145173D01*
X77139926Y-141145173D01*
X77116321Y-141088187D01*
X76911813Y-140883679D01*
X76644609Y-140773000D01*
X76355391Y-140773000D01*
X76088187Y-140883679D01*
X75883679Y-141088187D01*
X75875000Y-141109140D01*
X75866321Y-141088187D01*
X75661813Y-140883679D01*
X75394609Y-140773000D01*
X75105391Y-140773000D01*
X74838187Y-140883679D01*
X74633679Y-141088187D01*
X74523000Y-141355391D01*
X74523000Y-141623130D01*
X73073132Y-143073000D01*
X71042054Y-143073000D01*
X71000000Y-143064635D01*
X70833392Y-143097775D01*
X70804056Y-143117377D01*
X70692150Y-143192150D01*
X70668328Y-143227803D01*
X69912817Y-143983315D01*
X69877160Y-144007140D01*
X69782785Y-144148384D01*
X69762543Y-144250149D01*
X69749645Y-144314990D01*
X69758010Y-144357043D01*
X69758010Y-144648866D01*
X69568689Y-144838187D01*
X69458010Y-145105391D01*
X65227000Y-145105391D01*
X65227000Y-144855391D01*
X65116321Y-144588187D01*
X64911813Y-144383679D01*
X64644609Y-144273000D01*
X64355391Y-144273000D01*
X64088187Y-144383679D01*
X63883679Y-144588187D01*
X63773000Y-144855391D01*
X50817618Y-144855391D01*
X50817658Y-144855301D01*
X51315835Y-144085237D01*
X51933100Y-143406873D01*
X52652862Y-142838439D01*
X53455807Y-142395188D01*
X54320362Y-142089034D01*
X55230251Y-141926958D01*
X55719814Y-141903871D01*
X55750000Y-141909875D01*
X55906851Y-141878675D01*
X56039825Y-141789825D01*
X56128675Y-141656852D01*
X56152000Y-141539590D01*
X56152000Y-141395173D01*
X62723000Y-141395173D01*
X62723000Y-141604827D01*
X62803231Y-141798522D01*
X62951478Y-141946769D01*
X63145173Y-142027000D01*
X63173132Y-142027000D01*
X63918327Y-142772196D01*
X63930881Y-142790985D01*
X63883679Y-142838187D01*
X63773000Y-143105391D01*
X63773000Y-143394609D01*
X63883679Y-143661813D01*
X64088187Y-143866321D01*
X64355391Y-143977000D01*
X64644609Y-143977000D01*
X64911813Y-143866321D01*
X65116321Y-143661813D01*
X65227000Y-143394609D01*
X65227000Y-143105391D01*
X65153108Y-142927000D01*
X67181683Y-142927000D01*
X67201452Y-142946769D01*
X67395147Y-143027000D01*
X67604801Y-143027000D01*
X67798496Y-142946769D01*
X67946743Y-142798522D01*
X68026974Y-142604827D01*
X68026974Y-142395173D01*
X67946743Y-142201478D01*
X67798496Y-142053231D01*
X67604801Y-141973000D01*
X67395147Y-141973000D01*
X67201452Y-142053231D01*
X67181683Y-142073000D01*
X64426869Y-142073000D01*
X63777000Y-141423132D01*
X63777000Y-141395173D01*
X63696769Y-141201478D01*
X63548522Y-141053231D01*
X63354827Y-140973000D01*
X63145173Y-140973000D01*
X62951478Y-141053231D01*
X62803231Y-141201478D01*
X62723000Y-141395173D01*
X56152000Y-141395173D01*
X56152000Y-139355391D01*
X63773000Y-139355391D01*
X63773000Y-139644609D01*
X63883679Y-139911813D01*
X64088187Y-140116321D01*
X64355391Y-140227000D01*
X64644609Y-140227000D01*
X64911813Y-140116321D01*
X65116321Y-139911813D01*
X65226766Y-139645173D01*
X76973000Y-139645173D01*
X76973000Y-139854827D01*
X77053231Y-140048522D01*
X77201478Y-140196769D01*
X77395173Y-140277000D01*
X77604827Y-140277000D01*
X77798522Y-140196769D01*
X77818291Y-140177000D01*
X80207947Y-140177000D01*
X80250000Y-140185365D01*
X80292053Y-140177000D01*
X80292054Y-140177000D01*
X80416607Y-140152225D01*
X80557850Y-140057850D01*
X80578463Y-140027000D01*
X80604827Y-140027000D01*
X80798522Y-139946769D01*
X80889900Y-139855391D01*
X84485500Y-139855391D01*
X84485500Y-140144609D01*
X84596179Y-140411813D01*
X84800687Y-140616321D01*
X85067891Y-140727000D01*
X85357109Y-140727000D01*
X85624313Y-140616321D01*
X85828821Y-140411813D01*
X85939500Y-140144609D01*
X85939500Y-139855391D01*
X85828821Y-139588187D01*
X85624313Y-139383679D01*
X85357109Y-139273000D01*
X85067891Y-139273000D01*
X84800687Y-139383679D01*
X84596179Y-139588187D01*
X84485500Y-139855391D01*
X80889900Y-139855391D01*
X80946769Y-139798522D01*
X81027000Y-139604827D01*
X81027000Y-139395173D01*
X80946769Y-139201478D01*
X80798522Y-139053231D01*
X80604827Y-138973000D01*
X80395173Y-138973000D01*
X80201478Y-139053231D01*
X80053231Y-139201478D01*
X80002895Y-139323000D01*
X77818291Y-139323000D01*
X77798522Y-139303231D01*
X77604827Y-139223000D01*
X77395173Y-139223000D01*
X77201478Y-139303231D01*
X77053231Y-139451478D01*
X76973000Y-139645173D01*
X65226766Y-139645173D01*
X65227000Y-139644609D01*
X65227000Y-139355391D01*
X65116321Y-139088187D01*
X64911813Y-138883679D01*
X64644609Y-138773000D01*
X64355391Y-138773000D01*
X64088187Y-138883679D01*
X63883679Y-139088187D01*
X63773000Y-139355391D01*
X56152000Y-139355391D01*
X56152000Y-130855391D01*
X60273000Y-130855391D01*
X60273000Y-131144609D01*
X60383679Y-131411813D01*
X60588187Y-131616321D01*
X60855391Y-131727000D01*
X61144609Y-131727000D01*
X61411813Y-131616321D01*
X61616321Y-131411813D01*
X61727000Y-131144609D01*
X61727000Y-130912225D01*
X61751090Y-130888135D01*
X61751092Y-130888132D01*
X61912227Y-130726998D01*
X62826182Y-130726998D01*
X62773000Y-130855391D01*
X62773000Y-131144609D01*
X62883679Y-131411813D01*
X63088187Y-131616321D01*
X63355391Y-131727000D01*
X63644609Y-131727000D01*
X63911813Y-131616321D01*
X64116321Y-131411813D01*
X64183473Y-131249693D01*
X64956779Y-132023000D01*
X64855391Y-132023000D01*
X64588187Y-132133679D01*
X64383679Y-132338187D01*
X64273000Y-132605391D01*
X64273000Y-132894609D01*
X64383679Y-133161813D01*
X64548000Y-133326134D01*
X64548001Y-134773000D01*
X64355391Y-134773000D01*
X64088187Y-134883679D01*
X63883679Y-135088187D01*
X63773000Y-135355391D01*
X63773000Y-135644609D01*
X63883679Y-135911813D01*
X64088187Y-136116321D01*
X64355391Y-136227000D01*
X64644609Y-136227000D01*
X64911813Y-136116321D01*
X65116321Y-135911813D01*
X65227000Y-135644609D01*
X65227000Y-135412225D01*
X65288133Y-135351092D01*
X65325874Y-135325874D01*
X65425775Y-135176362D01*
X65452000Y-135044518D01*
X65460855Y-135000000D01*
X65452000Y-134955482D01*
X65452000Y-133326134D01*
X65616321Y-133161813D01*
X65727000Y-132894609D01*
X65727000Y-132795747D01*
X65747130Y-132825874D01*
X65784870Y-132851091D01*
X65896642Y-132925775D01*
X66073003Y-132960855D01*
X66117521Y-132952000D01*
X66923866Y-132952000D01*
X67088187Y-133116321D01*
X67355391Y-133227000D01*
X67644609Y-133227000D01*
X67911813Y-133116321D01*
X68116321Y-132911813D01*
X68227000Y-132644609D01*
X68227000Y-132355391D01*
X68116321Y-132088187D01*
X67911813Y-131883679D01*
X67644609Y-131773000D01*
X67355391Y-131773000D01*
X67088187Y-131883679D01*
X66923866Y-132048000D01*
X66260229Y-132048000D01*
X65193830Y-130981602D01*
X65411813Y-130891311D01*
X65576134Y-130726990D01*
X67613086Y-130726990D01*
X67910660Y-131024565D01*
X67910660Y-131256949D01*
X68021339Y-131524153D01*
X68225847Y-131728661D01*
X68493051Y-131839340D01*
X68782269Y-131839340D01*
X69049473Y-131728661D01*
X69253981Y-131524153D01*
X69364660Y-131256949D01*
X69364660Y-130967731D01*
X69253981Y-130700527D01*
X69049473Y-130496019D01*
X68782269Y-130385340D01*
X68549885Y-130385340D01*
X68197929Y-130033384D01*
X79911000Y-130033384D01*
X79911000Y-130466616D01*
X80076790Y-130866869D01*
X80383131Y-131173210D01*
X80783384Y-131339000D01*
X81216616Y-131339000D01*
X81616869Y-131173210D01*
X81923210Y-130866869D01*
X82089000Y-130466616D01*
X82089000Y-130033384D01*
X81923210Y-129633131D01*
X81616869Y-129326790D01*
X81216616Y-129161000D01*
X80783384Y-129161000D01*
X80383131Y-129326790D01*
X80076790Y-129633131D01*
X79911000Y-130033384D01*
X68197929Y-130033384D01*
X68151403Y-129986859D01*
X68126184Y-129949116D01*
X67976672Y-129849215D01*
X67844828Y-129822990D01*
X67800310Y-129814135D01*
X67755792Y-129822990D01*
X65576134Y-129822990D01*
X65411813Y-129658669D01*
X65144609Y-129547990D01*
X64855391Y-129547990D01*
X64588187Y-129658669D01*
X64383679Y-129863177D01*
X64293388Y-130081160D01*
X64199095Y-129986867D01*
X64173876Y-129949124D01*
X64024364Y-129849223D01*
X63892520Y-129822998D01*
X63848002Y-129814143D01*
X63803484Y-129822998D01*
X61769520Y-129822998D01*
X61725002Y-129814143D01*
X61680484Y-129822998D01*
X61548640Y-129849223D01*
X61399128Y-129949124D01*
X61373910Y-129986865D01*
X61111868Y-130248908D01*
X61111865Y-130248910D01*
X61087775Y-130273000D01*
X60855391Y-130273000D01*
X60588187Y-130383679D01*
X60383679Y-130588187D01*
X60273000Y-130855391D01*
X56152000Y-130855391D01*
X56152000Y-128778639D01*
X56220167Y-128302646D01*
X56407217Y-127891254D01*
X56702212Y-127548895D01*
X57081437Y-127303094D01*
X57527721Y-127169627D01*
X57764921Y-127152000D01*
X91721361Y-127152000D01*
X92197354Y-127220167D01*
X92197354Y-127220167D01*
G37*
X92197354Y-127220167D02*
X92608746Y-127407217D01*
X92951105Y-127702212D01*
X93196906Y-128081437D01*
X93330373Y-128527721D01*
X93348001Y-128764935D01*
X93348000Y-141539589D01*
X93371325Y-141656851D01*
X93460175Y-141789825D01*
X93593148Y-141878675D01*
X93750000Y-141909875D01*
X93773188Y-141905263D01*
X94664074Y-141978507D01*
X95553609Y-142201942D01*
X96394699Y-142567658D01*
X97164763Y-143065835D01*
X97843127Y-143683100D01*
X98411561Y-144402862D01*
X98854812Y-145205807D01*
X99160966Y-146070362D01*
X99323042Y-146980251D01*
X99347222Y-147492974D01*
X99271493Y-148414079D01*
X99048058Y-149303609D01*
X98682342Y-150144699D01*
X98184165Y-150914763D01*
X97566900Y-151593127D01*
X96847134Y-152161564D01*
X96044190Y-152604812D01*
X95179637Y-152910966D01*
X94269749Y-153073042D01*
X93780186Y-153096129D01*
X93750000Y-153090125D01*
X93593149Y-153121325D01*
X93460176Y-153210175D01*
X93371326Y-153343148D01*
X93348001Y-153460410D01*
X93348000Y-166221361D01*
X93279833Y-166697354D01*
X93092784Y-167108745D01*
X92797788Y-167451105D01*
X92418564Y-167696906D01*
X91972279Y-167830373D01*
X91735079Y-167848000D01*
X69877000Y-167848000D01*
X69877000Y-165783384D01*
X86371000Y-165783384D01*
X86371000Y-166216616D01*
X86536790Y-166616869D01*
X86843131Y-166923210D01*
X87243384Y-167089000D01*
X87676616Y-167089000D01*
X88076869Y-166923210D01*
X88383210Y-166616869D01*
X88549000Y-166216616D01*
X88549000Y-165783384D01*
X88383210Y-165383131D01*
X88238079Y-165238000D01*
X88904594Y-165238000D01*
X88904594Y-166762000D01*
X88929973Y-166889589D01*
X89002246Y-166997754D01*
X89110411Y-167070027D01*
X89238000Y-167095406D01*
X90762000Y-167095406D01*
X90889589Y-167070027D01*
X90997754Y-166997754D01*
X91070027Y-166889589D01*
X91095406Y-166762000D01*
X91095406Y-165238000D01*
X91070027Y-165110411D01*
X90997754Y-165002246D01*
X90889589Y-164929973D01*
X90762000Y-164904594D01*
X89238000Y-164904594D01*
X89110411Y-164929973D01*
X89002246Y-165002246D01*
X88929973Y-165110411D01*
X88904594Y-165238000D01*
X88238079Y-165238000D01*
X88076869Y-165076790D01*
X87676616Y-164911000D01*
X87243384Y-164911000D01*
X86843131Y-165076790D01*
X86536790Y-165383131D01*
X86371000Y-165783384D01*
X69877000Y-165783384D01*
X69877000Y-163243384D01*
X86371000Y-163243384D01*
X86371000Y-163676616D01*
X86536790Y-164076869D01*
X86843131Y-164383210D01*
X87243384Y-164549000D01*
X87676616Y-164549000D01*
X88076869Y-164383210D01*
X88383210Y-164076869D01*
X88549000Y-163676616D01*
X88549000Y-163243384D01*
X88911000Y-163243384D01*
X88911000Y-163676616D01*
X89076790Y-164076869D01*
X89383131Y-164383210D01*
X89783384Y-164549000D01*
X90216616Y-164549000D01*
X90616869Y-164383210D01*
X90923210Y-164076869D01*
X91089000Y-163676616D01*
X91089000Y-163243384D01*
X90923210Y-162843131D01*
X90616869Y-162536790D01*
X90216616Y-162371000D01*
X89783384Y-162371000D01*
X89383131Y-162536790D01*
X89076790Y-162843131D01*
X88911000Y-163243384D01*
X88549000Y-163243384D01*
X88383210Y-162843131D01*
X88076869Y-162536790D01*
X87676616Y-162371000D01*
X87243384Y-162371000D01*
X86843131Y-162536790D01*
X86536790Y-162843131D01*
X86371000Y-163243384D01*
X69877000Y-163243384D01*
X69877000Y-160703384D01*
X86371000Y-160703384D01*
X86371000Y-161136616D01*
X86536790Y-161536869D01*
X86843131Y-161843210D01*
X87243384Y-162009000D01*
X87676616Y-162009000D01*
X88076869Y-161843210D01*
X88383210Y-161536869D01*
X88549000Y-161136616D01*
X88549000Y-160703384D01*
X88911000Y-160703384D01*
X88911000Y-161136616D01*
X89076790Y-161536869D01*
X89383131Y-161843210D01*
X89783384Y-162009000D01*
X90216616Y-162009000D01*
X90616869Y-161843210D01*
X90923210Y-161536869D01*
X91089000Y-161136616D01*
X91089000Y-160703384D01*
X90923210Y-160303131D01*
X90616869Y-159996790D01*
X90216616Y-159831000D01*
X89783384Y-159831000D01*
X89383131Y-159996790D01*
X89076790Y-160303131D01*
X88911000Y-160703384D01*
X88549000Y-160703384D01*
X88383210Y-160303131D01*
X88076869Y-159996790D01*
X87676616Y-159831000D01*
X87243384Y-159831000D01*
X86843131Y-159996790D01*
X86536790Y-160303131D01*
X86371000Y-160703384D01*
X69877000Y-160703384D01*
X69877000Y-152750000D01*
X69867333Y-152701399D01*
X69839803Y-152660197D01*
X69798601Y-152632667D01*
X69750000Y-152623000D01*
X55750000Y-152623000D01*
X55701399Y-152632667D01*
X55660197Y-152660197D01*
X55632667Y-152701399D01*
X55623000Y-152750000D01*
X55623000Y-153086203D01*
X54835921Y-153021493D01*
X53946391Y-152798058D01*
X53105301Y-152432342D01*
X52335237Y-151934165D01*
X51656873Y-151316900D01*
X51292396Y-150855391D01*
X65310500Y-150855391D01*
X65310500Y-151144609D01*
X65421179Y-151411813D01*
X65625687Y-151616321D01*
X65892891Y-151727000D01*
X66182109Y-151727000D01*
X66449313Y-151616321D01*
X66653821Y-151411813D01*
X66764500Y-151144609D01*
X66764500Y-150855391D01*
X66653821Y-150588187D01*
X66458525Y-150392891D01*
X67273000Y-150392891D01*
X67273000Y-150682109D01*
X67383679Y-150949313D01*
X67588187Y-151153821D01*
X67855391Y-151264500D01*
X68144609Y-151264500D01*
X68411813Y-151153821D01*
X68616321Y-150949313D01*
X68727000Y-150682109D01*
X68727000Y-150392891D01*
X68616321Y-150125687D01*
X68411813Y-149921179D01*
X68144609Y-149810500D01*
X67855391Y-149810500D01*
X67588187Y-149921179D01*
X67383679Y-150125687D01*
X67273000Y-150392891D01*
X66458525Y-150392891D01*
X66449313Y-150383679D01*
X66182109Y-150273000D01*
X65892891Y-150273000D01*
X65625687Y-150383679D01*
X65421179Y-150588187D01*
X65310500Y-150855391D01*
X51292396Y-150855391D01*
X51088436Y-150597134D01*
X50645188Y-149794190D01*
X50339034Y-148929637D01*
X50176958Y-148019749D01*
X50152778Y-147507027D01*
X50193863Y-147007294D01*
X53273000Y-147007294D01*
X53273000Y-147992706D01*
X53650101Y-148903108D01*
X54346892Y-149599899D01*
X55257294Y-149977000D01*
X56242706Y-149977000D01*
X57153108Y-149599899D01*
X57849899Y-148903108D01*
X58227000Y-147992706D01*
X58227000Y-147007294D01*
X58164080Y-146855391D01*
X63773000Y-146855391D01*
X63773000Y-147144609D01*
X63883679Y-147411813D01*
X64088187Y-147616321D01*
X64355391Y-147727000D01*
X64644609Y-147727000D01*
X64911813Y-147616321D01*
X65116321Y-147411813D01*
X65227000Y-147144609D01*
X65227000Y-146855391D01*
X65116321Y-146588187D01*
X64911813Y-146383679D01*
X64644609Y-146273000D01*
X64355391Y-146273000D01*
X64088187Y-146383679D01*
X63883679Y-146588187D01*
X63773000Y-146855391D01*
X58164080Y-146855391D01*
X57849899Y-146096892D01*
X57153108Y-145400101D01*
X56242706Y-145023000D01*
X55257294Y-145023000D01*
X54346892Y-145400101D01*
X53650101Y-146096892D01*
X53273000Y-147007294D01*
X50193863Y-147007294D01*
X50228507Y-146585926D01*
X50451942Y-145696391D01*
X50817618Y-144855391D01*
X63773000Y-144855391D01*
X63773000Y-145144609D01*
X63883679Y-145411813D01*
X64088187Y-145616321D01*
X64355391Y-145727000D01*
X64644609Y-145727000D01*
X64911813Y-145616321D01*
X65116321Y-145411813D01*
X65227000Y-145144609D01*
X65227000Y-145105391D01*
X69458010Y-145105391D01*
X69458010Y-145394609D01*
X69568689Y-145661813D01*
X69773197Y-145866321D01*
X70040401Y-145977000D01*
X70329619Y-145977000D01*
X70416594Y-145940974D01*
X70416594Y-152250000D01*
X70441973Y-152377589D01*
X70514246Y-152485754D01*
X70532201Y-152497751D01*
X70553231Y-152548522D01*
X70701478Y-152696769D01*
X70895173Y-152777000D01*
X71104827Y-152777000D01*
X71298522Y-152696769D01*
X71411885Y-152583406D01*
X71838115Y-152583406D01*
X71951478Y-152696769D01*
X72145173Y-152777000D01*
X72354827Y-152777000D01*
X72548522Y-152696769D01*
X72661885Y-152583406D01*
X73338115Y-152583406D01*
X73451478Y-152696769D01*
X73645173Y-152777000D01*
X73854827Y-152777000D01*
X74048522Y-152696769D01*
X74161885Y-152583406D01*
X74838115Y-152583406D01*
X74951478Y-152696769D01*
X75145173Y-152777000D01*
X75354827Y-152777000D01*
X75548522Y-152696769D01*
X75661885Y-152583406D01*
X76338115Y-152583406D01*
X76451478Y-152696769D01*
X76645173Y-152777000D01*
X76854827Y-152777000D01*
X77048522Y-152696769D01*
X77161885Y-152583406D01*
X78088115Y-152583406D01*
X78201478Y-152696769D01*
X78395173Y-152777000D01*
X78604827Y-152777000D01*
X78798522Y-152696769D01*
X78946769Y-152548522D01*
X78967799Y-152497751D01*
X78985754Y-152485754D01*
X79058027Y-152377589D01*
X79083406Y-152250000D01*
X79083406Y-149488526D01*
X79108257Y-149548522D01*
X79256504Y-149696769D01*
X79450199Y-149777000D01*
X79659853Y-149777000D01*
X79853548Y-149696769D01*
X80001795Y-149548522D01*
X80048000Y-149436972D01*
X80048000Y-151812775D01*
X79087776Y-152773000D01*
X78855391Y-152773000D01*
X78588187Y-152883679D01*
X78383679Y-153088187D01*
X78273000Y-153355391D01*
X78273000Y-153644609D01*
X78383679Y-153911813D01*
X78588187Y-154116321D01*
X78855391Y-154227000D01*
X79144609Y-154227000D01*
X79411813Y-154116321D01*
X79616321Y-153911813D01*
X79727000Y-153644609D01*
X79727000Y-153412224D01*
X80647045Y-152492180D01*
X80783638Y-152583449D01*
X80915482Y-152609674D01*
X80960000Y-152618529D01*
X80976102Y-152615326D01*
X86415859Y-158055083D01*
X86371000Y-158163384D01*
X86371000Y-158596616D01*
X86536790Y-158996869D01*
X86843131Y-159303210D01*
X87243384Y-159469000D01*
X87676616Y-159469000D01*
X88076869Y-159303210D01*
X88383210Y-158996869D01*
X88549000Y-158596616D01*
X88549000Y-158163384D01*
X88911000Y-158163384D01*
X88911000Y-158596616D01*
X89076790Y-158996869D01*
X89383131Y-159303210D01*
X89783384Y-159469000D01*
X90216616Y-159469000D01*
X90616869Y-159303210D01*
X90923210Y-158996869D01*
X91089000Y-158596616D01*
X91089000Y-158163384D01*
X90923210Y-157763131D01*
X90616869Y-157456790D01*
X90216616Y-157291000D01*
X89783384Y-157291000D01*
X89383131Y-157456790D01*
X89076790Y-157763131D01*
X88911000Y-158163384D01*
X88549000Y-158163384D01*
X88383210Y-157763131D01*
X88076869Y-157456790D01*
X87676616Y-157291000D01*
X87243384Y-157291000D01*
X87021946Y-157382722D01*
X82006041Y-152366817D01*
X82094443Y-152330200D01*
X82298951Y-152125692D01*
X82409630Y-151858488D01*
X82409630Y-151569270D01*
X82298951Y-151302066D01*
X82143089Y-151146204D01*
X82119378Y-151027000D01*
X82113907Y-150999493D01*
X82113907Y-147472448D01*
X82127021Y-147406518D01*
X82135480Y-147363990D01*
X82291342Y-147208128D01*
X82374529Y-147007294D01*
X91273000Y-147007294D01*
X91273000Y-147992706D01*
X91650101Y-148903108D01*
X92346892Y-149599899D01*
X93257294Y-149977000D01*
X94242706Y-149977000D01*
X95153108Y-149599899D01*
X95849899Y-148903108D01*
X96227000Y-147992706D01*
X96227000Y-147007294D01*
X95849899Y-146096892D01*
X95153108Y-145400101D01*
X94242706Y-145023000D01*
X93257294Y-145023000D01*
X92346892Y-145400101D01*
X91650101Y-146096892D01*
X91273000Y-147007294D01*
X82374529Y-147007294D01*
X82402021Y-146940924D01*
X82402021Y-146651706D01*
X82291342Y-146384502D01*
X82086834Y-146179994D01*
X81819630Y-146069315D01*
X81530412Y-146069315D01*
X81402011Y-146122500D01*
X81402011Y-145994529D01*
X81410866Y-145950011D01*
X81389808Y-145844141D01*
X81375786Y-145773649D01*
X81275885Y-145624137D01*
X81238145Y-145598920D01*
X80994616Y-145355391D01*
X85273000Y-145355391D01*
X85273000Y-145644609D01*
X85383679Y-145911813D01*
X85588187Y-146116321D01*
X85855391Y-146227000D01*
X86144609Y-146227000D01*
X86411813Y-146116321D01*
X86616321Y-145911813D01*
X86727000Y-145644609D01*
X86727000Y-145355391D01*
X86616321Y-145088187D01*
X86411813Y-144883679D01*
X86144609Y-144773000D01*
X85855391Y-144773000D01*
X85588187Y-144883679D01*
X85383679Y-145088187D01*
X85273000Y-145355391D01*
X80994616Y-145355391D01*
X79148242Y-143509017D01*
X79298522Y-143446769D01*
X79318291Y-143427000D01*
X79957947Y-143427000D01*
X80000000Y-143435365D01*
X80042053Y-143427000D01*
X80042054Y-143427000D01*
X80166607Y-143402225D01*
X80307850Y-143307850D01*
X80331675Y-143272193D01*
X80576869Y-143027000D01*
X80604827Y-143027000D01*
X80798522Y-142946769D01*
X80946769Y-142798522D01*
X81027000Y-142604827D01*
X81027000Y-142395173D01*
X80946769Y-142201478D01*
X80798522Y-142053231D01*
X80604827Y-141973000D01*
X80395173Y-141973000D01*
X80201478Y-142053231D01*
X80053231Y-142201478D01*
X79973000Y-142395173D01*
X79973000Y-142423131D01*
X79823132Y-142573000D01*
X79318291Y-142573000D01*
X79298522Y-142553231D01*
X79104827Y-142473000D01*
X78895173Y-142473000D01*
X78701478Y-142553231D01*
X78553231Y-142701478D01*
X78490983Y-142851758D01*
X77227000Y-141587776D01*
X77227000Y-141355391D01*
X77139926Y-141145173D01*
X80223000Y-141145173D01*
X80223000Y-141354827D01*
X80303231Y-141548522D01*
X80451478Y-141696769D01*
X80645173Y-141777000D01*
X80673132Y-141777000D01*
X81918329Y-143022198D01*
X81942150Y-143057850D01*
X82083393Y-143152225D01*
X82207946Y-143177000D01*
X82249999Y-143185365D01*
X82292052Y-143177000D01*
X85931709Y-143177000D01*
X85951478Y-143196769D01*
X86145173Y-143277000D01*
X86354827Y-143277000D01*
X86548522Y-143196769D01*
X86696769Y-143048522D01*
X86777000Y-142854827D01*
X86777000Y-142645173D01*
X86696769Y-142451478D01*
X86548522Y-142303231D01*
X86354827Y-142223000D01*
X86145173Y-142223000D01*
X85951478Y-142303231D01*
X85931709Y-142323000D01*
X82426870Y-142323000D01*
X81277000Y-141173132D01*
X81277000Y-141145173D01*
X81196769Y-140951478D01*
X81048522Y-140803231D01*
X80854827Y-140723000D01*
X80645173Y-140723000D01*
X80451478Y-140803231D01*
X80303231Y-140951478D01*
X80223000Y-141145173D01*
X77139926Y-141145173D01*
X77116321Y-141088187D01*
X76911813Y-140883679D01*
X76644609Y-140773000D01*
X76355391Y-140773000D01*
X76088187Y-140883679D01*
X75883679Y-141088187D01*
X75875000Y-141109140D01*
X75866321Y-141088187D01*
X75661813Y-140883679D01*
X75394609Y-140773000D01*
X75105391Y-140773000D01*
X74838187Y-140883679D01*
X74633679Y-141088187D01*
X74523000Y-141355391D01*
X74523000Y-141623130D01*
X73073132Y-143073000D01*
X71042054Y-143073000D01*
X71000000Y-143064635D01*
X70833392Y-143097775D01*
X70804056Y-143117377D01*
X70692150Y-143192150D01*
X70668328Y-143227803D01*
X69912817Y-143983315D01*
X69877160Y-144007140D01*
X69782785Y-144148384D01*
X69762543Y-144250149D01*
X69749645Y-144314990D01*
X69758010Y-144357043D01*
X69758010Y-144648866D01*
X69568689Y-144838187D01*
X69458010Y-145105391D01*
X65227000Y-145105391D01*
X65227000Y-144855391D01*
X65116321Y-144588187D01*
X64911813Y-144383679D01*
X64644609Y-144273000D01*
X64355391Y-144273000D01*
X64088187Y-144383679D01*
X63883679Y-144588187D01*
X63773000Y-144855391D01*
X50817618Y-144855391D01*
X50817658Y-144855301D01*
X51315835Y-144085237D01*
X51933100Y-143406873D01*
X52652862Y-142838439D01*
X53455807Y-142395188D01*
X54320362Y-142089034D01*
X55230251Y-141926958D01*
X55719814Y-141903871D01*
X55750000Y-141909875D01*
X55906851Y-141878675D01*
X56039825Y-141789825D01*
X56128675Y-141656852D01*
X56152000Y-141539590D01*
X56152000Y-141395173D01*
X62723000Y-141395173D01*
X62723000Y-141604827D01*
X62803231Y-141798522D01*
X62951478Y-141946769D01*
X63145173Y-142027000D01*
X63173132Y-142027000D01*
X63918327Y-142772196D01*
X63930881Y-142790985D01*
X63883679Y-142838187D01*
X63773000Y-143105391D01*
X63773000Y-143394609D01*
X63883679Y-143661813D01*
X64088187Y-143866321D01*
X64355391Y-143977000D01*
X64644609Y-143977000D01*
X64911813Y-143866321D01*
X65116321Y-143661813D01*
X65227000Y-143394609D01*
X65227000Y-143105391D01*
X65153108Y-142927000D01*
X67181683Y-142927000D01*
X67201452Y-142946769D01*
X67395147Y-143027000D01*
X67604801Y-143027000D01*
X67798496Y-142946769D01*
X67946743Y-142798522D01*
X68026974Y-142604827D01*
X68026974Y-142395173D01*
X67946743Y-142201478D01*
X67798496Y-142053231D01*
X67604801Y-141973000D01*
X67395147Y-141973000D01*
X67201452Y-142053231D01*
X67181683Y-142073000D01*
X64426869Y-142073000D01*
X63777000Y-141423132D01*
X63777000Y-141395173D01*
X63696769Y-141201478D01*
X63548522Y-141053231D01*
X63354827Y-140973000D01*
X63145173Y-140973000D01*
X62951478Y-141053231D01*
X62803231Y-141201478D01*
X62723000Y-141395173D01*
X56152000Y-141395173D01*
X56152000Y-139355391D01*
X63773000Y-139355391D01*
X63773000Y-139644609D01*
X63883679Y-139911813D01*
X64088187Y-140116321D01*
X64355391Y-140227000D01*
X64644609Y-140227000D01*
X64911813Y-140116321D01*
X65116321Y-139911813D01*
X65226766Y-139645173D01*
X76973000Y-139645173D01*
X76973000Y-139854827D01*
X77053231Y-140048522D01*
X77201478Y-140196769D01*
X77395173Y-140277000D01*
X77604827Y-140277000D01*
X77798522Y-140196769D01*
X77818291Y-140177000D01*
X80207947Y-140177000D01*
X80250000Y-140185365D01*
X80292053Y-140177000D01*
X80292054Y-140177000D01*
X80416607Y-140152225D01*
X80557850Y-140057850D01*
X80578463Y-140027000D01*
X80604827Y-140027000D01*
X80798522Y-139946769D01*
X80889900Y-139855391D01*
X84485500Y-139855391D01*
X84485500Y-140144609D01*
X84596179Y-140411813D01*
X84800687Y-140616321D01*
X85067891Y-140727000D01*
X85357109Y-140727000D01*
X85624313Y-140616321D01*
X85828821Y-140411813D01*
X85939500Y-140144609D01*
X85939500Y-139855391D01*
X85828821Y-139588187D01*
X85624313Y-139383679D01*
X85357109Y-139273000D01*
X85067891Y-139273000D01*
X84800687Y-139383679D01*
X84596179Y-139588187D01*
X84485500Y-139855391D01*
X80889900Y-139855391D01*
X80946769Y-139798522D01*
X81027000Y-139604827D01*
X81027000Y-139395173D01*
X80946769Y-139201478D01*
X80798522Y-139053231D01*
X80604827Y-138973000D01*
X80395173Y-138973000D01*
X80201478Y-139053231D01*
X80053231Y-139201478D01*
X80002895Y-139323000D01*
X77818291Y-139323000D01*
X77798522Y-139303231D01*
X77604827Y-139223000D01*
X77395173Y-139223000D01*
X77201478Y-139303231D01*
X77053231Y-139451478D01*
X76973000Y-139645173D01*
X65226766Y-139645173D01*
X65227000Y-139644609D01*
X65227000Y-139355391D01*
X65116321Y-139088187D01*
X64911813Y-138883679D01*
X64644609Y-138773000D01*
X64355391Y-138773000D01*
X64088187Y-138883679D01*
X63883679Y-139088187D01*
X63773000Y-139355391D01*
X56152000Y-139355391D01*
X56152000Y-130855391D01*
X60273000Y-130855391D01*
X60273000Y-131144609D01*
X60383679Y-131411813D01*
X60588187Y-131616321D01*
X60855391Y-131727000D01*
X61144609Y-131727000D01*
X61411813Y-131616321D01*
X61616321Y-131411813D01*
X61727000Y-131144609D01*
X61727000Y-130912225D01*
X61751090Y-130888135D01*
X61751092Y-130888132D01*
X61912227Y-130726998D01*
X62826182Y-130726998D01*
X62773000Y-130855391D01*
X62773000Y-131144609D01*
X62883679Y-131411813D01*
X63088187Y-131616321D01*
X63355391Y-131727000D01*
X63644609Y-131727000D01*
X63911813Y-131616321D01*
X64116321Y-131411813D01*
X64183473Y-131249693D01*
X64956779Y-132023000D01*
X64855391Y-132023000D01*
X64588187Y-132133679D01*
X64383679Y-132338187D01*
X64273000Y-132605391D01*
X64273000Y-132894609D01*
X64383679Y-133161813D01*
X64548000Y-133326134D01*
X64548001Y-134773000D01*
X64355391Y-134773000D01*
X64088187Y-134883679D01*
X63883679Y-135088187D01*
X63773000Y-135355391D01*
X63773000Y-135644609D01*
X63883679Y-135911813D01*
X64088187Y-136116321D01*
X64355391Y-136227000D01*
X64644609Y-136227000D01*
X64911813Y-136116321D01*
X65116321Y-135911813D01*
X65227000Y-135644609D01*
X65227000Y-135412225D01*
X65288133Y-135351092D01*
X65325874Y-135325874D01*
X65425775Y-135176362D01*
X65452000Y-135044518D01*
X65460855Y-135000000D01*
X65452000Y-134955482D01*
X65452000Y-133326134D01*
X65616321Y-133161813D01*
X65727000Y-132894609D01*
X65727000Y-132795747D01*
X65747130Y-132825874D01*
X65784870Y-132851091D01*
X65896642Y-132925775D01*
X66073003Y-132960855D01*
X66117521Y-132952000D01*
X66923866Y-132952000D01*
X67088187Y-133116321D01*
X67355391Y-133227000D01*
X67644609Y-133227000D01*
X67911813Y-133116321D01*
X68116321Y-132911813D01*
X68227000Y-132644609D01*
X68227000Y-132355391D01*
X68116321Y-132088187D01*
X67911813Y-131883679D01*
X67644609Y-131773000D01*
X67355391Y-131773000D01*
X67088187Y-131883679D01*
X66923866Y-132048000D01*
X66260229Y-132048000D01*
X65193830Y-130981602D01*
X65411813Y-130891311D01*
X65576134Y-130726990D01*
X67613086Y-130726990D01*
X67910660Y-131024565D01*
X67910660Y-131256949D01*
X68021339Y-131524153D01*
X68225847Y-131728661D01*
X68493051Y-131839340D01*
X68782269Y-131839340D01*
X69049473Y-131728661D01*
X69253981Y-131524153D01*
X69364660Y-131256949D01*
X69364660Y-130967731D01*
X69253981Y-130700527D01*
X69049473Y-130496019D01*
X68782269Y-130385340D01*
X68549885Y-130385340D01*
X68197929Y-130033384D01*
X79911000Y-130033384D01*
X79911000Y-130466616D01*
X80076790Y-130866869D01*
X80383131Y-131173210D01*
X80783384Y-131339000D01*
X81216616Y-131339000D01*
X81616869Y-131173210D01*
X81923210Y-130866869D01*
X82089000Y-130466616D01*
X82089000Y-130033384D01*
X81923210Y-129633131D01*
X81616869Y-129326790D01*
X81216616Y-129161000D01*
X80783384Y-129161000D01*
X80383131Y-129326790D01*
X80076790Y-129633131D01*
X79911000Y-130033384D01*
X68197929Y-130033384D01*
X68151403Y-129986859D01*
X68126184Y-129949116D01*
X67976672Y-129849215D01*
X67844828Y-129822990D01*
X67800310Y-129814135D01*
X67755792Y-129822990D01*
X65576134Y-129822990D01*
X65411813Y-129658669D01*
X65144609Y-129547990D01*
X64855391Y-129547990D01*
X64588187Y-129658669D01*
X64383679Y-129863177D01*
X64293388Y-130081160D01*
X64199095Y-129986867D01*
X64173876Y-129949124D01*
X64024364Y-129849223D01*
X63892520Y-129822998D01*
X63848002Y-129814143D01*
X63803484Y-129822998D01*
X61769520Y-129822998D01*
X61725002Y-129814143D01*
X61680484Y-129822998D01*
X61548640Y-129849223D01*
X61399128Y-129949124D01*
X61373910Y-129986865D01*
X61111868Y-130248908D01*
X61111865Y-130248910D01*
X61087775Y-130273000D01*
X60855391Y-130273000D01*
X60588187Y-130383679D01*
X60383679Y-130588187D01*
X60273000Y-130855391D01*
X56152000Y-130855391D01*
X56152000Y-128778639D01*
X56220167Y-128302646D01*
X56407217Y-127891254D01*
X56702212Y-127548895D01*
X57081437Y-127303094D01*
X57527721Y-127169627D01*
X57764921Y-127152000D01*
X91721361Y-127152000D01*
X92197354Y-127220167D01*
G04 #@! TD*
M02*
